<?xml version="1.0" encoding="utf-8"?>
<!-- Generator: Adobe Illustrator 19.2.1, SVG Export Plug-In . SVG Version: 6.00 Build 0)  -->
<svg version="1.1" id="ggp-letters" xmlns="http://www.w3.org/2000/svg" xmlns:xlink="http://www.w3.org/1999/xlink" x="0px"
	 y="0px" viewBox="0 0 500 500" style="enable-background:new 0 0 500 500;" xml:space="preserve">
<style type="text/css">
	.st0{fill:#231F20;}
</style>
<path id="ggp" class="st0" d="M455.3,248.9c-12.2,4.5-28,6.8-44.9,6.8h-36.6v-79.8h34c22.8,0,40.5,1.5,52.7,7.6
	c13.9,6.8,19.9,17.1,19.9,31.1C480.4,229.5,472.4,242.6,455.3,248.9 M461.5,173.9c-12.5-5.1-28.9-7.2-51.1-7.2H364v89H261.5v7.1
	h94.8c-7.1,41-38.2,67.7-76.6,67.7c-19.4,0-40.1-8.7-54.2-23.8c-13.7-14.4-21.7-34.9-21.7-57.1c0-22.6,10.6-46,28.8-61.3
	c13.7-11.6,30-17.2,48.6-17.2c27.4,0,47.6,12.3,65.3,37.7h10.4c-17.2-30.2-42.5-45.5-75-45.5c-24.8,0-44.6,8-61.1,24.3
	c-17.2,17-26.2,38.4-26.2,61.8c0,2.1,0.1,4.3,0.2,6.4H92.9v7.1h94.8c-7.1,41-38.2,67.7-76.6,67.7c-19.3,0-40.1-8.7-54.2-23.8
	c-13.7-14.4-21.7-34.9-21.7-57.1c0-22.6,10.6-46,28.8-61.3c13.7-11.6,30-17.2,48.6-17.2c27.4,0,47.6,12.3,65.3,37.7h10.4
	c-17.2-30.2-42.4-45.5-75-45.5c-24.8,0-44.6,8-61.1,24.3C34.9,204.5,26,226,26,249.3c0,50.2,37,88.2,85.1,88.2
	c43.7,0,76.6-27.8,84.7-72.3c6.9,42.1,40.9,72.3,83.8,72.3c43.1,0,75.7-27.1,84.4-70.5v70.6h9.8v-74.9h36.3
	c55.7,0,79.1-19.6,79.1-48.6C489.2,196.8,481.9,182.3,461.5,173.9"/>
</svg>
