<?xml version="1.0" encoding="utf-8"?>
<!-- Generator: Adobe Illustrator 20.1.0, SVG Export Plug-In . SVG Version: 6.00 Build 0)  -->
<svg version="1.1" id="parkview_x5F_logo" xmlns="http://www.w3.org/2000/svg" xmlns:xlink="http://www.w3.org/1999/xlink" x="0px"
	 y="0px" viewBox="0 0 500 500" style="enable-background:new 0 0 500 500;" xml:space="preserve">
<style type="text/css">
	.st0{fill:#82BC00;}
	.st1{fill:#007934;}
	.st2{fill:#231F20;}
</style>
<g id="health">
	<path class="st0" d="M133.4,289.3v10c0,2.5-0.3,6.5,2.4,7.6v0.2h-10.5v-0.2c2.8-1.1,2.4-5.1,2.4-7.6v-20.9c0-2.5,0.4-6.5-2.4-7.6
		v-0.2h10.5v0.2c-2.8,1.1-2.4,5.1-2.4,7.6v6.9h20v-6.9c0-2.5,0.4-6.6-2.4-7.6v-0.2h10.6v0.2c-2.8,1.1-2.5,5.1-2.5,7.6v20.9
		c0,2.5-0.3,6.5,2.5,7.6v0.2H151v-0.2c2.8-1.1,2.4-5.1,2.4-7.6v-10H133.4z"/>
	<path class="st0" d="M173.8,302.4l7,0.7c3.7,0.3,7.5-0.8,10.2-3.3h0.2l-2.5,7.2h-23.1v-0.2c2.8-1,2.5-5.1,2.5-7.6v-20.9
		c0-2.5,0.3-6.6-2.5-7.6v-0.2h17.7c0.9,0,1.9,0.1,2.6-0.3h0.2v6.5H186c-1.7-2-4-2.2-6.5-2.2c-1.9,0-3.9,0.1-5.6,0.4v10.3h6.6
		c0.9,0,1.8,0,2.4-0.3h0.2v5.9h-0.2c-0.9-1.6-3.2-1.5-4.9-1.5h-4.1V302.4z"/>
	<path class="st0" d="M204.3,293.3l-2.9,7.8c-1.2,3.1-1.6,4.7,1.1,5.7v0.2h-10.2v-0.2c3.2-1.6,4.2-4.7,5.4-7.9l9.2-23.1
		c0.8-2,1.8-4.3-0.8-5.1v-0.2h8.7l11.5,28.4c1.3,3.1,2.3,6.2,5.4,7.9v0.2h-11.3v-0.2c2.7-1.2,2.3-1.8,0.8-5.7l-3-7.8H204.3z
		 M211.3,275.3l-5.5,13.9h10.9L211.3,275.3z"/>
	<path class="st0" d="M250,303c3.8,0.2,7-1.1,9.8-3.4h0.2L257,307h-22.7v-0.2c2.8-1,2.5-5.1,2.5-7.6v-20.9c0-2.5,0.3-6.6-2.5-7.6
		v-0.2h10.6v0.2c-2.8,1.1-2.4,5.1-2.4,7.6v24.1L250,303z"/>
	<path class="st0" d="M274,299.8c0,3.1-0.1,5.3,2.9,7v0.2h-11v-0.2c2.8-1.1,2.4-5.1,2.4-7.6v-24.7h-4.9c-2.4,0-4.9,0.6-6.6,2.2h-0.2
		l1.9-6.6h0.2c0.7,0.3,1.4,0.3,2.1,0.4h1.4H283c0.9,0,1.8-0.1,2.5-0.4h0.2l-1.8,6.6h-0.2c-0.7-1.9-2.9-2.2-4.8-2.2h-5V299.8z"/>
	<path class="st0" d="M294.2,289.3v10c0,2.5-0.3,6.5,2.4,7.6v0.2h-10.5v-0.2c2.8-1.1,2.4-5.1,2.4-7.6v-20.9c0-2.5,0.4-6.5-2.4-7.6
		v-0.2h10.5v0.2c-2.8,1.1-2.4,5.1-2.4,7.6v6.9h20v-6.9c0-2.5,0.4-6.6-2.4-7.6v-0.2h10.6v0.2c-2.8,1.1-2.5,5.1-2.5,7.6v20.9
		c0,2.5-0.3,6.5,2.5,7.6v0.2h-10.6v-0.2c2.8-1.1,2.4-5.1,2.4-7.6v-10H294.2z"/>
</g>
<g id="logo">
	<rect x="77.3" y="222.3" class="st1" width="6.9" height="10.1"/>
	<polygon class="st1" points="86.3,229.5 86.3,236.4 93.3,236.4 93.3,229.5 92.9,229.5 	"/>
	<rect x="95.4" y="225.1" class="st1" width="4.4" height="4.4"/>
	<rect x="86.3" y="218.1" class="st1" width="7" height="7"/>
	<rect x="49.8" y="222.3" class="st1" width="6.9" height="10.1"/>
	<rect x="40.8" y="218.1" class="st1" width="7" height="7"/>
	<rect x="34.3" y="225.1" class="st1" width="4.4" height="4.4"/>
	<rect x="40.8" y="229.5" class="st1" width="7" height="7"/>
	<polygon class="st1" points="49.8,234.5 56.8,234.5 56.8,237.5 59.9,237.5 59.9,244.5 49.8,244.5 	"/>
	<rect x="62" y="237.5" class="st1" width="10.1" height="6.9"/>
	<polygon class="st1" points="77.3,234.5 84.2,234.5 84.2,244.5 74.2,244.5 74.2,237.5 77.3,237.5 	"/>
	<rect x="57.8" y="246.6" class="st1" width="7" height="7"/>
	<rect x="64.7" y="255.6" class="st1" width="4.4" height="4.4"/>
	<rect x="69.3" y="246.5" class="st1" width="7" height="7"/>
	<polygon class="st1" points="74.2,210.1 84.2,210.1 84.2,220.2 77.3,220.2 77.3,217 74.2,217 	"/>
	<rect x="62" y="210.1" class="st1" width="10.1" height="6.9"/>
	<polygon class="st1" points="49.8,210.1 59.9,210.1 59.9,217 56.8,217 56.8,220.2 49.8,220.2 	"/>
	<rect x="69.3" y="201.1" class="st1" width="7" height="7"/>
	<rect x="64.8" y="194.5" class="st1" width="4.4" height="4.4"/>
	<rect x="57.8" y="201.1" class="st1" width="7" height="7"/>
	<rect x="58.5" y="218.7" class="st1" width="17.1" height="17.1"/>
</g>
<path id="registered" class="st1" d="M80.9,251.8c1.5,0,2.7-1.2,2.7-2.8c0-1.5-1.2-2.8-2.7-2.8c-1.5,0-2.8,1.2-2.8,2.8
	C78.1,250.5,79.4,251.8,80.9,251.8 M80.9,251.4c-1.3,0-2.4-1.1-2.4-2.4c0-1.3,1.1-2.4,2.4-2.4c1.3,0,2.4,1.1,2.4,2.4
	C83.3,250.4,82.2,251.4,80.9,251.4z M81.3,249.2c0.5,0,0.9-0.2,0.9-0.8c0-0.5-0.3-0.8-1.1-0.8h-1.3v3h0.3v-1.4h0.7l0.9,1.4h0.4
	L81.3,249.2z M80.2,248.8v-0.9h0.9c0.4,0,0.8,0.1,0.8,0.4c0,0.6-0.7,0.5-1.1,0.5H80.2z"/>
<g id="parkview">
	<path class="st2" d="M143.4,203c9.6,0,16.9,4.6,16.9,12.9c0,8.5-7.9,13.9-16.2,13.9c-1.8,0-3.7-0.2-5.4-1
		c6.3-0.4,13.2-4.3,13.2-11.4c0-6.5-4.6-9.1-10.5-9.1c-1.8,0-3.5,0.1-5.2,0.4V242c0,4.1-0.1,7.1,3.8,9.3v0.2h-14.7v-0.2
		c3.8-1.3,3.3-6.8,3.3-10.1v-27.8c0-3.3,0.4-8.7-3.2-10.2V203H143.4z"/>
	<path class="st2" d="M169.8,233.3l-3.8,10.4c-1.5,4.1-2.1,6.3,1.5,7.6v0.2h-13.6v-0.2c4.3-2.1,5.5-6.3,7.2-10.5l12.3-30.8
		c1-2.7,2.4-5.8-1.1-6.9V203h11.7l15.3,37.8c1.7,4.2,3,8.3,7.2,10.5v0.2h-15.1v-0.2c3.6-1.6,3-2.4,1-7.6l-4-10.4H169.8z M179,209.3
		l-7.3,18.6h14.5L179,209.3z"/>
	<path class="st2" d="M227.1,203c9.9,0,15.3,5.2,15.3,11.9c0,6.5-5.7,11.6-11.7,13l10.6,13.3c3.1,3.8,7.7,7.7,12,10.3h-6.8
		c-3.9,0-6.3-1-8.5-3.7l-9-11.1l-6.8-10.4c5.9-0.9,12.8-3.6,12.8-10.5c0-5.3-4.6-8.4-9.5-8.2c-1.7,0.1-3.3,0.3-5,0.6v33
		c0,3.4-0.4,8.8,3.3,10.1v0.2h-14.1v-0.2c3.8-1.3,3.2-6.8,3.2-10.1v-27.8c0-3.4,0.5-8.8-3.2-10.2V203H227.1z"/>
	<path class="st2" d="M255.5,213.3c0-3.3,0.4-8.7-3.3-10.1V203h14.2v0.2c-3.8,1.3-3.3,6.8-3.3,10.1v27.8c0,3.4-0.4,8.8,3.3,10.2v0.2
		h-14.2v-0.2c3.8-1.4,3.3-6.9,3.3-10.2V213.3z M273.7,213.5c2.4-3.5,6.9-8,1.9-10.3V203h13.3v0.1l-17,21.8l14.9,19.5
		c2.3,3,5.1,5.1,8.8,6.9v0.2h-6.9c-3.6,0-7-1.4-8.3-3.2l-16.4-22L273.7,213.5z"/>
	<path class="st2" d="M326.9,216.3c2-5.2,4.5-11.3-0.1-13.1V203h11l-19.5,50.7c-5.2-3.4-6.9-4-9-9.8l-11.1-30.2
		c-1.4-3.8-2.5-8-5.8-10.5V203h10.8l-0.1,0.9c0,1.6,1.4,5.2,2,6.9l11.7,32.1L326.9,216.3z"/>
	<path class="st2" d="M345.3,213.4c0-3.4,0.5-8.8-3.2-10.2V203h14v0.2c-3.7,1.4-3.2,6.9-3.2,10.2v27.8c0,3.3-0.4,8.7,3.2,10.1v0.2
		h-14v-0.2c3.7-1.3,3.2-6.8,3.2-10.1V213.4z"/>
	<path class="st2" d="M374,245.3l9.4,0.9c4.9,0.4,10-1.1,13.6-4.4h0.2l-3.3,9.7h-30.8v-0.2c3.8-1.3,3.3-6.8,3.3-10.1v-27.8
		c0-3.4,0.4-8.8-3.3-10.2V203h23.6c1.3,0,2.5,0.1,3.5-0.4h0.2v8.6h-0.2c-2.3-2.7-5.3-2.9-8.7-2.9c-2.6,0-5.2,0.1-7.5,0.5v13.7h8.8
		c1.2,0,2.4,0,3.2-0.4h0.2v7.8H386c-1.2-2.1-4.3-2.1-6.6-2.1H374V245.3z"/>
	<path class="st2" d="M420.1,253.7c-6.7-4.9-7.4-4.4-9.8-11.9l-8.7-27.2c-1.3-4.1-2.4-8.8-6.1-11.4V203h10.8
		c-0.3,1.6,0.4,3.9,0.9,5.3l11,34.3l8.6-28c1.4-4.5,2.9-9.3-1.2-11.4V203h10.4c-0.4,1.8,0.1,4.2,1.1,7.4l10.2,31.9l8.3-27
		c1.3-4.2,3.8-10.2-2-12.2V203H465l-15.6,50.7c-6.8-4.6-7.3-4.3-9.7-11.9l-8.1-25.4L420.1,253.7z"/>
</g>
</svg>
