<?xml version="1.0" encoding="utf-8"?>
<!-- Generator: Adobe Illustrator 16.0.4, SVG Export Plug-In . SVG Version: 6.00 Build 0)  -->
<!DOCTYPE svg PUBLIC "-//W3C//DTD SVG 1.1//EN" "http://www.w3.org/Graphics/SVG/1.1/DTD/svg11.dtd">
<svg version="1.1" id="Layer_1" xmlns="http://www.w3.org/2000/svg" xmlns:xlink="http://www.w3.org/1999/xlink" x="0px" y="0px"
	 width="800px" height="150px" viewBox="0.5 175.5 800 150" style="enable-background:new 0.5 175.5 800 150;" xml:space="preserve"
	>
<metadata><?xpacket begin="﻿" id="W5M0MpCehiHzreSzNTczkc9d"?>
<x:xmpmeta xmlns:x="adobe:ns:meta/" x:xmptk="Adobe XMP Core 5.3-c011 66.145661, 2012/02/06-14:56:27        ">
   <rdf:RDF xmlns:rdf="http://www.w3.org/1999/02/22-rdf-syntax-ns#">
      <rdf:Description rdf:about=""
            xmlns:dc="http://purl.org/dc/elements/1.1/">
         <dc:format>image/svg+xml</dc:format>
         <dc:title>
            <rdf:Alt>
               <rdf:li xml:lang="x-default">Web</rdf:li>
            </rdf:Alt>
         </dc:title>
      </rdf:Description>
      <rdf:Description rdf:about=""
            xmlns:xmp="http://ns.adobe.com/xap/1.0/"
            xmlns:xmpGImg="http://ns.adobe.com/xap/1.0/g/img/">
         <xmp:CreatorTool>Adobe Illustrator CS6 (Macintosh)</xmp:CreatorTool>
         <xmp:CreateDate>2016-03-28T15:45:43-05:00</xmp:CreateDate>
         <xmp:ModifyDate>2016-03-28T15:45:44-05:00</xmp:ModifyDate>
         <xmp:MetadataDate>2016-03-28T15:45:44-05:00</xmp:MetadataDate>
         <xmp:Thumbnails>
            <rdf:Alt>
               <rdf:li rdf:parseType="Resource">
                  <xmpGImg:width>256</xmpGImg:width>
                  <xmpGImg:height>44</xmpGImg:height>
                  <xmpGImg:format>JPEG</xmpGImg:format>
                  <xmpGImg:image>/9j/4AAQSkZJRgABAgEASABIAAD/7QAsUGhvdG9zaG9wIDMuMAA4QklNA+0AAAAAABAASAAAAAEA&#xA;AQBIAAAAAQAB/+4ADkFkb2JlAGTAAAAAAf/bAIQABgQEBAUEBgUFBgkGBQYJCwgGBggLDAoKCwoK&#xA;DBAMDAwMDAwQDA4PEA8ODBMTFBQTExwbGxscHx8fHx8fHx8fHwEHBwcNDA0YEBAYGhURFRofHx8f&#xA;Hx8fHx8fHx8fHx8fHx8fHx8fHx8fHx8fHx8fHx8fHx8fHx8fHx8fHx8fHx8f/8AAEQgALAEAAwER&#xA;AAIRAQMRAf/EAaIAAAAHAQEBAQEAAAAAAAAAAAQFAwIGAQAHCAkKCwEAAgIDAQEBAQEAAAAAAAAA&#xA;AQACAwQFBgcICQoLEAACAQMDAgQCBgcDBAIGAnMBAgMRBAAFIRIxQVEGE2EicYEUMpGhBxWxQiPB&#xA;UtHhMxZi8CRygvElQzRTkqKyY3PCNUQnk6OzNhdUZHTD0uIIJoMJChgZhJRFRqS0VtNVKBry4/PE&#xA;1OT0ZXWFlaW1xdXl9WZ2hpamtsbW5vY3R1dnd4eXp7fH1+f3OEhYaHiImKi4yNjo+Ck5SVlpeYmZ&#xA;qbnJ2en5KjpKWmp6ipqqusra6voRAAICAQIDBQUEBQYECAMDbQEAAhEDBCESMUEFURNhIgZxgZEy&#xA;obHwFMHR4SNCFVJicvEzJDRDghaSUyWiY7LCB3PSNeJEgxdUkwgJChgZJjZFGidkdFU38qOzwygp&#xA;0+PzhJSktMTU5PRldYWVpbXF1eX1RlZmdoaWprbG1ub2R1dnd4eXp7fH1+f3OEhYaHiImKi4yNjo&#xA;+DlJWWl5iZmpucnZ6fkqOkpaanqKmqq6ytrq+v/aAAwDAQACEQMRAD8A9O/prR/+W63/AORqf1yf&#xA;hy7i1+ND+cPmvi1TTZW4xXcMjeCyIT+BwGEh0SMsTyIRORZtSSJGjSSMERQSzMaAAdSScQEE0o29&#xA;/Y3LFbe5imYCpWN1YgeNATkjAjmGMckZciCrsyqpZiAoFSTsABkWaHh1LTp5BHBdQyyHoiSKzGns&#xA;DkjCQ5hhHJEmgQiMizYtrnnCKN2tdOYPINpLgbqD4L4n3zl+1u3eC4Yfq6y7vd+t2+l7NJHFP5Kn&#xA;ljV4lsbp7ydY4oGDvNKwVRzrWrMfFcl7L5p5IzgbkRK/9N/Y0dqRjjIkaAr7kt1f82fL1qWi09X1&#xA;GYbck+CKv+uwqfoU53OHsvJL6vSHk9T27hhtD1n5D5ojR28467xur6X9Eaa26W8C0nkXt8TVZR77&#xA;fLBm8DFtEccvPknT/mtR6pnw4dw5n9TK7e3igiEUYPEd2JZj7lmJJPzzXykSbLuIQERQVMizdirs&#xA;VdirsVdirsVdirsVdirsVdirsVdirsVdirsVdirsVfJOi6Pe6zqkGmWQU3VySsQc8VqFLGp+Qzr8&#xA;mQQiZHkHz3DhlkmIx5lldx+THnuGF5RbRTcBX045lLmngDSuYg7SxE83YS7G1AF0D8Ud+U/nnVtO&#xA;8wW2h3s7y6beP9XWGUljDK2ycK7rVvhK9Mr1+ljKBmPqDb2VrpwyDHI+k7e4s3/O/wAx/o/y0mlR&#xA;NS51R+LgHcQRkM5/2TcV+VcwezMPFPi6Rdn23qODFwDnL7nkv5e+Yj5f82WV87cbZ29C78PRl2JP&#xA;+qaN9GbfV4fExkdXn+z9R4OYS6cj7i+lNZ/4499/zDy/8QOczj+oe97bN9B9xfP35Nf8p/Y/8Y5/&#xA;+TTZ0PaP9yfg8h2P/jA+P3PT/N/nB55H0vTHJjqUuJk6ua04JTt4+Py6+ZdrdqGROLHy6nv8h+N3&#xA;1Xs7s4RHiZOfQd3mWPN9V0y2lub9uRhUu8KnZab0dh1P+Sv312zTYdFx5I464skjQj0+J++vmGjt&#xA;HtmGOJ4OQ5n9Tz7UNf1XzDfIrA+mW42ljEPhUtsAqj7THuepz2HsvszHosXDHn/EeX9g/Bs7vlfa&#xA;Gvy6vJcrPcHpOheXvL3kyK01LzZIP0hckta2wRpVi4UJJ4g1cch7Dt45re0+2Yx9INRP2vTdh+zU&#xA;5+sjimOnQftei6J5j0XXIXm0u6W4WMgSKAVdSenJWAYVp4ZrMOeGQXE27zU6TJhNTFJllzjOxV2K&#xA;uxV2Kpfruvadoenm/v2ZYAyp8I5MWboAMqzZo448UuTkabTTzT4Ic0Za3CXNtDcxgiOZFkQMKGji&#xA;oqPHfJxlYB72mcDGRB6JdZ+ZtLvNcutFgZ2vbJec/wAJCAVUUDePx5VDURlMwHMORk0eSGIZT9Mu&#xA;Sa5e4rsVSjSPNeiave3VlYTmaezJEw4sF2bjsxFDuO2UYtTDJIiJ3Dl59DlxREpihLkm+XuI7FXY&#xA;q7FVC/vbexsp724bjBbRtLKRueKCpoPHbIzmIxJPIM8WMzkIjmTShomtWWs6dHqFlzNtKWCF14k8&#xA;GKnb5jIYcwyR4o8mzU6eWGZhLmEdlrQ7FXYq+V/JGs2ei+adP1S8Dm2tnZpBGAzUKMuwJHds6vU4&#xA;zPGYjmXgtFmjiyxnLkHsFz+e/lFIHaC3vJpgP3cZREBPYFuZoPoOaYdl5L3Iejl27hA2EiXmfkGx&#xA;vfMH5hWl0kdOF3+kbplHwoscnqn6C1FHzzaauQx4SPKnR6CEs2pB/pcR+9W8+6nc+bvzAa1sj6iC&#xA;VNPsR2orcS23YuWavhg0sBhw2feWWvynUaio9/CE4/OXybbaMmkXtinG1ECWExAp8cK/u2bxZ0r/&#xA;AMDlHZ2pM+IHnduT2xoxj4ZR5Vw/JnnkbzH+nPy3kkkbld2dtLaXNTUlo4/hY/6yEH51zA1WHgz+&#xA;RNu20Oo8XTb8wCD8njnkwTWbzaqjmN6Na25GxJkX96Qf8lGp/sgcp9q9ccWAY4/VP7gn2L7M8fUH&#xA;LL6cf2kswt7oWOli+T/ei5ma2hf/AH2qIrSMP8pvUUA9hXPP9Ni4cZyfxXQ8u/7/AL3r/aPWShWI&#xA;bcW5STzheOugcFPwzSoj/IVf9ajN17KYBLW2f4YE/cP0vDdq5SMFd5H6/wBDM/yX8jx21jH5kv0r&#xA;dXAP6PQ/7riOxk/1n7e3zzs+0tVZ8McuqOxtCAPFlzPL9aM80xR63+aGkaTIiy2tlF6txG45KT8U&#xA;rBgdiGCoM5LUjxNTGHQf2voWikcOhnkG0pGh9360u8uXOl6L568x3tofS0Owt39UJuvLnGAi+5k5&#xA;Bcp08o4885D6Ij9X6XI1cJ5tLijLfLKQ/Tv8uaZ6Z+YvmaTVtLfUNMit9G1qX0bEgkybsFDFq77u&#xA;Oqio6Zdj1+QzjxRqEzs42bsnAMc+CZOTGLPd+Pimmk+fLibUPMy38cUdloTOImQMHYI7rRiWYEng&#xA;KUAy7FrSZZOLlBxs/ZgEMXBfFl/Z+tJLj8yPNcOh6XeGztWvtXnkW0tljlNYU4qDT1K8ndtvbMeW&#xA;vyiETQ4pHbny+bmQ7IwHLOPFLhxgWbHP5dAmXlrzx5huvN13omtWcNoIY3kKpUtFxAYcn5MrAq3X&#xA;LtPrMksphMAOPrOzcMdPHLikZWfmll/+aHmN/rOqaVp0T+XbOYQvPLy5yEmmx5LStR0U0rvlM+0c&#xA;m8oxHhguTi7GwioZJHxZC6HRW/Mu9TWY/LOmWxJj1eZLgDuEcKqE09pT92HtCfiDHEfxG/x82HY+&#xA;M4TlnL/Jgj8fJFa95+1iHWrnTPLunx3kGkx+pqMjnYJGP3iruoHHp3Ne22WZtbMTMcYsR5tWl7Lx&#xA;nGJ5pGJyH0/Hkxny75ok0nT9d80/V/XvNVvhb2kTV4hjymatN6AONh7Zh4NTwRnlqzKVD73ZavRD&#xA;LPHguowhZ+wM+8pap51uru5g8xadFaJGivDLFWjFz9mvORTQe+2bPS5M0iRkjTotdh00Yg4ZGXv/&#xA;ALAiPPevfoTyzd3aNxuZB6Fr4+rJUAj/AFRVvoyetzeHjJ68g19maXxs8Y9OZ9w/FMH/ACcsLi01&#xA;vWYZxxlt4445U7hixNPopmt7KgYzkD0d12/lE8UCORJVLj8zvNssGr3Wn6fbvp9hMEW7Kv8ADGXK&#xA;ryBf4mI4/Z6YZdo5SJGIHDE80Q7G04MIzlLjkOXnXu2WXv5p+bYbPTtS/RUMOnXJ4F25MZnTaThR&#xA;gUH8tQfpxn2llAjLhHCftTj7F05lKHGTOP2d19/myXzV5y1e31mLy/5ctEvdWZPVnMn2I1pUA7oK&#xA;033Ph1rmXqdXMT8PGLk67Rdn45YzmzS4cfTzQcH5kXMvkC48wejEuoW8wtvSIb0mlJU1A5BqcHrT&#xA;llcdeTgOSvUDTbLsiI1Yw2eAi/Ot/wBKT3X5heYbjyvdahqGl262cvo29qk0UhiuJJCxkO7jkqrG&#xA;dgfpyiWuyHEZSiK2A83Lh2VhjnEITlxCyaIuIHLpz3TbVfN97o1rpOg6Jp0Mmt3MCSvaRKRDCXHJ&#xA;gqBq/a5HdthucvyaqWMRhCI4yOXQOLg0Ec0p5csj4YNX1KLl1z8xW0Wze20WFtVlaYXUbnjHGsTB&#xA;VNGkXd9yPiO2TObUcAqI4t7/ABbVHTaPxJCWQ8AqvO/h09yloP5h3V75b1m+vbaO31HR1b1IhyEb&#xA;OQ3pgqTyHxrxIrgw64yxylIVKDLU9lRhmxxiSYZPwfsY/cfmj50g02w1SfTLZLG5d19Wj0l4HcKO&#xA;ZKbdCeuYku0cwiJGI4S7CPYumlOUBOXEPs+zd5f5L0S11zzPYaVdvIlvdOyyPEQHAVGbYsGHVfDP&#xA;SdTlMMZkOYfF9FhGXLGB5Fk/5mfljF5Xht7/AEySa402Q+ncNOVZ45eqklFQcWG3Tr8xmLotb4pI&#xA;ltJzu0uzBgAlCzHzTLyb530/Tfy41iGztkg1y0ShkiX45VmYRpOzDf8AdF967dPHKtTpjLPEk+k/&#xA;ivi3aPWxhppCIrIPtvr8GD+XPJ3mjX1lm0Wza4W2ZVkkEkcXFmBIAMjJXp2zOzajHj2kebq9Po8u&#xA;WzAXXuTib8q/zLaM+rprui/EVNzbt08B6prlI12Dv+w/qck9l6qt4/aP1q35VeYGsNQ1DSZCfR1a&#xA;1ljRf+L0RjH/AMECy/MjBr8PFES/mn7GXZWo4JSh0mD8+iUeWpZrq0k02FGe4hZ7uFFBJZSiiYbd&#xA;wsasPYHNF7U6GWTHHJH+Dn7i9P7DdpwxZZYZ7eJuD5joyrSEbWNHuNIiP+nwv9d09P8AfjKvGaIf&#xA;5TJQj/VzjtGOKJx9eY/T+PJ6v2n0JnAZI84pHq1bvQp0oTJDSQDw4n4q/Ja5n9hZPB1sb5SuPz5f&#xA;bT57rY8eE+W76J0qCO30yzgiHGOKCNEHgqoAM3szciXfYogRAHc8S1sajqWp+afMVndSQR2EqQkx&#xA;kqZI5JPQVeSsNuKAnrnL5uKcsmQGuE/se903BjhhwyAPEL9xq/0plr1lYaf+W2jw6chSTWZYZb2V&#xA;iSXdYySCf5Vc/CP45bnhGOniI/x1bjaXJPJrJmfLGDXz/UyK38k+crjU9Dk1e6sWsNEdWgitvUVg&#xA;E4kChjUH+7Xqcy46PMZQMzHhh3f2Ovn2jpowyDGJ8WTndfr82GyG8vvNGu+W7WqnWdW/fSDoIrea&#xA;Znr8uQb/AGOYBuWWeMfxz+4l3A4YYMeaX+Tx7e8iP9nxZZdWsF1+amk6XbqFs9DtVPpjovBC6f8A&#xA;Eo8zZREtVGI5QH4/Q6qEzHQzmfqyy/H6UjkvHnl89eYlJoqCwgfxSeUQ1HyRF+/MYzs5cnw+ZpzR&#xA;jERp8P8AnH4C/vRGvLHp35VaNpkS1udVeOXgB8Tcj6pP4ouTzejSxiOcv7f1MNNeTXzmfphY/R+t&#xA;FxRA/mNZWrfHD5Z0xBIB0rFDWv8AwUq/dlgH+EAdMcf0ftaZS/wOUuubJ95/Yg/K92tn+XvmXXLh&#xA;h9b1GSSDl1JZ1Cr/AMPMxyvTS4dPOZ5y2/HzbtbDj1eLEPpgAfx8kwtfJhv/AMqLeBBS+HLUYe3J&#xA;jyov+yiNPnlsdJxaUDr9X4+Djz7Q8PXkn6fp/HxZR+XfmCbXPLENxcEtdW7G2uHP7TRgEN8yrCvv&#xA;mboM5yYwTzGzrO1tKMOcgfSdwxH8w9be684WGnw2kuo2ujlbi6tYASXkYhqNQNsBxHTuRmBrs3Fm&#xA;EQOIQ3IDtuytNw6eUzIQlk2BPd+LQ3k7WpE/xxrrI0D8TKsTk8kkkaYxodh0bbIaTKf3s+X4LZ2h&#xA;pwfy+Ln0+A4bQkgOl/lDGg2m1q7qR+1xVq/dSAfflZ9Gk/rn8fc3D972gT0xx/H3pt5k08NrPkzy&#xA;qBVbVI5LlR+0BQMT9EL/AH5kaiHrxYu78foLiaTL+7z5/wCddfj4hB+W4PNup+ZfMGraFPaQzGd4&#xA;ZWu+RYRs5KKnFX6BB92V6cZZ5JzgRz6t2slp8eHHjyiRFX6f7R3ofXvLl5o+g6J5UmlR7vU9RaeU&#xA;wlivRIU3ZVPR/DIZtOccI4jzlK/0Nmm1cc2XJnA9MIVv8Sn/AOY8MV3rXljy3CoWB5Q0kQ6CIFY1&#xA;29kD5la8CU8eMcnA7IkYY8uY86+3n+pd5LX6/wDmN5m1Gf4pbR2toq9lDmMEf7GGn04dJ6tRkkem&#xA;34+SO0D4ejxQHKW/2X+lD6rrvmbWvMurwaXqJ0vTdAjkeWRVDBniqG5161ZWpXagyGTNkyZJCMuG&#xA;MGzBpsOHDAzjxzykfaxdJZrb8tr24kJa617UVjJ7skX7wtt/xYCMwwSNOT1nJ2ZiJayIH04offt9&#xA;zI/NGng6t5M8qKPht0jkuVHcAqGP3RPmXqYevFi7vx+guu0WX93nz991+PiG/Kf5M3Og+YbLVn1V&#xA;J1tGZjCISpbkjL15n+bOv1HaQyQMeHm+d6TsY4sgnxXXk9H1TTLPVNPuNPvYxJa3KGOVPY9x4EHc&#xA;HxzWwmYyBHMO5y44ziYy5F5bpv5HX+nagt1BrEUkalleGSBiskLgq8clH6Ohoc2s+0xKNGP2uix9&#xA;iShKxMfLp3c3oPlDyrZeWNIOm2jGRDNJM8rABmLt8NafyoFX6M12oznLLiLt9JpY4IcI707yhynl&#xA;WpfkncSeYptX0zVksg1x9at4vRLGJ+XPYhwNm6bZtodpAQ4ZRvanQZOxSchnGXDvY25Jp5d/Kr9C&#xA;+cz5givUNsWmZbJYyvH1lI4huR2Uttt0yrNr+PFwEb97kafsvws/iA7b7V3p5q3kHRL28W/tuena&#xA;ijCRbm2oo5g15MhHE7+FDmhzaCEzxD0y7w9Tg7UywjwS9cO4/rSLzf8Al5LcK2pWPGa8df8AT7ZV&#xA;4LOSKM6LVuLHutd/n1x9Vo5bTh9Y3+Pe6PU6eMiTEbHoyjyrdS3Xlez4txuYoBbuzjcSwj0yWXtu&#xA;vKmbMZfEHENuL7P7C26U+iN9Nj8El0r8uvqXlTU9EkvBNPqTF2uuBFKBeNV5EmhWvXvmBi0HDilC&#xA;95dXfZ+1uPPDKI0IdFS4/L2O78l2vl66u6z2bF4LxU2DcmIqhO44vTrhloeLCMZO46sYdqmGpOaM&#xA;dpcx8lbyx5c1bQ2uL7Wdbk1BUhKKshf04o1PJm+Jm3ovhk9PgljuU5cWzDWavHnqOPGIb/NIvyw0&#xA;xL7V9Z81vGVS7uJlsg3ULI5kkP4ha/PMXs7HxTll7yac7tnMYY4YL+mIv4Ch+PcyDSvKFzY+YtY1&#xA;xrtZLnUVZLccCPSUkFQdzypxXw6ZlY9KY5JTveX2OBn18Z4YYuGhDnvz/G6H0X8vLey8q3+g3Vx9&#xA;Y+vu0klwq8SDReFASfssnLrkcOhEcRxk3xNmo7VM88csRXD0+9B+XfyzlstRtbzV9SbUV04cdPt6&#xA;EJHTdTuzdDvQd8rwdnmMgZy4uHk26vtgTgY448HH9R7000TyWbHWda1K7uRctq5ZQiqUMcbsxK1q&#xA;a7cR9GXYdJwzlIm+JxtT2hx48cIivD+0sWP5N3/1F7L9Nt9XE3qwwFG9IbULsnOnMigr4ZhfyVLh&#xA;rj2v8fF2f+iCHFxeHvVXe/3ck61vyDrFxOj6RrclhB9VispbcBuJiiXiKcWHb2+nMjNopk+ifCKp&#xA;w9N2pjiP3mMSPEZX5lkHlfy5a+XtHi023cy8SXlmYULu3VqdvADMvTYBihwhwNbq5ajIZnZA+UvK&#xA;Mmi3WpX13dC81DUpfUlmCFAFqW4gEt+036sq0ul8MykTcpN2u1wzRjGI4YQCSn8tL36jrtsupIDr&#xA;c8UzsIjRFjkeQrTlvUuPuzH/AJPlwzHF9Z7nN/liPFjlw/3YI594A7kfqnkE3sPl61F2Es9E4erF&#xA;wqZuPCprX4a8D9+W5NFxCAvaH2tGHtTgOWVerJ9nNFr5Rkbzu3mWa5DosPpW1twNUPAITyr7t275&#xA;P8r++8QnpyaTrx+W8EDrZP4+CS335aakus3d7omtyaZBfuXuoowwYFiSeJVlqKk06UzHn2fLjMoS&#xA;4RLm5uLtiHhiOXGJmPL8Umtz5Ke48zaTq0l3yttKgWFLZlJZ3QNRy5bryYHp2y+WkvJGZO0Q4sO0&#xA;RHBPGI7zN3+hVm8pST+doPMk1yGjtofSgteJqvwsteVfGRj0wnS3mGQnkOTCOuEdMcIG5Nk/j3JX&#xA;c/lxdDzPLq+narJZW15KJb62TkGf4g7ryVlqHNevSuUy0B8XjjKgeYcqHa0fAGOcBKURQP3fJDX/&#xA;AOWGozX+sS2msta2mruZZrcJXkzOXKuQwqo5NT55CfZ0jKREqEmzF2zAQgJY+KWPa/1IqX8t2ks/&#xA;L1kbxfquiuZJ09M/v2eQO/7Xw1oR365M6CxCN7Q+1qj2vUssuH1ZOW/Lakz/AMIyN53/AMSzXIdI&#xA;4fStrbgQUPDgTyr/AJTdu+Xflf33iE9OTjfnwNN4IHWyfx8GSZmOudirsVdirsVdirsVdirsVU4v&#xA;q9ZPR4cuf77hSvOg+1TvSnXAK6IFKmFLsVafhwbnThQ8q9Kd64lIai9L0x6XH0/2eFKde1MArosr&#xA;vddhQ7FXYq7FXYq7FXYq7FXYq7FXYq7FXYq7FXYq7FXYq7FX/9k=</xmpGImg:image>
               </rdf:li>
            </rdf:Alt>
         </xmp:Thumbnails>
      </rdf:Description>
      <rdf:Description rdf:about=""
            xmlns:xmpMM="http://ns.adobe.com/xap/1.0/mm/"
            xmlns:stRef="http://ns.adobe.com/xap/1.0/sType/ResourceRef#"
            xmlns:stEvt="http://ns.adobe.com/xap/1.0/sType/ResourceEvent#">
         <xmpMM:RenditionClass>proof:pdf</xmpMM:RenditionClass>
         <xmpMM:OriginalDocumentID>uuid:65E6390686CF11DBA6E2D887CEACB407</xmpMM:OriginalDocumentID>
         <xmpMM:DocumentID>xmp.did:0280117407206811822AC3523854C9F5</xmpMM:DocumentID>
         <xmpMM:InstanceID>xmp.iid:0280117407206811822AC3523854C9F5</xmpMM:InstanceID>
         <xmpMM:DerivedFrom rdf:parseType="Resource">
            <stRef:instanceID>xmp.iid:0180117407206811822AC3523854C9F5</stRef:instanceID>
            <stRef:documentID>xmp.did:0180117407206811822AC3523854C9F5</stRef:documentID>
            <stRef:originalDocumentID>uuid:65E6390686CF11DBA6E2D887CEACB407</stRef:originalDocumentID>
            <stRef:renditionClass>proof:pdf</stRef:renditionClass>
         </xmpMM:DerivedFrom>
         <xmpMM:History>
            <rdf:Seq>
               <rdf:li rdf:parseType="Resource">
                  <stEvt:action>saved</stEvt:action>
                  <stEvt:instanceID>xmp.iid:0180117407206811822AC3523854C9F5</stEvt:instanceID>
                  <stEvt:when>2016-03-28T15:44:41-05:00</stEvt:when>
                  <stEvt:softwareAgent>Adobe Illustrator CS6 (Macintosh)</stEvt:softwareAgent>
                  <stEvt:changed>/</stEvt:changed>
               </rdf:li>
               <rdf:li rdf:parseType="Resource">
                  <stEvt:action>saved</stEvt:action>
                  <stEvt:instanceID>xmp.iid:0280117407206811822AC3523854C9F5</stEvt:instanceID>
                  <stEvt:when>2016-03-28T15:45:44-05:00</stEvt:when>
                  <stEvt:softwareAgent>Adobe Illustrator CS6 (Macintosh)</stEvt:softwareAgent>
                  <stEvt:changed>/</stEvt:changed>
               </rdf:li>
            </rdf:Seq>
         </xmpMM:History>
      </rdf:Description>
      <rdf:Description rdf:about=""
            xmlns:illustrator="http://ns.adobe.com/illustrator/1.0/">
         <illustrator:StartupProfile>Web</illustrator:StartupProfile>
      </rdf:Description>
      <rdf:Description rdf:about=""
            xmlns:xmpTPg="http://ns.adobe.com/xap/1.0/t/pg/"
            xmlns:stDim="http://ns.adobe.com/xap/1.0/sType/Dimensions#"
            xmlns:xmpG="http://ns.adobe.com/xap/1.0/g/">
         <xmpTPg:NPages>1</xmpTPg:NPages>
         <xmpTPg:HasVisibleTransparency>False</xmpTPg:HasVisibleTransparency>
         <xmpTPg:HasVisibleOverprint>False</xmpTPg:HasVisibleOverprint>
         <xmpTPg:MaxPageSize rdf:parseType="Resource">
            <stDim:w>800.000000</stDim:w>
            <stDim:h>150.000000</stDim:h>
            <stDim:unit>Pixels</stDim:unit>
         </xmpTPg:MaxPageSize>
         <xmpTPg:PlateNames>
            <rdf:Seq>
               <rdf:li>Cyan</rdf:li>
               <rdf:li>Magenta</rdf:li>
               <rdf:li>Yellow</rdf:li>
               <rdf:li>Black</rdf:li>
            </rdf:Seq>
         </xmpTPg:PlateNames>
         <xmpTPg:SwatchGroups>
            <rdf:Seq>
               <rdf:li rdf:parseType="Resource">
                  <xmpG:groupName>Default Swatch Group</xmpG:groupName>
                  <xmpG:groupType>0</xmpG:groupType>
               </rdf:li>
            </rdf:Seq>
         </xmpTPg:SwatchGroups>
      </rdf:Description>
      <rdf:Description rdf:about=""
            xmlns:pdf="http://ns.adobe.com/pdf/1.3/">
         <pdf:Producer>Adobe PDF library 10.01</pdf:Producer>
      </rdf:Description>
   </rdf:RDF>
</x:xmpmeta>
                                                                                                    
                                                                                                    
                                                                                                    
                                                                                                    
                                                                                                    
                                                                                                    
                                                                                                    
                                                                                                    
                                                                                                    
                                                                                                    
                                                                                                    
                                                                                                    
                                                                                                    
                                                                                                    
                                                                                                    
                                                                                                    
                                                                                                    
                                                                                                    
                                                                                                    
                                                                                                    
                           
<?xpacket end="w"?>
	</metadata>
<path style="fill:#E55E20;" d="M277.792,272.016c-0.802,0.092-1.596,0.092-2.305,0.092h-1.682l-5.147,23.179h-8.764l14.259-63.63
	h7.35c6.727,0,10.914,1.821,13.387,4.455c2.901,3.091,4.096,6.91,3.913,12.18c-0.227,6.456-2.753,12.908-7.34,17.544
	c-1.467,1.453-3.189,2.638-5.085,3.638l3.349,25.813h-8.941L277.792,272.016z M276.655,264.016c3.809,0,6.585-0.998,8.789-3.271
	c2.753-2.728,4.413-7.272,4.591-12.271c0.093-2.727-0.539-4.908-1.819-6.272c-1.451-1.546-3.554-2.182-6.119-2.182h-1.064
	l-5.44,23.996H276.655z"/>
<path style="fill:#E55E20;" d="M306.267,275.016c-0.227,1.455-0.362,2.727-0.396,3.725c-0.234,6.729,2.242,9.275,6.492,9.275
	c2.389,0,4.805-0.729,8.324-2.639l-1.079,8.091c-2.444,1.544-5.67,2.634-8.768,2.634c-7.879,0-13.537-5.271-13.116-17.361
	c0.262-7.451,3.314-21.357,10.557-28.54c2.843-2.728,5.987-4.089,9.086-4.089c6.284,0,10.086,5.181,9.76,14.543
	c-0.123,3.545-0.696,7.271-2.361,14.361H306.267z M307.657,268.105h10.711c0.725-2.998,1.079-5.543,1.161-7.908
	c0.138-3.907-0.929-6.361-3.229-6.361c-0.973,0-2.053,0.546-2.971,1.454C310.945,257.652,308.989,262.925,307.657,268.105"/>
<polygon style="fill:#E55E20;" points="333.811,246.838 342.219,246.838 341.002,279.105 354.438,246.838 362.67,246.838 
	335.778,307.103 327.722,307.103 333.484,294.193 "/>
<path style="fill:#E55E20;" d="M367.355,246.838h8.409l-1.365,6.182c2.801-4.184,5.999-7,9.981-7c4.957,0,7.573,3.637,7.386,8.998
	c-0.059,1.728-0.293,3.363-0.832,6.092l-7.745,34.177h-8.41l7.223-31.905c0.535-2.635,0.76-3.999,0.802-5.181
	c0.097-2.817-1.172-4.453-3.385-4.453c-3.188,0-5.961,3.36-6.914,7.815l-7.641,33.724h-8.41L367.355,246.838z"/>
<path style="fill:#E55E20;" d="M424.556,262.471c-0.283,8.182-3.263,22.453-10.414,29.541c-2.931,2.817-6.073,4.09-9.262,4.09
	c-6.993,0-11.307-5.726-10.937-16.271c0.284-8.179,3.349-22.449,10.413-29.542c2.935-2.907,6.165-4.18,9.262-4.18
	C420.613,246.109,424.928,251.837,424.556,262.471 M408.745,286.831c4.125-4.089,7.467-18.542,7.708-25.542
	c0.172-4.909-1.157-7.453-3.546-7.453c-1.15,0-2.054,0.546-3.155,1.639c-4.123,3.998-7.459,18.449-7.708,25.541
	c-0.171,4.907,1.159,7.361,3.55,7.361C406.744,288.377,407.646,287.923,408.745,286.831"/>
<polygon style="fill:#E55E20;" points="439.172,231.111 447.58,231.111 433.211,295.285 424.803,295.285 "/>
<path style="fill:#E55E20;" d="M461.33,288.65c-2.704,3.998-6.012,7.451-9.818,7.451c-4.78,0-7.641-4.271-7.312-13.725
	c0.387-11.092,4.756-27.178,10.991-33.359c2.113-2.181,4.177-3,6.479-3c4.514,0,6.672,4.09,7.335,7.907l5.137-22.814h8.498
	l-14.369,64.172h-8.497L461.33,288.65z M459.194,286.469c4.127-4.091,7.28-18.361,7.503-24.727c0.169-4.814-1.062-7.542-3.543-7.542
	c-1.062,0-1.875,0.454-2.879,1.362c-4.129,4.181-7.3,18.816-7.52,25.178c-0.165,4.638,0.899,7.183,3.378,7.183
	C457.197,287.923,458.185,287.467,459.194,286.469"/>
<path style="fill:#E55E20;" d="M475.296,292.193l1.876-8.088c3.271,2.726,6.137,4.18,8.705,4.18c3.012,0,5.124-2.18,5.243-5.637
	c0.08-2.271-0.811-4.635-3.913-9.545c-3.438-5.545-5.087-8.998-4.917-13.906c0.249-7.088,5.235-12.997,13.292-12.997
	c3.717,0,6.947,1.271,9.104,2.909l-1.966,8.091c-2.757-2.185-5.288-3.185-7.234-3.185c-3.099,0-4.942,2.092-5.043,5.002
	c-0.069,2,0.817,4.362,3.926,9.271c3.104,4.815,5.169,9.09,5.003,13.907c-0.275,7.815-5.356,13.904-13.321,13.904
	C481.888,296.102,477.958,294.559,475.296,292.193"/>
<path style="fill:#E55E20;" d="M540.95,231.485h9.291l-1.96,63.807h-8.853l0.673-14.181h-11.686l-5.72,14.181h-8.32L540.95,231.485z
	 M540.562,273.021l1.157-25.543l-10.275,25.543H540.562z"/>
<path style="fill:#E55E20;" d="M564.087,246.846h8.411l-1.366,6.18c2.8-4.18,5.998-6.998,9.805-6.998
	c4.072,0,6.552,2.543,7.114,6.635c3.438-4.637,7.137-6.635,10.943-6.635c4.869,0,7.486,3.635,7.299,9
	c-0.059,1.728-0.293,3.363-0.92,6.089l-7.655,34.177h-8.412l7.225-31.904c0.534-2.635,0.758-3.998,0.802-5.182
	c0.098-2.818-1.084-4.455-3.297-4.455c-2.92,0-5.776,3.184-6.725,7.454l-7.652,34.087h-8.41l7.224-31.904
	c0.535-2.635,0.759-3.998,0.802-5.182c0.099-2.818-1.083-4.455-3.297-4.455c-3.1,0-5.784,3.363-6.736,7.818l-7.639,33.723h-8.41
	L564.087,246.846z"/>
<path style="fill:#E55E20;" d="M616.904,275.021c-0.228,1.455-0.362,2.729-0.396,3.728c-0.233,6.729,2.244,9.271,6.492,9.271
	c2.391,0,4.806-0.725,8.326-2.634l-1.081,8.089c-2.443,1.547-5.668,2.635-8.769,2.635c-7.877,0-13.536-5.271-13.114-17.359
	c0.262-7.454,3.312-21.361,10.559-28.541c2.839-2.729,5.984-4.092,9.084-4.092c6.283,0,10.086,5.183,9.76,14.545
	c-0.124,3.546-0.694,7.271-2.36,14.361h-18.5V275.021z M618.295,268.115h10.713c0.725-3.002,1.077-5.545,1.161-7.91
	c0.14-3.905-0.931-6.362-3.231-6.362c-0.973,0-2.053,0.546-2.971,1.456C621.582,257.66,619.629,262.934,618.295,268.115"/>
<path style="fill:#E55E20;" d="M648.405,246.846h8.321l-1.477,6.725c2.554-4.633,5.754-7.543,10.259-7.271l-2.305,10.271h-0.178
	c-5.4,0-9.154,3.548-10.828,10.91l-6.281,27.812h-8.41L648.405,246.846z"/>
<path style="fill:#E55E20;" d="M670.053,246.846h8.41l-10.811,48.445h-8.409L670.053,246.846z M673.523,231.118h8.586l-2.1,9.453
	h-8.588L673.523,231.118z"/>
<path style="fill:#E55E20;" d="M678.472,279.659c0.302-8.638,3.798-22.636,10.585-29.361c3.117-3.088,6.517-4.09,9.527-4.09
	c2.832,0,5.545,0.91,7.183,2.092l-1.99,8.906c-1.718-1.544-3.183-2.634-5.132-2.634c-1.506,0-2.943,0.636-4.141,1.906
	c-4.581,4.453-7.307,16.635-7.518,22.635c-0.229,6.545,2.09,8.634,5.276,8.634c1.504,0,3.028-0.546,4.919-1.453l-1.807,8.636
	c-1.707,0.727-3.493,1.18-5.265,1.18C682.941,296.109,678.084,290.749,678.472,279.659"/>
<path style="fill:#E55E20;" d="M701.443,285.294c0.186-5.362,2.226-12.997,6.352-17.089c2.199-2.184,4.805-3.273,7.729-3.273
	c2.741,0,5.188,0.91,7.261,2.364l0.418-1.819c0.523-2.271,0.744-3.543,0.788-4.814c0.146-4.184-1.993-6.273-6.241-6.273
	c-2.301,0-4.894,0.639-7.945,1.91l1.88-8.273c2.784-1.09,5.464-1.726,8.296-1.726c8.145,0,12.674,4.638,12.385,12.906
	c-0.064,1.91-0.313,3.909-1.247,7.817l-6.298,28.27h-8.41l1.161-5.363c-2.432,3.729-5.523,6.092-8.89,6.092
	C704.169,296.02,701.201,292.202,701.443,285.294 M719.54,281.658l1.788-8.09c-1.379-1.092-3.131-1.637-4.637-1.637
	c-1.33,0-2.403,0.455-3.414,1.455c-2.474,2.454-3.555,7.997-3.64,10.452c-0.13,3.728,1.326,5.089,3.451,5.089
	C716.1,288.93,718.594,285.93,719.54,281.658"/>
<path style="fill:#E55E20;" d="M743.191,246.846h8.409l-1.367,6.18c2.803-4.18,6.001-6.998,9.982-6.998c4.957,0,7.574,3.635,7.388,9
	c-0.061,1.728-0.297,3.363-0.833,6.089l-7.744,34.177h-8.408l7.221-31.904c0.537-2.635,0.759-3.998,0.801-5.182
	c0.098-2.818-1.173-4.455-3.386-4.455c-3.186,0-5.959,3.363-6.911,7.818l-7.639,33.723h-8.412L743.191,246.846z"/>
<g>
	<g>
		<defs>
			<path id="SVGID_1_" d="M308.76,194.643c-10.387,3.132-31.305,9.841-51.382,18.67c-2.799,1.231-5.583,2.504-8.333,3.821
				c-2.471,1.248-6.866,5.345-9.071,7.968c-6.857,8.146-10.883,18.381-10.883,30.753c0,23.539,16.43,52.889,16.43,52.889
				s-4.713-10.792-6.527-23.666c-1.055-7.278-1.191-15.146,0.953-22.014c10.112-32.426,75.436-70.342,75.436-70.342
				S312.931,193.392,308.76,194.643"/>
		</defs>
		<clipPath id="SVGID_2_">
			<use xlink:href="#SVGID_1_"  style="overflow:visible;"/>
		</clipPath>
		
			<linearGradient id="SVGID_3_" gradientUnits="userSpaceOnUse" x1="-207.8789" y1="-150.1426" x2="-206.0044" y2="-150.1426" gradientTransform="matrix(46.0332 0 0 46.0332 9798.4209 7162.3203)">
			<stop  offset="0" style="stop-color:#0086B9"/>
			<stop  offset="0.1" style="stop-color:#0086B9"/>
			<stop  offset="0.3095" style="stop-color:#0E99CD"/>
			<stop  offset="0.6437" style="stop-color:#21B3E8"/>
			<stop  offset="0.8085" style="stop-color:#30BBEC"/>
			<stop  offset="1" style="stop-color:#47C6F3"/>
		</linearGradient>
		<rect x="229.09" y="192.723" style="clip-path:url(#SVGID_2_);fill:url(#SVGID_3_);" width="86.292" height="116.021"/>
	</g>
</g>
<g>
	<g>
		<defs>
			<path id="SVGID_4_" d="M249.578,216.879c-22.202,10.555-42.129,23.753-44.923,37.916c-0.203,1.03-0.297,2.08-0.29,3.153
				c0.053,2.608,0.647,5.305,1.654,8.028c7.716,20.358,39.777,43.409,39.777,43.409s-0.09-0.207-0.251-0.599
				c-2.564-4.739-16.265-31.135-16.265-53.729c0-27.351,20.557-38.298,20.557-38.298S249.749,216.803,249.578,216.879"/>
		</defs>
		<clipPath id="SVGID_5_">
			<use xlink:href="#SVGID_4_"  style="overflow:visible;"/>
		</clipPath>
		
			<linearGradient id="SVGID_6_" gradientUnits="userSpaceOnUse" x1="-201.5181" y1="-150.8711" x2="-199.6423" y2="-150.8711" gradientTransform="matrix(16.9491 -9.7856 9.7856 16.9491 5101.4575 858.3682)">
			<stop  offset="0" style="stop-color:#5DA545"/>
			<stop  offset="0.0733" style="stop-color:#5DA545"/>
			<stop  offset="0.2684" style="stop-color:#7BB841"/>
			<stop  offset="0.4763" style="stop-color:#96C93D"/>
			<stop  offset="0.9574" style="stop-color:#BCD530"/>
			<stop  offset="1" style="stop-color:#BCD530"/>
		</linearGradient>
		<polygon style="clip-path:url(#SVGID_5_);fill:url(#SVGID_6_);" points="164.25,239.919 238.468,197.07 289.945,286.23 
			215.729,329.079 		"/>
	</g>
</g>
<g>
	<g>
		<defs>
			<path id="SVGID_7_" d="M180.889,266.327c4.53,21.948,38.445,28.862,38.445,28.862s-24.085-23.608-18.278-43.024
				c5.875-19.636,48.533-38.418,48.533-38.418s-0.068-5.737-1.931-12.226c-1.469-5.114-3.861-9.888-3.861-9.888
				S175.358,239.527,180.889,266.327"/>
		</defs>
		<clipPath id="SVGID_8_">
			<use xlink:href="#SVGID_7_"  style="overflow:visible;"/>
		</clipPath>
		
			<linearGradient id="SVGID_9_" gradientUnits="userSpaceOnUse" x1="-207.1387" y1="-147.3779" x2="-205.2628" y2="-147.3779" gradientTransform="matrix(38.2386 -38.2386 38.2386 38.2386 13738.5859 -2011.6133)">
			<stop  offset="0" style="stop-color:#E96B2E"/>
			<stop  offset="0.0596" style="stop-color:#E96B2E"/>
			<stop  offset="0.2158" style="stop-color:#F58721"/>
			<stop  offset="0.2684" style="stop-color:#F68D20"/>
			<stop  offset="0.4296" style="stop-color:#F7981F"/>
			<stop  offset="0.5966" style="stop-color:#F89C1E"/>
			<stop  offset="1" style="stop-color:#FBD402"/>
		</linearGradient>
		<polygon style="clip-path:url(#SVGID_8_);fill:url(#SVGID_9_);" points="123.579,243.412 212.474,154.518 301.368,243.412 
			212.474,332.305 		"/>
	</g>
</g>
<path style="fill:#0088BC;" d="M30.894,213.934h36.051c10.028,0,17.8,2.892,22.983,8.212c4.395,4.51,6.759,10.873,6.759,18.505
	v0.231c0,13.072-6.873,21.284-16.899,25.103l19.616,29.435l-20.101,0.009L61.875,268.99H48.244v26.438h-17.35V213.934z
	 M66.264,253.275c8.45,0,13.294-4.625,13.294-11.451v-0.231c0-7.631-5.183-11.566-13.631-11.566H48.688v23.25h17.576V253.275z"/>
<path style="fill:#0088BC;" d="M120.278,213.928h15.996l33.769,81.493h-18.128l-7.192-18.108h-33.345l-7.201,18.115L93.25,279.116
	L120.278,213.928z M138.725,261.582l-10.477-26.256l-10.593,26.234L138.725,261.582z"/>
<path style="fill:#0088BC;" d="M167.613,213.927l17.366-0.002v30.319c0,0-7.478,10.597-7.21,19.095
	c0.282,8.997,7.225,15.761,7.225,15.761l-0.015,16.291l-10.646,0.004l-6.717-16.307L167.613,213.927z"/>
</svg>
