<svg xmlns="http://www.w3.org/2000/svg" version="1.1" x="0" y="0" width="300" height="300" viewBox="0 0 300 300" enable-background="new 0 0 300 300" xml:space="preserve">
	<style>
	.logo-circle{fill:#efefef;}
	.logo-pylon{fill:#0273b9;}
	</style>
	<circle class="logo-circle" cx="150" cy="148" r="122.5"/>
	<path class="logo-pylon" d="M247.81 125c4.31 0 8.19-4.87 8.19-9.19V85.98c0-4.32-3.87-6.98-8.19-6.98H151.66c-4.31 0-7.66 2.66-7.66 6.98V100h-14.82c-1.28-7-6.45-10.69-12.64-10.69 -7.15 0-12.95 5.49-12.95 12.65 0 3.75 1.61 6.87 4.15 9.24l-64.04 97.52c1.99 3.54 3.91 6.88 6.33 9.91l66.97-103.58c5.42-0.19 10-4.04 11.74-8.04H144v8.81c0 4.32 3.35 9.19 7.66 9.19H247.81z"/>
</svg>