<svg id="schwab" xmlns="http://www.w3.org/2000/svg" viewBox="0 0 500 500">
  <defs>
    <style>
      .cls-1 {
        fill: #00a1df;
      }

      .cls-2 {
        fill: #fff;
      }
    </style>
  </defs>
  <title>schwab</title>
  <rect id="background_square" class="cls-1" width="500" height="500"/>
  <g id="charles">
    <path id="s1" class="cls-2" d="M434.49,226.56c0-6.81-4.24-12.46-8-17.45-3.19-4.26-6.2-8.27-6.2-12.37,0-5.59,3.15-9.19,8-9.19a14.72,14.72,0,0,1,6.35,1.82,15.12,15.12,0,0,0,6.55,1.89c3.39,0,6.4-3.6,6.4-6.44,0-3.44-3.64-7-9.74-7-14,0-26.43,15.84-26.43,28.32,0,6.8,4.15,12.1,7.81,16.76,3,3.77,5.5,7,5.5,10.34,0,5.58-5.17,8.93-10.15,8.93s-8.46-3.12-11.25-5.64c-2.08-1.86-3.89-3.47-5.81-3.47-2.7,0-3.31,5.72-3.31,7.74,0,3.23,6.65,8.58,14.22,8.58,11.48,0,26-10.77,26-22.86" transform="translate(0 0)"/>
    <path id="e" class="cls-2" d="M363.35,207.54l1.19,0.07,6.61,0.22c11.55,0,33.11-5.52,33.11-18.77,0-5.44-5-11.23-14.41-11.23-19.84,0-48,26.91-48,52,0,11.52,7.51,19.54,18.26,19.54,12.69,0,26.09-12.1,29.27-16.28a0.49,0.49,0,0,0-.06-0.66l0,0-2.09-2.55a0.68,0.68,0,0,0-.79-0.07l-1.73,1.28c-4.19,3.13-12,8.94-17.7,8.94-7.09,0-11.49-4.51-11.49-11.79,0-8.82,4.31-15.39,7.47-20.19Zm24.2-25.26a5.68,5.68,0,0,1,6,5.89c0,8.53-9.83,13.54-26.94,13.84C369.68,196.26,379,182.28,387.55,182.28Z" transform="translate(0 0)"/>
    <path id="l" class="cls-2" d="M336,230.69a0.56,0.56,0,0,0,0-.62c0-.13-2.41-3.09-2.41-3.09a0.56,0.56,0,0,0-.43-0.19,0.54,0.54,0,0,0-.41.18l-0.81.89c-6,6.66-9.35,10.32-12.1,10.48a1.45,1.45,0,0,1-1.12-.41,2.5,2.5,0,0,1-.55-2c0.17-3.71,6.21-21.14,18.47-53.29l8.9-23c4.67-12,7-18,7-18.84a1.61,1.61,0,0,0-.38-1.24,3.19,3.19,0,0,0-2.44-.69H329a0.62,0.62,0,0,0-.61.55s-0.11,3.33-.11,3.33a0.57,0.57,0,0,0,.43.56l4.63,0.41c3,0.5,4.17,1.5,4.06,3.44-0.1,2.91-13.51,36.15-13.51,36.15-7.19,17.91-19.31,49-19.69,56.31-0.16,3.26.61,5.87,2.21,7.57a8.14,8.14,0,0,0,6.14,2.28c8.45,0,16.89-10.53,22.47-17.51l1-1.22h0Z" transform="translate(0 0)"/>
    <path id="r" class="cls-2" d="M279.64,208.09a8.07,8.07,0,0,1-1.25,2.09l-0.19,0a4.89,4.89,0,0,0,0-.52c0-.65.73-3.5,1.59-7.12,1.64-6.87,3.9-16.26,3.9-18.94,0-3.54-1.93-5.46-5.43-5.46-7.37,0-18.5,12.09-22.38,18.58a0.31,0.31,0,0,0-.13.26,0.1,0.1,0,0,0,0,0,0.53,0.53,0,0,0,.16.38l2.19,2.29a0.45,0.45,0,0,0,.41.21,0.5,0.5,0,0,0,.44-0.26l0.66-.73,0.56-.7c2.5-3.14,7.69-9.67,10.38-9.67,1.45,0,2.27,1.47,2.27,4.07,0,6.5-7.17,26.35-11.93,39.51-2.69,7.42-4.62,12.81-4.62,13.82,0,1.44.54,2.09,1.8,2.09h6.18c1.3,0,1.71-.81,2.6-2.74,0-.08,3.06-7.25,4.75-10.75,12.25-25,19-37.8,24.12-42.79,3.41-3.32,5.83-4.8,7.6-4.69,1.36,0.08,2.2,1.09,3.11,2.19s2,2.43,3.78,2.55a4.49,4.49,0,0,0,3.43-1.3,9.23,9.23,0,0,0,2.43-6.63c0-4.55-3.19-6.17-5.92-6.17-11.19,0-19.47,8.25-30.54,30.4" transform="translate(0 0)"/>
    <path id="a1" class="cls-2" d="M242.89,226.81a0.55,0.55,0,0,0-.83,0l-2.4,2.92c-3.17,4-7.12,8.9-9.53,8.9a1.42,1.42,0,0,1-1.09-.31c-0.3-.3-0.38-0.89-0.32-2.08,0.19-3.34,6.71-20.47,12-34.25,3.87-10.17,7.21-18.94,7.33-20.37a1.94,1.94,0,0,0-1-1.84h0l-4.19-2.83-0.21-.1a1.9,1.9,0,0,0-1.52-.35,4.27,4.27,0,0,0-2.1,2c-0.66,1-1.29,1.94-2.46,1.94a15.68,15.68,0,0,1-3.26-.48,29.88,29.88,0,0,0-6.44-.77c-30.94,0-47.17,41.61-47.17,56,0,9.75,5.39,14.11,10.69,14.11,6.61,0,15.61-2.23,27-19.68,0,0,2.51-4.25,2.83-4.25a0.36,0.36,0,0,1,.29.08,0.82,0.82,0,0,1,0,.77l-0.9,2.1c-1.44,3.08-4.06,8.82-4.06,14.07,0,2.5.6,4.37,1.81,5.56a6,6,0,0,0,4.44,1.52c10.73-.18,20-14,23.51-19.23a1.52,1.52,0,0,1,.12-0.27l-0.14-.41Zm-46.31,11.92c-2.87,0-4.53-1.12-4.53-6.87,0-20.19,16-48.22,31.81-48.22,5.23,0,8.25,3.07,8.25,8.43C232.1,200.39,210.2,238.72,196.57,238.72Z" transform="translate(0 0)"/>
    <path id="h1" class="cls-2" d="M129.36,138.68a0.66,0.66,0,0,0-.6.58v3.36a0.6,0.6,0,0,0,.41.55l2.08,0.2,2.6,0.24c3.39,0.54,4.29,1.13,4.29,2.83,0,2.86-3.2,11.85-7.65,24.3l-4,11.22c-3.42,9.91-8.73,23.76-13.42,36-5.59,14.58-10,26.08-10,27.62,0,1.85,1,2.3,5.11,2.3,4.54,0,6.56-.7,7-2.41,7.82-25.83,29.4-55.29,40.51-55.29,3.51,0,4.77,1.22,4.77,4.73,0,5.73-4.86,16.51-9.56,26.94-4.15,9.19-8.06,17.88-8.06,22,0,3.79,1.7,5.71,5.08,5.71,11.07,0,19.41-9.94,26.1-17.94l0.94-1.14s0.17-.37.17-0.37l-0.19-.41L172.7,227a0.54,0.54,0,0,0-.32-0.21,0.62,0.62,0,0,0-.49.16c-3.78,4-10.17,10-12,10.22a1.31,1.31,0,0,1-1-.19,2.25,2.25,0,0,1-.18-1.74,61.88,61.88,0,0,1,2.92-7.59c4.23-10.15,11.28-27.09,11.28-37.12,0-8-3.83-12.65-10.52-12.65-13.51,0-24.39,15.41-29.61,22.81a18.25,18.25,0,0,1-2.65,3.4,0.22,0.22,0,0,1-.19-0.07c-0.23-.32.53-2.09,1.9-5.29,1.46-3.38,3.68-8.51,6.7-16.39C148.69,155.81,153,141.66,153,140.46c0-1.57-1.48-1.78-2.93-1.78H129.36Z" transform="translate(0 0)"/>
    <path id="c1" class="cls-2" d="M99.7,233.13a0.67,0.67,0,0,0-.08-0.6l-2.31-2.46a0.44,0.44,0,0,0-.37-0.23,0.35,0.35,0,0,0-.34.11s-0.27.24-.27,0.24c-4.19,3.87-12.31,10.46-19.58,11a9.91,9.91,0,0,1-7.36-2.35c-2.4-2.1-3.78-5.43-4-9.66-0.49-10.91,8.8-27.44,18.06-37.14,5-5.22,9.55-8.09,12.86-8.09,3.87,0,6.3,2.86,8.64,5.63,2.06,2.43,4,4.71,6.7,4.71a4.46,4.46,0,0,0,3.1-1.44,5.1,5.1,0,0,0,1.43-3.73C116,184.8,112,178,102.28,177.84c-11.14-.19-25,6.57-35.4,17.25C57,205.28,51.86,217.33,52.43,229c0.43,9.82,5.72,20.31,19.38,20.31S97.7,237,99.7,233.13" transform="translate(0 0)"/>
  </g>
  <g id="schwab-2" data-name="schwab">
    <path id="b" class="cls-2" d="M432.14,304.88c5-1.07,14.06-5.35,14.06-14.6,0-5.24-1.89-9-5.75-11.63s-8-3.35-15.67-3.35H396.67v3.17l0.16,0c7,0.58,7.93,1.07,7.93,12.17V326c0,11.07-1,11.59-8.55,12.18l-0.16,0v3.14h25.33c8.11,0,15-1.43,19.44-4,6.18-3.73,9.19-8.77,9.19-15.42C450,312.72,443.32,306.41,432.14,304.88Zm-15.89-20.52c0-2.33,0-4,.76-4.44,0.21-.11,1.25-0.44,4.54-0.44,3,0,12.58.87,12.58,12.11,0,8-5,12.42-14,12.42h-3.87V284.36Zm7.5,52.6c-2.93.09-4.55-.31-5.59-1.31-1.6-1.56-1.91-4.77-1.91-9.82V308h3.26c11.19,0,17.6,5.49,17.6,15.06C437.11,333.31,430.2,337,423.75,337Z" transform="translate(0 0)"/>
    <path id="a2" class="cls-2" d="M391.74,338.18c-5.64-.59-7.09-1.09-10.58-10.24L368.35,293l-6.84-18.45-0.14,0-4.26.44-20.6,52.93c-3.46,9-4.59,9.44-10.74,10.24l-0.16,0v3.15H348.4V338.2l-3-.35c-2.2-.25-3.31-0.67-3.83-1.47a2.61,2.61,0,0,1-.36-1.46,13.73,13.73,0,0,1,.89-4l0.54-1.61c1.32-4,2.81-8.54,4-11.14h18.51c2.14,5.42,4.49,11.44,5.47,14.38a10.86,10.86,0,0,1,.65,3,1.73,1.73,0,0,1-.24,1c-0.36.6-1.27,1-3.09,1.27l-3,.46v3.13H391.9V338.2ZM347.87,313.1l7.78-21.89h0c0.07,0.24,7.6,21.43,7.77,21.89H347.87Z" transform="translate(0 0)"/>
    <path id="w" class="cls-2" d="M338.32,275.29H314.89v3.17l3.67,0.26c2,0.18,3,.55,3.57,1.33a3.16,3.16,0,0,1,.49,1.94,19.23,19.23,0,0,1-.76,4.53c-0.22.94-5.79,22.86-10.13,37.53-0.84-2.06-17.55-47.83-17.55-47.83l0-.12h-4.23S274.85,323.37,274.63,324c-0.69-2.15-11.7-39.14-11.7-39.14a12.6,12.6,0,0,1-.61-3.35,2.7,2.7,0,0,1,.36-1.5c0.54-.81,1.69-1.1,3.48-1.33l3.26-.24v-3.17H241.75v3.17l0.17,0c5.4,0.61,7.06,1.18,9.76,9.77l16.68,53.92h4.76s15.5-46.55,15.69-47.16c0.76,1.93,17.16,47.06,17.16,47.06l0.06,0.1h4.71l0-.12c9.31-31.22,17-53.14,17.06-53.36,3.32-9.23,4.12-9.62,10.49-10.2l0.17,0v-3.17h-0.18Z" transform="translate(0 0)"/>
    <path id="h2" class="cls-2" d="M237,275.3H208.18v3.17l0.17,0c7.38,0.58,8.31,1.07,8.31,12.17V304H186.27V290.65c0-11.09.92-11.58,8.16-12.17l0.18,0V275.3H165.33v3.17l0.15,0c8.55,0.61,9.15,1.42,9.15,12.17V326c0,10.65-.66,11.56-8.76,12.19l-0.15,0v3.14H195V338.2l-0.17,0c-7.59-.59-8.56-1.11-8.56-12.19V309h30.39v17c0,10.75-.58,11.56-9.14,12.19l-0.17,0v3.14H237V338.2l-0.16,0c-7.67-.61-8.5-1.06-8.5-12.19V290.65c0-10.75.56-11.56,8.69-12.17l0.17,0V275.3H237Z" transform="translate(0 0)"/>
    <path id="c2" class="cls-2" d="M99.78,309.43c0,16.62,11.56,33.41,37.37,33.41,6.67,0,15.4-2,19.08-3,1.81-4.08,4.11-12.56,5.2-16.93l0-.18-3.17-.7-0.06.11c-5.21,10.57-10.1,16.33-21.1,16.33-14.27,0-23.85-12.72-23.85-31.67,0-13.22,6.25-28.64,23.85-28.64,10.34,0,16,4.44,18.86,14.81l0,0.14,3.2-.43-0.48-4.5-1.43-11.85h-0.13l-1.79-.43A68.71,68.71,0,0,0,139,273.73c-23.06,0-39.2,14.67-39.2,35.7" transform="translate(0 0)"/>
    <path id="s2" class="cls-2" d="M52.5,293.2c0,9.71,7.7,15,15.25,18.94l3.23,1.6c7.55,3.71,10.62,7.62,10.62,13.44,0,6.64-4.3,11.31-10.44,11.31-9.88,0-15.36-10.26-17.75-16.36L53.35,322,50,323.08l0,0.16c1.06,6.26,2.25,13,3,15.67l0,0.08,1.64,0.6,4.34,1.54a30.14,30.14,0,0,0,10.12,1.71c13.69,0,23.28-8.49,23.28-20.68,0-11.45-8.72-16.65-15.29-19.58L74.6,301.4c-8.37-3.82-11.8-7.53-11.8-12.79S66,278.18,73,278.18c8.21,0,11.33,6.44,13.31,12.76l0,0.17,3.54-.68,0-.18c-0.89-5-1.53-9.45-2-13.6v-0.11l-2.35-.76-2-.59a29.3,29.3,0,0,0-9.29-1.45c-12.74,0-21.65,8-21.65,19.47" transform="translate(0 0)"/>
  </g>
</svg>
