<?xml version="1.0" encoding="utf-8"?>
<!-- Generator: Adobe Illustrator 19.2.1, SVG Export Plug-In . SVG Version: 6.00 Build 0)  -->
<svg version="1.1" id="penn-state" xmlns="http://www.w3.org/2000/svg" xmlns:xlink="http://www.w3.org/1999/xlink" x="0px" y="0px"
	 viewBox="0 0 500 500" style="enable-background:new 0 0 500 500;" xml:space="preserve">
<style type="text/css">
	.st0{fill:#FFFFFF;}
	.st1{fill:#012D62;}
	.st2{fill:#002D62;}
</style>
<g id="nittany-lion">
	<path id="white-bkg" class="st0" d="M438.4,148.5c35.5,32.4,59.2,73.9,49.3,123.2c-13.5,74-92.8,121.2-159.6,135.4
		c-55.9,13.7-121.3,9.4-174.9-5.7c-53.8-17-114.7-52.5-137.1-110c-17.8-53.6,4.6-107.3,46.4-142.8c58-48.7,129.2-67.3,208.4-63.3
		C333.2,90.7,390.5,108.1,438.4,148.5z"/>
	<path id="main_x2B_blue" class="st1" d="M425.9,147.1c29.8,23.9,50.6,54.4,55.9,89.9c6.3,55-28.2,101.6-73.5,129.7
		c-60.9,37-138.2,49.3-213.9,36.2c-48.1-8.3-101.1-40.6-116.2-90.7c-15.2-44.1-4.1-94,28.2-126.5c20.2-22,44.4-38.6,68.8-52.1h-2.7
		c-41.4,9.5-80.1,26.5-110.5,61.4c-28.3,31.6-31.1,85-14.3,122.8c3.4,8.7,8.9,16.4,13.7,24.5c-33.7-30-53.1-72.5-40.3-117.9
		c17.7-66.9,88.8-107.3,149.4-123.2C259.1,79.6,355.9,95.3,425.9,147.1"/>
	<path id="lionhead" class="st0" d="M253.9,133.4c32.3,5.8,62.9,15.8,93,27.4c9.7,4.8,14,16.2,22.4,23.9c24.9,20.2,55.5,30,76,57.2
		c7.3,13.3-0.2,26.9-7.9,37.6c-15.2,13.2-32.9,20.1-49.7,29.3c-16.6,7.8-33.1,15.4-50.1,22c-1.3,0.7,0.3,1.3,1.1,2.1l1,0.9
		c24-8.1,47.8-16.4,71.3-25.7c-2.4,8.2-6.9,16.7-10.6,24.9c-5.4,8.5-9.7,26.2-37.4,22.7l-68.2-10.6c-32.8,8.1-64.4,20.2-100.6,18.1
		c-13-1.2-25.1-7.5-32.7-19.2c-4.8-8.7-7.8-18.5-6.8-29.4c1.7,1.3,3,3.7,4.4,5.5c32.2,36.8,89.3,30,132.6,21.5
		c29.8-9.8,58.7-21.7,86.1-37c10.6-7.4,17.6-18.1,16.4-31.3c-2.3-27-31.9-43-52.9-52.9c-16.9-5.9-34.5-11.1-53.8-10.4l42.5-19.2
		c3-0.8,4.4,2.2,5.5,4.1c1.6,4.2,1.9,9.6-0.8,13.4c7.9,1.9,12.4,3,18.6,4.5c23.9,8.3,48.9,20.1,63.9,43.5c4.1,7.6,5,17.3,2.5,25.8
		l0.6,0.8c12-4.1,16.3-14.4,19.8-26.8c-0.3-14.2-15.1-22.5-24.7-31c-15.6-11.5-32-20.7-48-31.1c-10-6-13.5-19-24.2-23.3
		c-19.3-6.2-42.4-2.5-63-1.6c-35.9,3.9-69.3,13.6-98.4,34c3.2-26.1,9.1-51.5,18.1-75.4c4.2-9.7,9.1-21.9,20.3-25.8
		C237.5,102.5,244.7,122.1,253.9,133.4"/>
	<path id="ear" class="st2" d="M241,129.5c0.8,1.6,2.4,2.7,2.2,4.7c-20.1,8.3-36.8,29.7-47.4,47.7h-0.6c2.9-21.4,8.4-41.6,17.6-60.3
		c2.6-3.5,4.2-8.4,8.8-10.2C231.5,112.2,235.2,123.3,241,129.5"/>
</g>
</svg>
