<svg id="cbre_logo" xmlns="http://www.w3.org/2000/svg" viewBox="0 0 491.35 491.35"><title>cb_richard_ellis</title><circle id="circle" cx="245.67" cy="245.67" r="245.67" style="fill:#006b53"/><g id="cb_richard_ellis"><text transform="translate(24.41 340.99) scale(1.06 1)" style="font-size:46.951873779296875px;fill:#fff;stroke:#006b53;stroke-miterlimit:10;font-family:ChaletBook">CB RICHARD ELLIS</text></g><path id="e" d="M367,187.52H462.3v23.69H393.47v17.68h2.36q28.94,0,57.89,0c1.54,0,2,.39,1.94,1.93-0.08,6.73-.07,13.47,0,20.21,0,1.33-.37,1.71-1.71,1.71q-29.17-.06-58.34,0c-2.12,0-2.13,0-2.13,2.13,0,5.06.07,10.13,0,15.19,0,1.62.52,1.9,2,1.9q32.44-.06,64.87,0h2.07c0,0.64.09,1.13,0.09,1.63,0,7.19,0,14.38,0,21.57,0,1.28-.41,1.61-1.65,1.61q-46.11,0-92.22,0c-1.37,0-1.68-.43-1.68-1.73q0.05-52.87,0-105.74v-1.69Z" transform="translate(-4.33 -7.06)" style="fill:#fff;fill-rule:evenodd"/><path id="r" d="M334.79,240.07a86.26,86.26,0,0,1,7.36,4.72A19.9,19.9,0,0,1,350,260.89c0.11,11.49.08,23,.1,34.48,0,0.29,0,.59-0.07,1-0.54,0-1,.09-1.52.09-7.55,0-15.09,0-22.63,0-1.39,0-1.68-.47-1.67-1.75q0.07-13.22,0-26.43c0-7.86-4.76-13.93-12.12-15.54a15,15,0,0,0-3.16-.32c-9.06,0-18.13,0-27.19,0-1.48,0-1.86.44-1.85,1.89,0.05,13.32,0,26.63,0,40v2.12h-26.3c0-.5-0.08-1-0.08-1.57q0-52.71,0-105.43c0-1.3.3-1.73,1.67-1.72,19.6,0,39.19-.06,58.79.07,7.93,0.05,15.74,1.15,23,4.84,7.9,4,12.15,10.59,13.18,19.31a30.06,30.06,0,0,1-1.41,14.06,23.59,23.59,0,0,1-12.32,13.39C335.84,239.6,335.29,239.84,334.79,240.07Zm-35.47-28.68c-6,0-11.95,0-17.92,0-1.2,0-1.56.34-1.54,1.54,0.06,4.81.07,9.62,0,14.43,0,1.35.37,1.71,1.7,1.7,11.7-.05,23.39,0,35.09,0a8.9,8.9,0,0,0,9.22-8.85c0-5.11-3.83-8.75-9.22-8.76H299.32Z" transform="translate(-4.33 -7.06)" style="fill:#fff;fill-rule:evenodd"/><path id="b" d="M142.23,296.43v-109h1.69c19,0,38-.11,57,0.05,8,0.07,16,1.11,23.37,4.51,7.69,3.52,13,9.1,14.44,17.67a32.4,32.4,0,0,1-2.07,18.59,21,21,0,0,1-11.93,11.28l-1.26.51a1.87,1.87,0,0,0-.26.31l1.39,0.72c7.74,3.88,13.15,9.66,15,18.35A28.53,28.53,0,0,1,224.42,291a47.16,47.16,0,0,1-20,5.13c-7.28.31-14.57,0.27-21.86,0.29-12.86,0-25.72,0-38.58,0h-1.76Zm26.61-25.34c0.74,0,1.19.08,1.65,0.08h34a13.53,13.53,0,0,0,1.66-.14,9.47,9.47,0,0,0,8.17-9.74,9.09,9.09,0,0,0-9.17-8.52c-11.59,0-23.18,0-34.77,0-1.18,0-1.59.33-1.57,1.54,0.06,4.5,0,9,0,13.51C168.84,268.84,168.84,269.89,168.84,271.09Zm0.12-42h36.68a9.15,9.15,0,0,0,9-9.17,8.87,8.87,0,0,0-8.94-8.82H170.61c-0.54,0-1.08,0-1.65.07v17.92Z" transform="translate(-4.33 -7.06)" style="fill:#fff;fill-rule:evenodd"/><path id="c" d="M125.54,270.58v25.81c-0.69,0-1.27.08-1.86,0.08-12.2,0-24.41,0-36.61-.15-10.77-.18-21.55-1-31.56-5.35C38.28,283.52,27.21,270.51,24,252c-4.61-26.76,9-49,30.25-59.4a46.85,46.85,0,0,1,18-4.44c8-.45,16.07-0.56,24.11-0.65,9.11-.1,18.23,0,27.34,0h1.71v24.77h-6.55c-11.14,0-22.27,0-33.41,0-5.16,0-10.34.06-15.35,1.52-10.66,3.12-17.88,9.74-20.35,20.77-3.17,14.13,3.8,31.84,23.59,34.87a116.88,116.88,0,0,0,15.12,1c8.5,0.19,17,.14,25.51.17C117.77,270.59,121.56,270.58,125.54,270.58Z" transform="translate(-4.33 -7.06)" style="fill:#fff;fill-rule:evenodd"/></svg>