<svg id="autozone" xmlns="http://www.w3.org/2000/svg" viewBox="0 0 442.98 54.8">
  <defs>
    <style>
      .cls-1 {
        fill: #ea0d2c;
      }

      .cls-2 {
        fill: #221f20;
      }

      .cls-3 {
        fill: #f5811e;
      }

      .cls-4 {
        fill: #d61a0c;
      }
    </style>
  </defs>
  <title>autozone</title>
  <path id="registered" class="cls-1" d="M474.86,232a5.92,5.92,0,1,1-5.88,5.9A5.87,5.87,0,0,1,474.86,232Zm0,11a5.05,5.05,0,1,0-4.82-5.07A4.86,4.86,0,0,0,474.86,243Zm-2.28-8.51h2.64c1.61,0,2.38.64,2.38,2a1.75,1.75,0,0,1-1.78,1.87l1.93,3.06h-1.13l-1.84-3h-1.12v3h-1.07v-6.91Zm1.07,3.06h1.1c0.93,0,1.79,0,1.79-1.14,0-.92-0.78-1.06-1.5-1.06h-1.4v2.2Z" transform="translate(-37.73 -226.57)"/>
  <g id="shadows">
    <path id="o_n_shadow" class="cls-2" d="M361.81,275.18a8.09,8.09,0,0,0,2.39,2.91c7.55,5.65,17.63,3,23.32-.7l-1.42,2.66h36.79l3.84-7.22v0a11,11,0,0,1-1.42-3.95l-4.52,8.52H384l1.43-2.64c-5.69,3.72-15.79,6.32-23.34.68C362,275.34,361.9,275.27,361.81,275.18Z" transform="translate(-37.73 -226.57)"/>
    <path id="_0_z_shadow" data-name="0_z_shadow" class="cls-2" d="M288.7,275.17a8.2,8.2,0,0,0,2.41,2.9c7.36,5.51,17.11,3.19,22.87-.39l-1.3,2.37h45l3.23-5.74a9.2,9.2,0,0,1-1.78-3.24l-3.56,6.3h-45l1.3-2.37c-5.77,3.57-15.53,5.9-22.88.39A2.32,2.32,0,0,1,288.7,275.17Z" transform="translate(-37.73 -226.57)"/>
    <path id="t_shadow" class="cls-2" d="M264.17,274.61a8.73,8.73,0,0,0,.87,1.24,9.73,9.73,0,0,0,8.48,4.21h9.68l3.69-7a11.06,11.06,0,0,1-1.36-4.12l-4.42,8.47H271.4A9.61,9.61,0,0,1,264.17,274.61Z" transform="translate(-37.73 -226.57)"/>
    <path id="u_shadow" class="cls-2" d="M229.79,273.82h0c2.16,3.91,7.38,6.7,13.32,7.09,9.51,0.64,15.49-1.8,19.59-8a11.45,11.45,0,0,1-1.7-3.29c-4.11,6.7-10.18,9.3-20,8.65A18.43,18.43,0,0,1,229.79,273.82Z" transform="translate(-37.73 -226.57)"/>
    <path id="a_shadow" class="cls-2" d="M37.86,277.36V280H225.79l3.56-6.66a10.52,10.52,0,0,1-1.67-2.22c-0.11-.22-0.21-0.46-0.31-0.67l-3.71,6.89H37.86Z" transform="translate(-37.73 -226.57)"/>
    <path id="e_shadow" class="cls-2" d="M466.95,243a13.49,13.49,0,0,0-1.94-2.37,13.53,13.53,0,0,1,1.82,6.94c0,4.39-1.78,8.5-2.91,11.16l-0.67,1.57-0.89,2.06-0.21.4c-3.7,8.94-14.35,16.23-22.79,15.91-4.73-.19-8.33-1.39-10.73-3.57,0.07,0.14.13,0.26,0.21,0.38,2.19,3.66,6.45,5.62,12.63,5.87,8.44,0.32,19.1-7,22.79-15.91l0.21-.4,0.89-2.06L466,261.4c1.15-2.65,2.92-6.76,2.92-11.15A13.39,13.39,0,0,0,466.95,243Z" transform="translate(-37.73 -226.57)"/>
  </g>
  <g id="stripes">
    <polygon class="cls-3" points="159.29 0.03 132.26 47.81 135.57 47.81 162.61 0.03 159.29 0.03"/>
    <polygon class="cls-3" points="0 0.02 0.09 47.77 41.74 47.81 68.79 0.03 0 0.02"/>
    <polygon class="cls-3" points="69.96 0.02 42.91 47.77 65.79 47.77 92.83 0.03 69.96 0.02"/>
    <polygon class="cls-3" points="95.28 0.03 68.23 47.77 87.09 47.77 114.13 0.03 95.28 0.03"/>
    <polygon class="cls-3" points="116.58 0.03 89.54 47.77 103.78 47.81 130.8 0.03 116.58 0.03"/>
    <polygon class="cls-3" points="134.13 0.03 107.08 47.81 116.14 47.81 143.19 0.03 134.13 0.03"/>
    <polygon class="cls-3" points="147.8 0.03 120.75 47.81 126.36 47.81 153.4 0.03 147.8 0.03"/>
    <polygon class="cls-3" points="169.08 0.03 142.05 47.81 143.63 47.81 170.67 0.03 169.08 0.03"/>
  </g>
  <g id="lettering">
    <path id="e" class="cls-4" d="M460.47,259.32c1-2.91,5.81-11,1.87-17.37-2.24-3.59-6.2-4.77-9.64-5-11.37-.59-18,10.77-21.29,18-2.59,5.7-8.95,20.06,8.05,20.73,7.34,0.29,16.82-6.71,19.84-14.31H446.23c-1.45,1.9-3,5.11-5.19,3.95-1.53-.85-0.28-3.06,1.29-6h18.14Zm-9.65-10.66c0.44,0.87,0,2-1.73,5.57h-4.44C446.35,250.71,449.39,245.72,450.82,248.66Z" transform="translate(-37.73 -226.57)"/>
    <path id="n" class="cls-4" d="M407.35,239.92h13.82l-0.72,1.6c-1.55,3.41,2.45-4.22,9.36-1.6,3.25,1.25,4.54,5.55,3.3,7.89L419,274.39H406.49l11.23-21.62c0.5-1,.6-2.51-0.44-2.77-1.73-.43-2.49,1.41-3.3,2.92l-11.8,21.47H388.93Z" transform="translate(-37.73 -226.57)"/>
    <path id="o2" class="cls-4" d="M388,236.85c-12.49-1.21-20.23,12.56-23.39,18.11-3.32,5.84-4.84,15-.79,18,7.42,5.55,18.35,1.4,22.17-2.54,4.67-4.84,6.54-7.75,9.55-14.25C402.89,240.35,393.25,237.36,388,236.85Zm-10.61,17.81c3.63-6.11,5.52-7.17,7.29-6,1.53,1,.1,3.74-2.59,8.79-4.06,5.92-5.42,7.21-7.34,5.94C373.64,262.58,375,259.61,377.41,254.66Z" transform="translate(-37.73 -226.57)"/>
    <polygon id="z" class="cls-4" points="303.9 0.01 342.03 0.01 335.11 13.2 304.9 36.57 322.44 36.57 316.12 47.82 277.84 47.82 284.76 35.11 316.7 11.35 298.88 11.35 303.9 0.01"/>
    <path id="_0" data-name="0" class="cls-4" d="M314.92,236.85c-12.48-1.22-20.22,12.55-23.39,18.11-3.31,5.82-4.82,15-.78,18,7.4,5.54,18.35,1.39,22.15-2.54,4.68-4.84,6.56-7.76,9.58-14.25C329.8,240.35,320.18,237.36,314.92,236.85Zm-10.6,17.8c3.64-6.11,5.52-7.17,7.31-6,1.51,1,.08,3.74-2.62,8.77-4,5.94-5.41,7.21-7.31,5.94C300.56,262.58,301.86,259.61,304.32,254.65Z" transform="translate(-37.73 -226.57)"/>
    <path id="t" class="cls-4" d="M280,233.34l-15.55,29.22a7.66,7.66,0,0,0,.74,8.76,6.91,6.91,0,0,0,6.16,3.06h7.92l5-9.65h-5.62c-0.46,0-1,.14-1.15-0.29a0.77,0.77,0,0,1,.15-0.74l7.61-14.47H293L298.16,239h-7.32l3-5.69H280Z" transform="translate(-37.73 -226.57)"/>
    <path id="u" class="cls-4" d="M243.93,238.74l-13.67,25.85c-2.78,5.3,3.55,10.19,10.93,10.67,8.76,0.59,14.13-1.41,17.85-8.19l15.54-28.33h-12.8l-13.12,23.66a4.05,4.05,0,0,1-3.44,2.2c-2,0-1.34-2.1-.73-3.22l12.23-22.63h-12.8Z" transform="translate(-37.73 -226.57)"/>
    <path id="a" class="cls-4" d="M228.68,226.6c-5.63.35-16.33,2.17-20.85,10.08l-21.59,37.69h15l5.89-10.54h6.49l-5.35,10.54h13.67l18.56-34.62C243.74,233.67,238.46,226,228.68,226.6Zm-3,15.63L220,252.46h-6.44L220,240.91c0.8-1.42,2.39-1.64,3.74-1.74C225.8,239,227.19,239.42,225.65,242.24Z" transform="translate(-37.73 -226.57)"/>
  </g>
</svg>
