<svg id="red_robin" xmlns="http://www.w3.org/2000/svg" viewBox="0 0 466.81 308.24">
  <defs>
    <style>
      .cls-1 {
        fill: #fd0;
      }

      .cls-2, .cls-4 {
        fill: #fff;
      }

      .cls-3, .cls-6 {
        fill: #231f20;
      }

      .cls-4, .cls-5, .cls-6 {
        fill-rule: evenodd;
      }

      .cls-5 {
        fill: #ed1c24;
      }
    </style>
  </defs>
  <title>red_robin</title>
  <path class="cls-1" d="M207.41,338.66c119.67,62.06,232.55,60.9,252.25,15.65S398.29,222,278.62,160,46,84.29,26.26,129.55s61.46,147,181.14,209.11" transform="translate(-23.32 -102.84)"/>
  <path id="white_surround" class="cls-2" d="M478.66,292.61c-0.39.06-2.39,0.5-2.66,0.5a1.64,1.64,0,0,1-1.65-2c0.14-1.63.32-3.64,0.32-3.64L483,192.8a7.59,7.59,0,0,1,.71-3,2.79,2.79,0,0,1,1.19-1.16l2.25-1.34a3.7,3.7,0,0,0,.93-1.48l0.91-10.38a2.87,2.87,0,0,0-.92-1.81l-11.7-7-1.5-.21-27.36,7.53a2.6,2.6,0,0,0-1.4,1.68l-0.88,10.07c-0.18,2.15-1.57,2.19-3.4,1l-11.67-7.39-1.5-.21-66.09,18.19a2.56,2.56,0,0,0-1.39,1.68l-0.64,7.59c-0.13,1.67-1.49,2.56-2.93,1.71-0.79-.57-2.61-1.88-3.51-2.51-4-2.79-13.17-2.5-20.08-.6l-39.82,11a2.58,2.58,0,0,0-1.4,1.68l-1.08,13a1.77,1.77,0,0,1-2.94,1.46c-2.46-1.7-9.07-5.47-10-5.92-6.46-3.15-14.13-3.42-22.56-1.14C242,229,231.39,238.35,224.09,249.72a1.77,1.77,0,0,1-3.2,0c-1.84-2.73-9.47-8.82-14.19-11.09-1.88-.91-1.51-2.92.5-3.47L222.54,231c32.62-9,46.82-36,49.25-61.19,1.48-15.32-1.91-31.33-15-39.18-3.06-1.82-7.65-4.6-8.75-5.14-7.83-3.9-17.54-4.17-28.64-1.12l-87.87,24.19a2.53,2.53,0,0,0-1.4,1.68l-0.45,5.34a1.77,1.77,0,0,1-2.89,1.48c-2.37-1.43-7.83-4.72-9-5.27-6.7-3.2-14.73-3.4-22.62-1.2l-39.49,11a2.55,2.55,0,0,0-1.39,1.68L53.18,176a2,2,0,0,0,1.75,2.08l1.48,0.11a2,2,0,0,1,1.75,2.08l-6.95,79.11A5.61,5.61,0,0,1,48.37,264l-2.23,1.33a3.65,3.65,0,0,0-.92,1.48l-0.86,9.8a2.88,2.88,0,0,0,.92,1.81l11.7,7,1.5,0.21,38-10.5a2.19,2.19,0,0,0,1.4-1.67L98.41,267c0.15-1.67,1.85-2.42,2.89-1.47,1.89,1.71,5.09,4.53,7.28,6.41L140.31,263c2.51-.7,4.64,1,4.48,2.95l-6.95,79.11a5.61,5.61,0,0,1-2.86,4.61L132.74,351a3.54,3.54,0,0,0-.92,1.47L131,361.87a3.26,3.26,0,0,0,.72,1.67l5.36,4.25a3.4,3.4,0,0,1,.72,1.66L134.34,409a1.78,1.78,0,0,0,2.42,2l340.92-94.55c6.41-1.66,12.07-7.22,12.43-14.06s-4.93-10.92-11.45-9.76" transform="translate(-23.32 -102.84)"/>
  <path id="letter_shadow_ribbon" class="cls-3" d="M265.39,245a8.85,8.85,0,0,0-1.28.26c-10.6,2.85-15,21-16.78,40.68-1.1,12.34-1,23.66,1.94,29.59-9.65,1.24-10.7-15.14-9-33.84C242,262,246.42,243.86,257,241c4-1.07,6.66.56,8.38,4m12.31-11.19c2.58,1.52,6.62,4,6.62,4,9.28,5.73,12.43,19.64,11,35.23-2.09,23.49-14.4,49-38.69,55.54-7.65,2.06-13.78,1.51-18.51-1-0.59-.31-7.85-4.67-7.85-4.67,4.83,2.83,11.2,3.57,19.27,1.4,24.28-6.55,36.59-32,38.69-55.55,1.37-15.32-1.66-29-10.58-34.93m-89.11,23.46a16.47,16.47,0,0,0-6.11.67l-1.6.44-3.32,37.88a20.46,20.46,0,0,1-5,2.19l-2.73.76,4-45.08,1.59-.44c6-1.69,10.56-.47,13.21,3.58m58.85-124.05,5.77,3.41c9.57,5.73,13,18.08,11.61,32.48-2.24,23.17-15.1,47.12-44.14,55.1l-24.09,6.63-7.09-4.25L213.59,220c29-8,41.89-31.94,44.14-55.11,1.33-13.8-1.78-25.72-10.29-31.63m-14.83,9.35a9.91,9.91,0,0,0-3,.37l-1.53.43-5.68,64.72a17.12,17.12,0,0,1-6.28,3.34l-1.51.42L221,139.11l1.53-.42c4.3-1.18,7.65.49,10.11,3.88m163.94,52.66,7.09,4.25-0.4,4.6c-3.42,2-4.91,5.06-5.3,9.6l-5.55,63.16a10.09,10.09,0,0,0,.51,5.06l3.32,2-0.37,4.49-28.72,7.9L360,292l28.72-7.91,0.37-4.48c-3.19-.16-4.22-2.47-3.82-7.06l5.55-63.16c0.4-4.53,1.88-7.57,5.3-9.6ZM132.9,248.38l6.28,3.77-0.36,4.08-27,7.43-7.09-4.26,27-7.43,0.36-4.08c-3.41-.24-6.27-1.5-8-5.35L108,209.94c9.66-8.22,15.18-18.6,16.38-32.32,0.73-8.37-2.07-14.49-7-18l5.51,3.24,0.66,0.39c5.48,3.41,8.7,9.74,7.91,18.63-1.19,13.51-6.56,23.77-15.94,31.94-0.11.09,7.4,15.47,12.34,25.53l1.83,3.7,48-13.2,4.94-17.7,7.09,4.25-4.94,17.7ZM89.6,226.07l-2.93,33.3,4.85,5.93-0.36,4.09-32.45,9-7.09-4.25,32.46-9L84.42,261c-3.3-.24-5.13-2.74-4.73-7.19l2.82-32.06,4.56-1.28Zm89.61-54.88,7.09,4.26-1.93,22-4,1.1-7.09-4.25,4-1.1Zm-6.08,22.5-8.71,2.4-2.67,30.29-7.64,2.11,3.22-36.65,10.55-2.9c2.39-.66,4.24.91,5.25,4.76M102,171.61a16.57,16.57,0,0,0-6.11.67l-1.6.44L91,210.6a20.1,20.1,0,0,1-5,2.19l-2.73.76,4-45.08,1.6-.44c6-1.68,10.55-.46,13.2,3.58m326.37,14.86,8,4.89,17.24,29.56-0.69,7.66Zm46.23-12.73,7.09,4.26-0.4,4.59c-3.42,2-4.91,5.06-5.31,9.59l-6.64,76-11.58,3.19-7.09-4.25,11.58-3.18,6.65-75.95c0.39-4.53,1.88-7.57,5.31-9.6ZM428,227.05l-3.58,41a10.1,10.1,0,0,0,.5,5.07l3.31,2-0.37,4.49-22.49,6.19-7.09-4.26,22.49-6.19,0.37-4.49c-3.18-.16-4.21-2.47-3.81-7.06l4.21-48.13Zm-92.6-1.68a13.37,13.37,0,0,0-3.06.5l-2.71.74-1.93,22.06a18.35,18.35,0,0,1-5,2.25l-2.68.74,2.58-29.3,2.7-.75c5.23-1.43,8.54.33,10.15,3.76m-1.74,36.52a15,15,0,0,0-4.39.6l-2.85.78-2.65,30.14a19.47,19.47,0,0,1-4.9,2.11l-2.82.78L319.33,259l2.85-.78c5.83-1.6,9.46.15,11.49,3.66m-150-120.46,7.09,4.25,2.26,15.15-3.88,1-7.09-4.25,3.89-1Zm-10,10.69c2.8-.77,5.43.46,7.63,4.14l-13.75,3.81-1.9,21.68L158,183.85l2.47-28.1Zm179.85,102.5c5.76,2.87,8.77,9,8.19,17.39-1,14.75-12.06,29.08-29.78,33.95l-33.2,9.14-7.1-4.25,33.21-9.15c17.72-4.87,28.78-19.2,29.79-33.94,0.5-7.38-1.75-13-6.18-16.17a17.13,17.13,0,0,0-9-3c9.23-5.49,15.49-16.16,15-25.34-0.28-4.77-1.49-8.4-4.25-10.46l6.18,3.66c3.42,1.9,4.86,5.78,5.17,11.05,0.5,8.53-4.89,18.34-13,24.09ZM218.69,333.55l7.09,4.25-0.46,5.26,243.34-67.49-3.23,37L142,402.25l3.23-37-7-5.53,32.45-9,0.35-4.09c-3.3-.24-5.13-2.75-4.73-7.2l2.81-32.06,4.56-1.28,2.53,5.57L173.28,345l4.85,5.93-0.47,5.33,20.63-5.72-6.94-5.5,27-7.43,0.36-4.09c-3.41-.23-6.26-1.5-8-5.34L194.6,295.6c9.66-8.22,15.18-18.6,16.38-32.31,0.73-8.38-2.07-14.49-7-18l5.51,3.25,0.66,0.39c5.48,3.4,8.7,9.74,7.92,18.62-1.19,13.51-6.56,23.78-15.94,31.94l16.56,34.08" transform="translate(-23.32 -102.84)"/>
  <g id="gourmet_burgers">
    <path id="s" class="cls-4" d="M442.52,296a4.07,4.07,0,0,1,3.15-3.33,5.59,5.59,0,0,1,4.69.8l1.94-3.24a7,7,0,0,0-6.29-.83,9.15,9.15,0,0,0-6.66,7.79c-0.34,3.89,1.71,4.6,5.43,4.61,3.26,0,3.91.57,3.77,2.1a4.3,4.3,0,0,1-3.41,3.54,5.57,5.57,0,0,1-5.43-1.14l-2.13,3.16a7.6,7.6,0,0,0,7.2,1.26,9.27,9.27,0,0,0,7-8c0.3-3.5-1.54-4.53-5.24-4.55-3.36,0-4.11-.49-4-2.13" transform="translate(-23.32 -102.84)"/>
    <path id="r3" class="cls-4" d="M430.86,300.58a5.25,5.25,0,0,1-4,4.55l-4.62,1.28,0.62-7,4.6-1.28c2.33-.64,3.62.17,3.41,2.47m2.54,13L429.24,307a9.55,9.55,0,0,0,4.84-7.55c0.36-4.09-2-5.92-6.09-4.77l-8,2.22-1.82,20.89,3.15-.87,0.64-7.28,3.95-1.1,3.78,6.06Z" transform="translate(-23.32 -102.84)"/>
    <polygon id="e2" class="cls-4" points="391 195.65 377.68 199.35 375.85 220.24 389.3 216.51 389.58 213.22 379.29 216.08 379.78 210.48 388.79 207.97 389.08 204.69 380.07 207.19 380.55 201.76 390.71 198.94 391 195.65"/>
    <path id="g2" class="cls-4" d="M393.52,321.82l0.77-8.77-7.65,2.12-0.28,3.2,4.59-1.27L390.61,321a10,10,0,0,1-4.48,2.79c-3.67,1-5.83-1.47-5.45-5.8,0.36-4.06,3.16-8.1,6.47-9a4.8,4.8,0,0,1,4.84.84l2.25-3.33c-1.69-1.31-3.52-1.79-6.65-.92-5.41,1.5-9.7,7.52-10.21,13.4-0.53,6.1,2.75,9.74,8.37,8.18a16.39,16.39,0,0,0,7.78-5.33" transform="translate(-23.32 -102.84)"/>
    <path id="r2" class="cls-4" d="M369.6,317.56a5.26,5.26,0,0,1-4,4.55L361,323.39l0.62-7,4.59-1.27c2.34-.65,3.62.16,3.42,2.46m2.54,13L368,324a9.57,9.57,0,0,0,4.84-7.55c0.36-4.09-2-5.92-6.1-4.78l-8,2.22-1.82,20.89,3.15-.87,0.64-7.29,4-1.1,3.78,6.06Z" transform="translate(-23.32 -102.84)"/>
    <path id="u2" class="cls-4" d="M352.6,315.61l-3.16.87-1.05,12c-0.34,3.85-2.22,6.3-5,7.07s-4.35-.83-4-4.71l1-11.87-3.15.87-1.05,12c-0.53,6.06,2.18,8.36,6.85,7.07s8-5.27,8.55-11.51Z" transform="translate(-23.32 -102.84)"/>
    <path id="b" class="cls-4" d="M324,340.75l-5.24,1.45,0.5-5.73,5-1.39c2.49-.69,3.61,0,3.44,1.81s-1.56,3.26-3.71,3.85m-0.15-8.58-4.31,1.19,0.48-5.55,4.54-1.26c2-.56,3.08.11,2.92,1.81-0.17,1.93-1.6,3.24-3.63,3.8m1.41-9-8.06,2.23-1.82,20.9,8.31-2.31c4-1.11,6.81-3.84,7.15-7.6,0.25-2.87-1.09-3.87-3.13-4.11a7.68,7.68,0,0,0,3-5.4c0.29-3.28-1.81-4.71-5.44-3.71" transform="translate(-23.32 -102.84)"/>
    <polygon id="t" class="cls-4" points="273.25 231.63 278.94 230.06 279.25 226.65 264.67 230.69 264.37 234.09 270.06 232.51 268.54 250 271.72 249.12 273.25 231.63"/>
    <polygon id="e" class="cls-4" points="260.28 231.91 246.96 235.6 245.13 256.49 258.58 252.77 258.86 249.47 248.57 252.34 249.06 246.72 258.07 244.23 258.36 240.94 249.36 243.44 249.83 238.01 259.99 235.19 260.28 231.91"/>
    <polygon id="m" class="cls-4" points="236.87 244.17 235.56 259.15 238.72 258.27 240.54 237.38 237.18 238.31 230.85 249.71 226.25 241.34 222.89 242.28 221.06 263.16 224.16 262.31 225.47 247.38 230.24 255.61 230.34 255.58 236.87 244.17"/>
    <path id="r" class="cls-4" d="M236.73,354.41a5.25,5.25,0,0,1-4,4.54l-4.62,1.28,0.62-7,4.59-1.27c2.33-.65,3.61.16,3.41,2.46m2.54,13-4.16-6.56a9.53,9.53,0,0,0,4.85-7.54c0.36-4.09-2-5.92-6.09-4.78l-8,2.22L224,371.65l3.16-.87,0.64-7.28,4-1.1,3.77,6.06Z" transform="translate(-23.32 -102.84)"/>
    <path id="u" class="cls-4" d="M219.73,352.46l-3.16.87-1.05,12c-0.34,3.85-2.23,6.3-5,7.07s-4.35-.83-4-4.7l1-11.88-3.15.87-1.06,12c-0.52,6.06,2.18,8.36,6.85,7.08s8-5.28,8.55-11.51Z" transform="translate(-23.32 -102.84)"/>
    <path id="o" class="cls-4" d="M194.79,369.6c-0.36,4.09-3.14,8.09-6.7,9.07s-5.81-1.68-5.46-5.76,3.13-8.09,6.7-9.08,5.81,1.68,5.46,5.77m3.31-1c0.52-5.91-2.92-9.7-8.43-8.17s-9.85,7.54-10.36,13.45,2.9,9.71,8.42,8.17,9.85-7.54,10.37-13.45" transform="translate(-23.32 -102.84)"/>
    <path id="g" class="cls-4" d="M173.55,382.82l0.77-8.77-7.65,2.12-0.28,3.2,4.59-1.28L170.65,382a10,10,0,0,1-4.48,2.78c-3.67,1-5.83-1.46-5.45-5.79,0.35-4.05,3.16-8.09,6.47-9a4.8,4.8,0,0,1,4.83.84l2.25-3.34c-1.69-1.3-3.53-1.79-6.66-.91-5.42,1.51-9.7,7.53-10.22,13.4-0.53,6.12,2.75,9.75,8.38,8.19a16.53,16.53,0,0,0,7.77-5.33" transform="translate(-23.32 -102.84)"/>
  </g>
  <path id="red_robin-2" data-name="red_robin" class="cls-5" d="M179.21,171.2l-1.93,22-4,1.1c-1-4.28-2.88-6-5.39-5.34l-10.55,2.9-3.22,36.65,14-3.86c2.66-.73,6.18-4.48,10.23-11.26l4.26-1.23-4.94,17.7-48,13.2-1.83-3.7c3.44-2.12,6.47-5.68,6.87-10.2L140.27,166c0.4-4.59-.64-6.9-3.83-7.06l0.39-4.59,46.87-12.9L186,156.59l-3.88,1c-2.34-4.73-5.25-6.38-8.38-5.51l-13.2,3.64L158,183.86l10.52-2.9c2.51-.69,4.83-3.57,6.6-8.55Zm35.37,40.64,1.51-.42c13.51-3.72,20.6-25.94,21.68-42.47,1-15.82-3.69-33.45-15.27-30.26l-1.53.43Zm-19.37.65,5.54-63.15c0.4-4.59-.63-6.9-3.83-7.06l0.38-4.59,24-6.59c28.16-7.75,38.71,10.31,36.45,33.76C255.48,188,242.62,212,213.59,220l-24.08,6.62,0.38-4.49c3.42-2,4.91-5.06,5.31-9.6m195.63-3.07-5.54,63.16c-0.41,4.59.64,6.9,3.82,7.06l-0.37,4.48L360,292l0.39-4.49c3.42-2,4.9-5.06,5.31-9.6l5.54-63.15c0.4-4.59-.63-6.9-3.82-7.06l0.38-4.59,28.72-7.9-0.4,4.59c-3.42,2-4.91,5.07-5.31,9.6M258,232c24.1-6.5,32.36,13.21,30.26,36.76s-14.41,49-38.69,55.55c-24.1,6.49-33.08-13-31-36.57S233.74,238.52,258,232m9.36,42.59c1.71-19.28.51-36.5-10.36-33.57-10.6,2.86-15,21-16.77,40.69-1.74,19.53-.51,36.5,10.35,33.57,10.6-2.85,15-21.19,16.78-40.69M320,251.66l2.69-.74c9.29-2.56,13.64-11.19,13.88-19,0.23-7.26-3.29-12.55-11.29-10.35l-2.7.74Zm19.48-3.08c10.22,0.68,16,7.82,15.19,19.17-1,14.75-12.07,29.07-29.79,33.95l-33.21,9.14,0.4-4.49c3.42-2,4.91-5.06,5.3-9.6l5.55-63.16c0.4-4.59-.64-6.9-3.82-7.06l0.38-4.59,35.27-9.71c14.45-4,19.11,1,19.69,11,0.53,9.18-5.74,19.84-15,25.34m-23.4,47.71,2.82-.78c11.09-3.06,17.19-15.34,16.83-25.11-0.32-8.42-4-14.8-13.53-12.17l-2.85.79Zm-140.68-42.6-1.59.44-4,45.08,2.73-.77c9.38-2.63,17.28-12.67,18.45-25.94,1.35-15.41-4.78-21.85-15.62-18.81m35.6,9.59c-1.2,13.72-6.73,24.09-16.38,32.31l16.14,32.61c1.7,3.83,4.56,5.11,8,5.34l-0.36,4.09-27,7.42-17.68-38.91-4.56,1.27L166.3,339.5c-0.4,4.45,1.43,7,4.74,7.2l-0.36,4.09-32.45,9,0.36-4a12.63,12.63,0,0,0,6.23-10L152,264.22c0.39-4.45-1.43-6.81-4.74-7L147.6,253l36.08-10c15.71-4.36,28.79,3.33,27.29,20.32m210.56-47.67-4.21,48.14c-0.4,4.59.63,6.9,3.81,7.06l-0.37,4.49-22.49,6.19,0.39-4.49c3.42-2,4.93-5.07,5.32-9.6l5.53-63.15c0.4-4.58-.64-6.89-3.83-7l0.39-4.59,22.27-6.13,24.58,42.11,3.35-37.17c0.42-4.59-.76-6.86-4-7l0.41-4.64,21.84-6-0.41,4.59c-3.42,2-4.91,5.07-5.31,9.6l-6.65,75.94-11.58,3.19ZM88.78,168l-1.59.44-4,45.08,2.73-.76c9.38-2.64,17.27-12.67,18.44-26,1.35-15.4-4.78-21.85-15.62-18.8m35.6,9.59c-1.2,13.72-6.73,24.09-16.39,32.32l16.14,32.61c1.69,3.84,4.56,5.11,8,5.34L131.72,252l-27,7.42L87.06,220.5l-4.56,1.28-2.82,32.06c-0.39,4.45,1.44,7,4.74,7.2l-0.36,4.09-32.45,9,0.36-4a12.62,12.62,0,0,0,6.24-10l7.15-81.47c0.39-4.45-1.43-6.81-4.74-7L61,167.33l36.08-10c15.71-4.36,28.79,3.33,27.3,20.31" transform="translate(-23.32 -102.84)"/>
  <path id="registered" class="cls-6" d="M472.61,305.47a7.11,7.11,0,0,1,5.7-6.46,4.11,4.11,0,0,1,5.07,4.56,7.1,7.1,0,0,1-5.66,6.5c-3,.53-5.29-1.41-5.11-4.6m5.05,5.7a8.77,8.77,0,0,0,7.06-7.83c0.19-3.8-2.74-6.06-6.35-5.42a8.78,8.78,0,0,0-7.09,7.78c-0.21,3.85,2.74,6.11,6.39,5.47m-1.08-5.87,1.33-.24,1.85,3,1.31-.23-2-3a2.62,2.62,0,0,0,2.09-2.45c0.08-1.51-.78-2-2.59-1.7l-2.92.52-0.41,7.64,1.17-.21Zm0.05-1,0.12-2.36,1.58-.28c0.81-.15,1.67-0.12,1.62.83-0.06,1.18-.94,1.4-1.93,1.58Z" transform="translate(-23.32 -102.84)"/>
</svg>
