<?xml version="1.0" encoding="utf-8"?>
<!-- Generator: Adobe Illustrator 20.1.0, SVG Export Plug-In . SVG Version: 6.00 Build 0)  -->
<svg version="1.1" id="Layer_1" xmlns="http://www.w3.org/2000/svg" xmlns:xlink="http://www.w3.org/1999/xlink" x="0px" y="0px"
	 viewBox="0 0 500 500" style="enable-background:new 0 0 500 500;" xml:space="preserve">
<style type="text/css">
	.st0{fill:#FFFFFF;}
	.st1{fill:#F48220;}
	.st2{fill:#055979;}
	.st3{fill:#078D96;}
</style>
<g>
	<path class="st0" d="M383.9,167.4c-0.5,0.3-1,1-1.6,1.8c-2.3,3.2-5.1,8.9-5.1,8.9c4.2-6.2,17.4-11.5,25.2-14.1
		c-0.1-0.1-0.2-0.2-0.2-0.4c0,0,0,0,0,0c-0.4-0.9,0-1.8,0.4-2.4C390.1,160.3,383.9,167.4,383.9,167.4"/>
	<path class="st1" d="M396.5,314c-2.7,5.4,4.3,22.2,10.6,27.2c-4.6-1.4-28.9-8.3-32.8,0.7c-4.3,9.9,19.5,46.2,22.2,52.9
		c-10.9-10.9-40.9-35.2-45.2-32.4c-4.3,2.8-3.2,16.4-2.1,23.3c-4.1-5-11.2-13.1-17.3-10.7c-6.1,2.4-5.4,25.7-5.7,35.6
		c-5-11.7-13.3-35.2-20.9-34.3c-7.6,0.9-16.2,16.9-17.8,23c-1.2-6.1-6.1-19.6-13.7-19.6c-7.5,0-25.1,35.6-30.4,47.2
		c0-9,2.1-52.7-2.6-54.8c-4.8-2.2-20.8,7.8-24.2,12.3c1.3-5.7,2.4-25.1-1.9-27.5c-4.3-2.3-16.5-3.1-38.5,17.3
		c3.7-7.8,9.7-16.3,11.1-24.6c9.1-0.5,18.2-1.5,27.3-3.3c19.9,14.4,44.3,22.9,70.7,22.9c66.7,0,120.8-54.1,120.8-120.8
		c0-5.2-0.3-10.4-1-15.4c4.5-4.2,8.8-8.3,12.8-12.1c-0.9,2.2-1.4,4.8-1.3,8.1c0.3,10.2,26.6,12.4,40.7,13.5
		c-15.7,2.1-43,13.5-37.8,19.5c5.2,6.1,20.4,14.4,22.5,15.5c-7.2,0-31,2.5-33.6,9.2c-2.7,6.7,34.4,29.3,47.9,34.6
		C439.4,316.5,399.2,308.6,396.5,314"/>
	<path class="st1" d="M376.1,140.4c-7.9,1.5-16.1,3.8-24.5,7c-19-12.5-41.8-19.8-66.2-19.8c-66.7,0-120.8,54.1-120.8,120.8
		c0,16.1,3.1,31.4,8.8,45.4c-6.9,5.1-13.5,9.1-20.2,12.2c4.9-5.9,9.2-17.2,3.6-20.2c-3.8-2.1-21.5-2.9-21.5-2.9s19.9-13.4,19.5-23.1
		c-0.5-9.7-32.2-14.6-44.8-17.4c11.1-2.3,47-10.4,48.5-17.7c1.6-7.2-11.2-12.3-16.6-14.9c6,0.1,21.3,2.6,23.3-4.8
		c2.4-8.5-35.2-30.8-43.7-33.8c1.9,0.5,37.7,8.8,50.7,6c9.7-2.1-1.6-15.2-3.5-16.8c2.9,1.4,19.3,4.8,24-3
		c4.7-7.8-11.2-38.8-20.1-51.9c7.9,7.9,44.1,33.6,49.5,29.2c5.4-4.4,1.3-18.5-1.6-23.2c5.8,5.5,11.6,12.7,19,12.6
		c3.7-0.1,8.4-12.3,9.1-40c5,15.5,17,36.6,25.8,35.3c8.8-1.3,11.8-14.3,13-19.9c1,6,5.6,21.3,11.5,21.9c7.2,1.1,21-30.9,26-45.4
		c0.8,7.2-4.5,43.9,3.3,47c7.8,3.1,20.6-12.4,27.9-21.1c-4.4,8.4-13.1,28.7-7.9,33.5c5.1,4.9,22.9-0.2,29.9-5.9
		C376,133.8,375.6,137.2,376.1,140.4"/>
	<path class="st0" d="M263.8,281.9c-0.7,3.2-3.1,13.9-7.6,25.1c-16,8.5-41.5,19.3-64.6,24.7c-45.5,10.7-74.6,1.4-79.6-0.2l-0.7-0.2
		c1.1,0.2,12.2,0.7,12.2,0.7c2.4,0.1,33.4,1.3,67.5-11.5C218.9,310.3,246.3,293.7,263.8,281.9"/>
	<path class="st0" d="M495.4,151c-0.1-1.8-0.4-2.9-0.4-2.9l0,0c-2.2-7.8-10.2-12.6-21-12.6c-1.2,0-2.3,0.1-3.5,0.2
		c-8.3,0.8-23.1,5.8-27.4,7.4c-13.8-3.5-26.7-5.2-39.4-5.2c-6.6,0-13.1,0.5-19.7,1.4l0,0l-2.7,0.4c0,0-1.1-3.4,1.7-11.4
		c1.4-4.1,3.4-7.9,3.4-7.9s-30,15.6-33.7,10.6c-3.7-5,13-44.5,13-44.5s-28.9,32.1-34.6,30.7c-2.2-0.6-2.4-12.2-2.5-24.7
		C328.4,75.4,329,56,329,56s-23.8,59.2-29.6,58.8c-5-0.3-12.4-31.8-12.4-31.8s-4.6,27.2-12.8,30.5c-8.3,3.3-29.5-47.5-29.5-47.5
		s-1,50.9-6.9,52.1c-5.9,1.1-24.7-17.9-24.7-17.9s8.8,25.4,5.8,28.7c-1.8,2-19.9-9.2-38.7-22.7c-10.9-7.8-20-14.3-20-14.3
		s10.6,17.6,19,36c5.8,12.7,9.3,24.8,7.8,27.2c-3.7,5.8-31.7-2.5-31.7-2.5s15.9,15.3,14.9,19.2c-0.5,1.9-16.3,0.5-32.3-1.7
		c-17-2.3-34.3-5.5-34.3-5.5s56.7,33,54.9,38.9c-1.4,4.7-36.7,0.8-36.7,0.8s30.7,14,30.5,18.6c-0.1,4.6-60,19.8-60,19.8
		s54.3,11.4,55.3,17.4c1,6.1-21.4,25.5-21.4,25.5s26.1,2.4,27.4,5.8c1.3,3.4-6.3,16.9-13,19.1c-8.2,2.6-15.7,4.3-24.8,4.3
		c-1.3,0-2.6,0-3.8-0.1c0.5-0.6,0.9-1.2,1.3-1.8c2.2-3.3,3.9-6.8,4.8-10.1l0,0l0,0c0.5-1.8,0.7-3.7,0.7-5.4l0-0.1l0-0.1
		c-0.1-2-0.7-3.7-1.9-4.9c-2.2-1.9-4.3-1.7-5.8-1l-5.2,2.5c-0.4,0.2-0.8,0.3-1.3,0.5c-1,0.3-3.1,0.6-7.4,0.6c-4.1,0-9-0.3-13.7-0.6
		c0,0-2.9-0.2-3.4-0.2c-5.6,0-9.4,1.8-11.6,3.4l-1.2-0.6c-11.5-6.1-24.8-8.6-33.2-10.1c-0.7-0.1-1.3-0.2-1.9-0.3
		c-9.2-1.8-14.3-7.3-14.7-7.7c-0.8-0.8-1.8-1.9-3.1-2.7c0,0-2.4-1.5-6-0.4c-2.3,0.8-3.3,2.6-3.3,2.6c-2,3.3-0.1,8.1,2.4,13.6
		c2.8,6.2,11.8,21.7,33.1,31.6c7,3.2,16.2,5.6,27.3,6.9c8.4,1,15.5,1.1,18.3,1.1c2.7,1.3,11.1,5.2,23.5,9.1
		c13.6,4.3,35,9.3,59.4,9.5c0,0,8.7,0.1,13.4-0.2c0.5,2-2.9,8.9-7,17.1c-4.8,9.7-11,21.2-11,21.2s11.2-9.9,21.6-17.2
		c10.5-7.4,22.2-13.3,25-9.9c5.2,6.5-0.4,33.1-0.4,33.1s21.2-18.8,26.1-16.2c2.3,1.2,2.5,15.2,2.5,29.9c0,17.5-0.4,36.1-0.4,36.1
		s29.2-59.1,35.3-57.4c6.1,1.7,12.7,28.6,12.7,28.6s11.1-32.8,17.9-32c2.7-0.3,8.5,10.3,13.7,21.2c5.7,11.9,10.5,23.6,10.5,23.6
		s0.1-12.2,1-24.6c0.8-11.2,2.2-22.2,4.7-22.8c5.2-1.3,20.3,19,20.3,19s-5.3-28.2-1.2-30.6c4.2-2.4,54.5,41.1,54.5,41.1
		s-33-61.1-29-65.8c4-4.7,39.2,4.9,39.2,4.9s-5.3-6.2-9.7-13.2c-4.7-7.3-8.6-15.5-6.8-17.5c1.7-1.8,20,0.1,39,3.8
		c21.9,4.2,36.1,7.3,36.1,7.3s-12.9-7-31.9-18.4c-16.5-9.9-30.9-21-30.3-22.9c1.3-3.9,40.6-7.6,40.6-7.6s-6.6-3.9-13.7-8.2
		c-7.7-4.7-15.9-10.6-15.9-12.7c0-1.9,9.9-6.5,22.9-10.5c15.6-4.8,30-8,30-8s-53.6-4.3-56.9-11.9c-2.3-5.2,1.9-12,5-16.4
		c3.1-4.4,7.5-8.4,7.5-8.4c14.6-13.5,33.3-26,39.2-29.6c0.4-0.3,0.8-0.5,1.2-0.8c0,0,13.7-10.1,15.2-11.3c1.2-1,4.4-4.3,5.1-8.5
		C495.3,154,495.5,152.8,495.4,151 M156.8,285.9c-3.8-2.1-21.5-2.9-21.5-2.9s19.9-13.4,19.5-23.1c-0.5-9.7-32.3-14.6-44.8-17.4
		c11.1-2.3,47-10.4,48.5-17.7c1.5-7.2-11.2-12.3-16.6-14.9c6,0.1,21.3,2.6,23.3-4.8c2.4-8.5-35.2-30.8-43.7-33.8
		c1.9,0.5,37.7,8.8,50.7,6c9.7-2.1-1.6-15.2-3.5-16.8c2.9,1.4,19.3,4.8,24-3c4.7-7.8-11.2-38.8-20.1-51.9
		c7.9,7.9,44.1,33.6,49.5,29.2c5.4-4.4,1.3-18.5-1.6-23.2c5.8,5.5,11.6,12.7,19,12.6c3.7-0.1,8.4-12.3,9.1-40
		c5,15.5,17,36.6,25.8,35.3c8.8-1.3,11.8-14.3,13-19.9c1,6,5.6,21.3,11.5,21.9c7.2,1.1,21-30.9,26-45.4c0.8,7.2-4.5,43.9,3.3,47
		c7.8,3.1,20.6-12.4,27.9-21.1c-4.4,8.4-13.1,28.7-7.9,33.5c5.1,4.9,22.9-0.2,29.9-5.9c-1.9,4.3-2.4,7.6-1.8,10.8
		c-7.9,1.5-16.1,3.8-24.5,7c-19-12.5-41.8-19.8-66.2-19.8c-66.7,0-120.8,54.1-120.8,120.8c0,16.1,3.1,31.4,8.8,45.4
		c-6.9,5.1-13.5,9.1-20.2,12.2C158.1,300.2,162.4,288.9,156.8,285.9 M81.7,298.5c9.2,0.6,19.5,1.3,24.2-0.1c4.1-1.2,4.9-3,6.7-3.3h0
		c0.3,0,2-0.4,2.1,2.3c0,1.4-0.2,2.9-0.6,4.4c-0.7,2.6-2,5.7-4.2,8.9c-1.3,2-3.5,4.4-3.5,4.4c-0.4,0-2,0.1-3.5,0
		c-1.4-0.1-2.9-0.4-3.6-0.5c-11.6-2.2-25.2-10.1-29.4-12.5C71.4,300.7,75,298.1,81.7,298.5 M457.3,242.4
		c-15.7,2.1-43,13.5-37.8,19.5c5.2,6.1,20.4,14.4,22.5,15.5c-7.2,0-31,2.5-33.6,9.2c-2.7,6.7,34.4,29.3,47.9,34.6
		c-16.9-4.8-57.1-12.7-59.8-7.2c-2.7,5.4,4.3,22.2,10.6,27.2c-4.7-1.4-29-8.3-32.8,0.7c-4.3,9.9,19.5,46.1,22.2,52.9
		c-10.9-10.9-40.9-35.2-45.2-32.4c-4.3,2.8-3.2,16.4-2.1,23.3c-4.1-5-11.2-13.1-17.3-10.7c-6.1,2.4-5.4,25.7-5.7,35.6
		c-5-11.7-13.3-35.2-20.9-34.3c-7.6,0.9-16.2,16.9-17.8,23c-1.2-6.1-6.1-19.6-13.7-19.6c-7.5,0-25.1,35.6-30.4,47.2
		c0-9,2.1-52.7-2.6-54.8c-4.8-2.2-20.8,7.8-24.2,12.3c1.3-5.7,2.4-25.1-1.9-27.5c-4.3-2.3-16.5-3.1-38.5,17.3
		c3.7-7.8,9.7-16.3,11.1-24.6c9.1-0.5,18.2-1.5,27.3-3.3c19.9,14.4,44.3,22.9,70.7,22.9c66.7,0,120.8-54.1,120.8-120.8
		c0-5.2-0.3-10.4-1-15.4c4.5-4.2,8.8-8.3,12.8-12.1c-0.9,2.2-1.4,4.8-1.3,8.1C416.9,239.1,443.3,241.3,457.3,242.4 M491.1,149.8
		c-4.3-6.7-45.1,6.8-56.7,11.5c-3.2,1.3-22.6,10-42.4,21.4c-13.4,7.7-27.1,16.5-35.9,25c-17.2,16.1-23.1,34.9-40.2,60.6l-0.4,0.7
		c57.5-43.6,101.9-94.1,147.8-110.2c1.5-0.5,2.8-1,4.2-1.4c0.1,0,0.1,0,0.2-0.1c15.6-5.3,21.9-6.1,22.4-3.2c0.2,1.3-0.8,3.2-1.2,3.9
		c0,0-0.8,1.1-3.3,3.3c-2.5,2.2-6.8,5.5-13.8,9.8c-6.7,4.1-25.5,16.8-40,30.2c-0.5,0.5-39.1,36.9-40.1,37.8
		c-0.1,0.3-5.1,19-17.1,43.2c-8.4,17-20.9,27.6-25.3,30c-0.3,0.1-2.9,1.8-4.6,0.7c-0.9-0.5-1.2-1.7-1.3-2.9c0-2.1,4.6-12.9,6.4-35.7
		c0,0-12.5,9.2-19.6,13.9c-4,2.6-22.1,13.9-33.1,19.9c-9.3,5.1-28.9,14.4-28.9,14.4c-10.2,8.6-18.1,12.6-20.3,12.1
		c-1.3-0.3-1.8-1.9-1.8-1.9c-0.1-0.4-0.2-0.8-0.2-0.8c-37.1,14.5-67.3,13.8-67.4,13.8c-51,2.4-91.1-18.3-91.1-18.3
		c-0.1,0-0.4,0-0.8,0c-4.8,0-28.5-0.4-44-7.6c-17-7.9-26.8-20.2-31-29.5c-3.2-6.9-3.3-9.1-2.3-10c0.3-0.3,0.8-0.5,1.4-0.6
		c2.1-0.6,3.6,2.1,5.5,3.7c1.9,1.6,6.7,5.9,15.5,7.5c8.8,1.7,25.2,4.3,37.6,12.2c10.2,6.1,35.7,26.9,80.8,9.2
		c20.8-8.1,39.4-24.5,67.1-51.8c4.5-4.4,9-9.1,13.5-13.9c-0.7-3.2-2.4-9.1-6.3-11.5c-6.1-3.8-15.2-3.9-21.3-3.5
		c-6.1,0.4-9.3,1.3-11.3-0.4c-0.7-0.6-0.9-1.5-0.7-2.4c0.2-0.9,0.6-1.7,1.1-2.5c0.1-0.2,0.3-0.4,0.4-0.6c1-1.4,1.7-2.2,2.7-3.1
		c3.2-2.9,14.6-10.6,38.9-13.8c15.5-2,20.9-1.7,28.3-3.1c3.3-0.6,6.8-1.4,11.3-2.9c6.6-6,13.8-12,21.5-17.9
		c7.7-5.9,16.1-11.6,25.3-17.2c49.1-29.9,89.1-28.9,122.8-20.1c0,0,18.5-6.6,27.7-7.6C480,138.9,489.3,142,491.1,149.8"/>
	<g>
		<path class="st2" d="M428.9,154.1c-3.7,0.9-12.8,1.2-16.7,1.2c-3.9,0-9.4-0.6-17.8,3.1c-6.1,2.6-10.1,7.9-12,10.7
			c0.6-0.8,1.1-1.5,1.6-1.8c0,0,6.2-7.1,18.7-6.2c-0.4,0.6-0.8,1.5-0.4,2.4c0,0,0,0,0,0c0.1,0.1,0.1,0.2,0.2,0.4c0,0,0,0.1,0.1,0.1
			c0,0,4.5-1.4,7.7-2.4c6.9-1.7,11.2-2.9,15.9-4.8c6.4-2.6,8.4-3.8,8.2-4.3C434.1,152.1,432.6,153.2,428.9,154.1"/>
		<path class="st3" d="M470.9,139.8c-9.2,0.9-27.7,7.6-27.7,7.6c-33.7-8.8-73.7-9.7-122.8,20.1c-9.2,5.6-17.5,11.3-25.3,17.2
			c-7.7,5.9-14.9,11.9-21.5,17.9c-2.9,2.6-6.6,5.9-9.7,9.1c-15.9,5.3-23,0.3-44.9,3.2c-17.3,2.3-24,8.2-27.9,12.8
			c-0.5,1.3-0.4,2.5,0.5,3.2c2.1,1.7,5.3,0.8,11.3,0.4c6.1-0.4,15.2-0.3,21.3,3.5c3.9,2.4,5.7,8.3,6.3,11.5
			c-4.5,4.8-9,9.5-13.5,13.9c-27.7,27.4-46.3,43.7-67.1,51.8c-45.2,17.7-70.6-3.1-80.8-9.2l0,0c-12.4-7.9-28.8-10.6-37.6-12.2
			c-8.8-1.7-13.6-5.9-15.5-7.5c-1.9-1.6-3.3-4.3-5.5-3.7c-0.5,0.2-1,0.3-1.4,0.7c0.3-0.3,0.8-0.5,1.4-0.6
			c0.3,3.8,13.1,35.7,53.9,41.5c11.6,1.7,15.3,1.1,17.5,1c-6.8-6-12.5-14.4-13-14.9c1.6,1.4,3.1,2.6,4.7,3.9
			c12.2,13,26,18.3,37.6,20.3c0.8,0.2,12.2,0.7,12.2,0.7c13.4-0.3,31.3-4.2,47.9-9c48.9-14.2,96-56.5,96-56.5s-2.6,11.4-3.6,15.5
			c-0.7,3.2-3.1,13.9-7.6,25.1c0,0-1.4,3.4-3.3,7.5c-2.9,6.1-7,13.8-7,17c0,0.2,0,0.3,0,0.4c0,0,0,0.4,0.2,0.8
			c3.7-1.9,8.7-5.3,14.3-10.1c8.9-7.4,20.2-18.7,33.2-34.8c29.3-36.2,34-60.9,54.6-80.2c8.7-8.2,31.7-20.8,43.4-24.9
			c0.1-0.1,0.2-0.1,0.3-0.1c0,0,0,0,0,0l0,0c19.8-11.3,39.3-20.1,42.4-21.4c11.6-4.7,52.4-18.2,56.7-11.5h0
			C489.3,142,480,138.9,470.9,139.8 M426.2,156.9c-4.7,1.9-9,3.1-15.9,4.8c-3.2,1-7.7,2.4-7.7,2.4c0,0,0-0.1-0.1-0.1
			c-7.8,2.7-21,7.9-25.2,14.1c0.2-0.3,2.8-5.8,5.1-8.9c1.8-2.8,5.9-8.1,12-10.7c8.4-3.7,14-3.1,17.8-3.1s13-0.3,16.7-1.2
			c3.7-0.9,5.3-2,5.5-1.5C434.6,153.1,432.5,154.2,426.2,156.9"/>
		<path class="st2" d="M267.4,266.4c0,0-2.6,11.4-3.6,15.5c-17.5,11.8-44.9,28.4-72.8,38.6c-34.1,12.8-65.1,11.6-67.5,11.5
			c13.4-0.3,31.3-4.2,47.9-9C220.3,308.8,267.4,266.4,267.4,266.4"/>
		<path class="st3" d="M383.3,246.5c-3.5,10.7-8.8,25.3-15.3,37.7c-7.8,14.7-18,24.9-23.4,28.8c-0.9-0.5-1.2-1.7-1.3-2.9
			c0-2.1,4.6-12.9,6.4-35.7c5.8-4.4,11-8.5,15.6-12.4C371.3,257.2,377.3,251.9,383.3,246.5"/>
		<path class="st2" d="M114.7,297.4c0,1.4-0.2,2.9-0.6,4.4c-0.7,2.6-2,5.7-4.2,8.9c-1.3,2-3.5,4.4-3.5,4.4c-0.4,0-2,0.1-3.5,0
			c-1.4-0.1-2.9-0.4-3.6-0.5v0c-0.4-0.5,18.3-13.2,13.3-19.4C112.9,295.1,114.6,294.7,114.7,297.4"/>
		<path class="st2" d="M488.7,157.9C488.7,157.9,488.7,157.9,488.7,157.9c0,0-0.8,1.1-3.3,3.3c-2.5,2.2-6.8,5.5-13.8,9.8
			c-6.7,4.1-25.5,16.8-40,30.2c-0.5,0.5-39.1,36.9-40.1,37.8c-0.1,0.3-5.1,19-17.1,43.2c-8.4,17-20.9,27.6-25.3,30
			c-0.3,0.1-2.9,1.8-4.6,0.7c5.4-3.9,15.6-14,23.4-28.7c6.5-12.4,11.8-27,15.3-37.7c-6,5.4-12,10.7-17.9,15.6
			c-4.6,3.8-9.8,8-15.6,12.4c0,0-12.5,9.2-19.6,13.9c0,0,0,0,0,0c-4,2.6-22.1,13.9-33.1,19.9c-9.3,5.1-28.9,14.4-28.9,14.4h0
			c-10.2,8.6-18.1,12.6-20.3,12.1c-1.3-0.3-1.8-1.9-1.8-1.9c3.7-1.9,8.7-5.3,14.3-10.1c8.9-7.4,20.2-18.7,33.2-34.8
			c29.3-36.2,34-60.9,54.6-80.2c8.7-8.2,31.7-20.8,43.4-24.9c0.1-0.1,0.2-0.1,0.3-0.1c-13.4,7.7-27.1,16.5-35.9,25
			c-17.2,16.1-23.1,34.9-40.2,60.6l-0.4,0.7c57.5-43.6,101.9-94.1,147.8-110.2c1.5-0.5,2.8-1,4.2-1.4c0.1,0,0.1,0,0.2-0.1
			c15.6-5.3,21.9-6.1,22.4-3.2C490.1,155.3,489.1,157.2,488.7,157.9"/>
		<path class="st3" d="M99.4,314.6L99.4,314.6c-11.6-2.2-25.2-10.1-29.4-12.5c1.4-1.4,5-3.9,11.7-3.5c9.2,0.6,19.5,1.3,24.2-0.1
			c4.1-1.2,4.9-3,6.7-3.3h0C117.7,301.3,99,314,99.4,314.6"/>
		<path class="st2" d="M219.1,215c21.9-2.9,29,2.1,44.9-3.2c3.1-3.2,6.8-6.5,9.7-9.1c-4.5,1.4-8,2.3-11.3,2.9
			c-7.5,1.5-12.9,1.1-28.3,3.1c-24.3,3.2-35.7,10.8-38.9,13.8c-1,0.9-1.7,1.7-2.7,3.1c-0.7,1-1.2,2.1-1.3,2.3
			C195,223.2,201.7,217.2,219.1,215"/>
		<path class="st2" d="M252.9,314.5c-2.9,6.1-7,13.8-7,17c0,0.2,0,0.3,0,0.4c-37.1,14.5-67.3,13.8-67.4,13.8
			c-51,2.4-91.1-18.3-91.1-18.3s0,0,0,0c-0.1,0-0.4,0-0.8,0c-4.8,0-28.5-0.4-44-7.6c-17-7.9-26.8-20.3-31-29.5
			c-3.2-6.9-3.3-9.1-2.3-10c0.1-0.1,0.2-0.2,0.3-0.2c0,0,0,0,0,0c0.3-0.2,0.7-0.3,1.1-0.4c0.3,3.8,13.1,35.7,53.9,41.5
			c11.6,1.7,15.3,1.1,17.5,1c-6.8-6-12.5-14.4-13-14.9c1.6,1.4,3.1,2.6,4.7,3.9c12.2,13,26,18.3,37.6,20.3c0,0,0,0,0.1,0h0l0,0
			l0.7,0.2c5,1.6,34.1,10.9,79.6,0.2c23.1-5.4,48.6-16.3,64.6-24.7C256.2,307,254.9,310.3,252.9,314.5"/>
	</g>
</g>
</svg>
