<?xml version="1.0" encoding="utf-8"?>
<!-- Generator: Adobe Illustrator 20.1.0, SVG Export Plug-In . SVG Version: 6.00 Build 0)  -->
<svg version="1.1" id="Printer_1_" xmlns="http://www.w3.org/2000/svg" xmlns:xlink="http://www.w3.org/1999/xlink" x="0px" y="0px"
	 viewBox="0 0 512 512" style="enable-background:new 0 0 512 512;" xml:space="preserve">
<style type="text/css">
	.st0{opacity:0.1;clip-path:url(#XMLID_3_);enable-background:new    ;}
	.st1{fill:#D1D0CF;}
	.st2{opacity:0.8;enable-background:new    ;}
	.st3{fill:#3F3F3F;}
	.st4{opacity:0.1;enable-background:new    ;}
	.st5{opacity:0.2;enable-background:new    ;}
	.st6{fill:#494949;}
	.st7{fill:#353535;}
	.st8{fill:#212121;}
	.st9{fill:#FFFCE5;}
	.st10{fill:#E6E6E6;}
	.st11{fill:#E9536A;}
	.st12{fill:#4D4D4D;}
	.st13{fill:#F6AC3B;}
	.st14{fill:#EF845C;}
	.st15{fill:#D8E480;}
	.st16{fill:#AACD06;}
</style>
<g>
	<defs>
		<circle id="XMLID_1_" cx="250.9" cy="263.8" r="229.8"/>
	</defs>
	<use xlink:href="#XMLID_1_"  style="overflow:visible;fill:#0273B9;"/>
	<clipPath id="XMLID_3_">
		<use xlink:href="#XMLID_1_"  style="overflow:visible;"/>
	</clipPath>
	<path id="Shadow" class="st0" d="M516.4,346.5L324.6,154.6L114.9,270.2l164.6,253.9c22.5-2.6,44.3-7.7,64.9-15.1l96.7-57.5
		C473.4,422.7,499.3,386.9,516.4,346.5z"/>
</g>
<g id="Printer">
	<rect x="165.9" y="154.6" class="st1" width="158.7" height="56.7"/>
	<rect x="165.9" y="154.6" class="st2" width="16" height="56.7"/>
	<rect x="308.6" y="154.6" class="st2" width="16" height="56.7"/>
	<path class="st1" d="M377.1,266.4c0,4.7-6.2,8.5-13.8,8.5H127.2c-7.6,0-13.8-3.8-13.8-8.5v-44.3c3-10.9,13.6-16.2,21.2-16.2H358
		c9.5,0,19.1,11.4,19.1,16.1V266.4z"/>
	<path class="st3" d="M334.9,261.2c0,7.6-6.2,13.8-13.8,13.8H169.4c-7.6,0-13.8-6.2-13.8-13.8v-17.6c0-7.6,6.2-13.8,13.8-13.8h151.8
		c7.6,0,13.8,6.2,13.8,13.8V261.2z"/>
	<path class="st4" d="M369.4,219.8H121c-2.8,0-5.4,0.9-7.6,2.4v44.3c0,4.7,6.2,8.5,13.8,8.5h236.1c7.6,0,13.8-3.8,13.8-8.5v-44.2
		C374.9,220.7,372.3,219.8,369.4,219.8z"/>
	<path class="st5" d="M358,206H217.1l13.8,13.8h138.5c2.8,0,5.5,0.9,7.7,2.5v-0.2C377.1,217.4,367.5,206,358,206z"/>
	<rect x="176" y="233.2" class="st6" width="138.5" height="41.8"/>
	<rect x="176" y="239.5" class="st7" width="138.5" height="35.5"/>
	<rect x="176" y="249.8" class="st8" width="138.5" height="25.1"/>
	<rect x="176" y="262.9" class="st9" width="138.5" height="46.2"/>
	<g>
		<path class="st10" d="M180.7,267.7h33.7c0.6,0,1.1,0.5,1.1,1.1v19.7c0,0.6-0.5,1.1-1.1,1.1h-33.7c-0.6,0-1.1-0.5-1.1-1.1v-19.7
			C179.7,268.2,180.1,267.7,180.7,267.7L180.7,267.7z"/>
		<path class="st11" d="M180,267.7h35.1c0.2,0,0.4,0.2,0.4,0.4v2.2h-35.9v-2.2C179.7,267.9,179.8,267.7,180,267.7L180,267.7z"/>
		<path d="M192.8,267.7h9.5v1.3c0,0.2-0.2,0.4-0.4,0.4h-8.8c-0.2,0-0.4-0.2-0.4-0.4L192.8,267.7L192.8,267.7z"/>
		<path class="st12" d="M193.8,266.2h1.5c0-0.1,0-0.1,0-0.2l0-2.9v-0.1l0-0.1l0.5-0.5c0.1-0.1,0.3-0.2,0.5-0.2c0.1,0,0.2,0,0.3,0.1
			c0.1-0.1,0.3-0.1,0.4-0.1c0.2,0,0.4,0.1,0.5,0.2l2.5,2.4c0.1,0.1,0.2,0.3,0.2,0.5c0,0.2-0.1,0.4-0.2,0.5l-0.3,0.3h1.5
			c0.2,0,0.4,0.2,0.4,0.4v2.2c0,0.2-0.2,0.4-0.4,0.4h-7.6c-0.2,0-0.4-0.2-0.4-0.4v-2.2C193.4,266.4,193.6,266.2,193.8,266.2
			L193.8,266.2z M195.6,266.2h0.4c0-0.1,0-0.1,0-0.2l0-2.9V263l0,0l0.4-0.4c0,0-0.1,0-0.1,0c-0.1,0-0.2,0-0.3,0.1l-0.5,0.5l0,2.8
			C195.6,266.1,195.6,266.1,195.6,266.2L195.6,266.2z M197,262.6l2.4,2.3c0.1,0.1,0.2,0.3,0.2,0.5c0,0.2-0.1,0.4-0.2,0.5l-0.2,0.2
			h0.2l0.5-0.5c0.1-0.1,0.1-0.2,0.1-0.3c0-0.1,0-0.2-0.1-0.3l-2.5-2.4c-0.1-0.1-0.2-0.1-0.3-0.1C197.1,262.5,197,262.5,197,262.6
			L197,262.6z M198.7,266.2l0.5-0.5c0.1-0.1,0.1-0.2,0.1-0.3c0-0.1,0-0.2-0.1-0.3l-2.4-2.4l-0.4,0.4l0,2.8c0,0.1,0,0.2,0.1,0.2
			L198.7,266.2L198.7,266.2z"/>
		<path class="st13" d="M186.4,277.7c1.7,0,3.1-1.4,3.1-3.1c0-1.7-1.4-3.1-3.1-3.1c-1.7,0-3.1,1.4-3.1,3.1
			C183.3,276.3,184.7,277.7,186.4,277.7L186.4,277.7z"/>
		<path class="st14" d="M188.9,277.3c1.8,0.9,3,2.6,3,4.6c0,2.9-2.4,5.2-5.4,5.2c-3,0-5.4-2.3-5.4-5.2c0-2,1.2-3.8,3-4.6
			c0.4,1,1.4,1.8,2.5,1.8C187.5,279,188.4,278.3,188.9,277.3L188.9,277.3z"/>
		<rect x="196.1" y="271.7" class="st15" width="17.2" height="2.1"/>
		<rect x="196.1" y="274.8" class="st15" width="17.2" height="2.2"/>
		<rect x="196.1" y="277.9" class="st15" width="17.2" height="2.1"/>
		<rect x="196.1" y="281" class="st16" width="17.2" height="2.2"/>
		<rect x="196.1" y="284.1" class="st16" width="17.2" height="2.2"/>
	</g>
	<g>
		<path class="st10" d="M227,268.8h33.7c0.6,0,1.1,0.5,1.1,1.1v19.7c0,0.6-0.5,1.1-1.1,1.1H227c-0.6,0-1.1-0.5-1.1-1.1v-19.7
			C225.9,269.3,226.4,268.8,227,268.8L227,268.8z"/>
		<path class="st11" d="M226.3,268.8h35.1c0.2,0,0.4,0.2,0.4,0.4v2.2h-35.9v-2.2C225.9,269,226.1,268.8,226.3,268.8L226.3,268.8z"/>
		<path d="M239.1,268.8h9.5v1.3c0,0.2-0.2,0.4-0.4,0.4h-8.8c-0.2,0-0.4-0.2-0.4-0.4L239.1,268.8L239.1,268.8z"/>
		<path class="st12" d="M240.1,267.3h1.5c0-0.1,0-0.1,0-0.2l0-2.9v-0.1l0-0.1l0.5-0.5c0.1-0.1,0.3-0.2,0.5-0.2c0.1,0,0.2,0,0.3,0.1
			c0.1-0.1,0.3-0.1,0.4-0.1c0.2,0,0.4,0.1,0.5,0.2l2.5,2.4c0.1,0.1,0.2,0.3,0.2,0.5c0,0.2-0.1,0.4-0.2,0.5l-0.3,0.3h1.5
			c0.2,0,0.4,0.2,0.4,0.4v2.2c0,0.2-0.2,0.4-0.4,0.4h-7.6c-0.2,0-0.4-0.2-0.4-0.4v-2.2C239.7,267.4,239.9,267.3,240.1,267.3
			L240.1,267.3z M241.9,267.3h0.4c0-0.1,0-0.1,0-0.2l0-2.9v-0.1l0,0l0.4-0.4c0,0-0.1,0-0.1,0c-0.1,0-0.2,0-0.3,0.1l-0.5,0.5l0,2.8
			C241.9,267.2,241.9,267.2,241.9,267.3L241.9,267.3z M243.2,263.6l2.4,2.3c0.1,0.1,0.2,0.3,0.2,0.5c0,0.2-0.1,0.4-0.2,0.5l-0.2,0.2
			h0.2l0.5-0.5c0.1-0.1,0.1-0.2,0.1-0.3c0-0.1,0-0.2-0.1-0.3l-2.5-2.4c-0.1-0.1-0.2-0.1-0.3-0.1
			C243.3,263.6,243.3,263.6,243.2,263.6L243.2,263.6z M244.9,267.3l0.5-0.5c0.1-0.1,0.1-0.2,0.1-0.3c0-0.1,0-0.2-0.1-0.3l-2.4-2.4
			l-0.4,0.4l0,2.8c0,0.1,0,0.2,0.1,0.2L244.9,267.3L244.9,267.3z"/>
		<path class="st13" d="M232.7,278.8c1.7,0,3.1-1.4,3.1-3.1c0-1.7-1.4-3.1-3.1-3.1c-1.7,0-3.1,1.4-3.1,3.1
			C229.6,277.3,231,278.8,232.7,278.8L232.7,278.8z"/>
		<path class="st14" d="M235.2,278.4c1.8,0.9,3,2.6,3,4.6c0,2.9-2.4,5.2-5.4,5.2c-3,0-5.4-2.3-5.4-5.2c0-2,1.2-3.8,3-4.6
			c0.4,1,1.4,1.8,2.5,1.8C233.8,280.1,234.7,279.4,235.2,278.4L235.2,278.4z"/>
		<rect x="242.3" y="272.8" class="st15" width="17.2" height="2.1"/>
		<rect x="242.3" y="275.9" class="st15" width="17.2" height="2.2"/>
		<rect x="242.3" y="279" class="st15" width="17.2" height="2.1"/>
		<rect x="242.3" y="282.1" class="st16" width="17.2" height="2.2"/>
		<rect x="242.3" y="285.1" class="st16" width="17.2" height="2.2"/>
	</g>
	<g>
		<path class="st10" d="M273.6,269.9h33.7c0.6,0,1.1,0.5,1.1,1.1v19.7c0,0.6-0.5,1.1-1.1,1.1h-33.7c-0.6,0-1.1-0.5-1.1-1.1v-19.7
			C272.5,270.4,273,269.9,273.6,269.9L273.6,269.9z"/>
		<path class="st11" d="M272.9,269.9H308c0.2,0,0.4,0.2,0.4,0.4v2.2h-35.9v-2.2C272.5,270,272.7,269.9,272.9,269.9L272.9,269.9z"/>
		<path d="M285.7,269.9h9.5v1.3c0,0.2-0.2,0.4-0.4,0.4H286c-0.2,0-0.4-0.2-0.4-0.4L285.7,269.9L285.7,269.9z"/>
		<path class="st12" d="M286.7,268.3h1.5c0-0.1,0-0.1,0-0.2l0-2.9v-0.1l0-0.1l0.5-0.5c0.1-0.1,0.3-0.2,0.5-0.2c0.1,0,0.2,0,0.3,0.1
			c0.1-0.1,0.3-0.1,0.4-0.1c0.2,0,0.4,0.1,0.5,0.2l2.5,2.4c0.1,0.1,0.2,0.3,0.2,0.5c0,0.2-0.1,0.4-0.2,0.5l-0.3,0.3h1.5
			c0.2,0,0.4,0.2,0.4,0.4v2.2c0,0.2-0.2,0.4-0.4,0.4h-7.6c-0.2,0-0.4-0.2-0.4-0.4v-2.2C286.2,268.5,286.4,268.3,286.7,268.3
			L286.7,268.3z M288.5,268.3h0.4c0-0.1,0-0.1,0-0.2l0-2.9v-0.1l0,0l0.4-0.4c0,0-0.1,0-0.1,0c-0.1,0-0.2,0-0.3,0.1l-0.5,0.5l0,2.8
			C288.4,268.2,288.4,268.3,288.5,268.3L288.5,268.3z M289.8,264.7l2.4,2.3c0.1,0.1,0.2,0.3,0.2,0.5c0,0.2-0.1,0.4-0.2,0.5l-0.2,0.2
			h0.2l0.5-0.5c0.1-0.1,0.1-0.2,0.1-0.3c0-0.1,0-0.2-0.1-0.3l-2.5-2.4c-0.1-0.1-0.2-0.1-0.3-0.1
			C289.9,264.7,289.9,264.7,289.8,264.7L289.8,264.7z M291.5,268.3l0.5-0.5c0.1-0.1,0.1-0.2,0.1-0.3c0-0.1,0-0.2-0.1-0.3l-2.4-2.4
			l-0.4,0.4l0,2.8c0,0.1,0,0.2,0.1,0.2L291.5,268.3L291.5,268.3z"/>
		<path class="st13" d="M279.3,279.8c1.7,0,3.1-1.4,3.1-3.1c0-1.7-1.4-3.1-3.1-3.1c-1.7,0-3.1,1.4-3.1,3.1
			C276.1,278.4,277.5,279.8,279.3,279.8L279.3,279.8z"/>
		<path class="st14" d="M281.7,279.4c1.8,0.9,3,2.6,3,4.6c0,2.9-2.4,5.2-5.4,5.2c-3,0-5.4-2.3-5.4-5.2c0-2,1.2-3.8,3-4.6
			c0.4,1,1.4,1.8,2.5,1.8C280.4,281.2,281.3,280.5,281.7,279.4L281.7,279.4z"/>
		<rect x="288.9" y="273.9" class="st15" width="17.2" height="2.1"/>
		<rect x="288.9" y="277" class="st15" width="17.2" height="2.2"/>
		<rect x="288.9" y="280" class="st15" width="17.2" height="2.1"/>
		<rect x="288.9" y="283.1" class="st16" width="17.2" height="2.2"/>
		<rect x="288.9" y="286.2" class="st16" width="17.2" height="2.2"/>
	</g>
</g>
</svg>
