<?xml version="1.0" encoding="utf-8"?>
<!-- Generator: Adobe Illustrator 19.2.1, SVG Export Plug-In . SVG Version: 6.00 Build 0)  -->
<svg version="1.1" xmlns="http://www.w3.org/2000/svg" xmlns:xlink="http://www.w3.org/1999/xlink" x="0px" y="0px"
	 viewBox="0 0 960 600" style="enable-background:new 0 0 960 600;" xml:space="preserve">
<style type="text/css">
	.st0{display:none;}
	.st1{display:inline;fill:#0273B9;stroke:#FFFFFF;}
	.st2{fill:#83A3B3;stroke:#71ABC5;}
	.st3{fill:#A7BDC9;stroke:#71ABC5;}
	.st4{display:none;fill:#0273B9;stroke:#FFFFFF;}
	.st5{fill:#F0F8F1;}
</style>
<metadata><?xpacket begin="﻿" id="W5M0MpCehiHzreSzNTczkc9d"?>
<x:xmpmeta xmlns:x="adobe:ns:meta/" x:xmptk="Adobe XMP Core 5.6-c111 79.158366, 2015/09/25-01:12:00        ">
   <rdf:RDF xmlns:rdf="http://www.w3.org/1999/02/22-rdf-syntax-ns#">
      <rdf:Description rdf:about=""
            xmlns:xmp="http://ns.adobe.com/xap/1.0/"
            xmlns:xmpGImg="http://ns.adobe.com/xap/1.0/g/img/"
            xmlns:xmpTPg="http://ns.adobe.com/xap/1.0/t/pg/"
            xmlns:stDim="http://ns.adobe.com/xap/1.0/sType/Dimensions#"
            xmlns:xmpG="http://ns.adobe.com/xap/1.0/g/"
            xmlns:dc="http://purl.org/dc/elements/1.1/"
            xmlns:xmpMM="http://ns.adobe.com/xap/1.0/mm/"
            xmlns:stEvt="http://ns.adobe.com/xap/1.0/sType/ResourceEvent#">
         <xmp:CreatorTool>Adobe Illustrator CC 2015 (Macintosh)</xmp:CreatorTool>
         <xmp:CreateDate>2016-08-01T14:12:03-05:00</xmp:CreateDate>
         <xmp:MetadataDate>2016-08-01T14:12:03-05:00</xmp:MetadataDate>
         <xmp:ModifyDate>2016-08-01T14:12:03-05:00</xmp:ModifyDate>
         <xmp:Thumbnails>
            <rdf:Alt>
               <rdf:li rdf:parseType="Resource">
                  <xmpGImg:width>256</xmpGImg:width>
                  <xmpGImg:height>164</xmpGImg:height>
                  <xmpGImg:format>JPEG</xmpGImg:format>
                  <xmpGImg:image>/9j/4AAQSkZJRgABAgEASABIAAD/7QAsUGhvdG9zaG9wIDMuMAA4QklNA+0AAAAAABAASAAAAAEA&#xA;AQBIAAAAAQAB/+4ADkFkb2JlAGTAAAAAAf/bAIQABgQEBAUEBgUFBgkGBQYJCwgGBggLDAoKCwoK&#xA;DBAMDAwMDAwQDA4PEA8ODBMTFBQTExwbGxscHx8fHx8fHx8fHwEHBwcNDA0YEBAYGhURFRofHx8f&#xA;Hx8fHx8fHx8fHx8fHx8fHx8fHx8fHx8fHx8fHx8fHx8fHx8fHx8fHx8fHx8f/8AAEQgApAEAAwER&#xA;AAIRAQMRAf/EAaIAAAAHAQEBAQEAAAAAAAAAAAQFAwIGAQAHCAkKCwEAAgIDAQEBAQEAAAAAAAAA&#xA;AQACAwQFBgcICQoLEAACAQMDAgQCBgcDBAIGAnMBAgMRBAAFIRIxQVEGE2EicYEUMpGhBxWxQiPB&#xA;UtHhMxZi8CRygvElQzRTkqKyY3PCNUQnk6OzNhdUZHTD0uIIJoMJChgZhJRFRqS0VtNVKBry4/PE&#xA;1OT0ZXWFlaW1xdXl9WZ2hpamtsbW5vY3R1dnd4eXp7fH1+f3OEhYaHiImKi4yNjo+Ck5SVlpeYmZ&#xA;qbnJ2en5KjpKWmp6ipqqusra6voRAAICAQIDBQUEBQYECAMDbQEAAhEDBCESMUEFURNhIgZxgZEy&#xA;obHwFMHR4SNCFVJicvEzJDRDghaSUyWiY7LCB3PSNeJEgxdUkwgJChgZJjZFGidkdFU38qOzwygp&#xA;0+PzhJSktMTU5PRldYWVpbXF1eX1RlZmdoaWprbG1ub2R1dnd4eXp7fH1+f3OEhYaHiImKi4yNjo&#xA;+DlJWWl5iZmpucnZ6fkqOkpaanqKmqq6ytrq+v/aAAwDAQACEQMRAD8A9U4q7FWHXfmm/wBM1y8h&#xA;k43VtzHGOtOI4igVqGnuKdcuEAQ45yEEseuNUunvGuIZ5lkO3qlqSEcjSpWg2WgyyhTVZtH2nnDW&#xA;7egaRbhB2lWp/wCCXifvyJgGYyEJxa+frc0F1auni0TBt/k3H9eQOJmM3eEztvNugz8R9Z9JmNOM&#xA;istPmxHH8cicZZjLEppDc2868oJUlUdSjBh+GRIpmCCqYEuxV2KuxV2KuxV2KuxV2KuxV2KuxV2K&#xA;uxV2KuxV2KuxV2KuxV2KuxV2KuxV2KuxV5h5gnSbXL1kpQSldhT7Hwk7E9xmTEbBw5G5FAYUOxVo&#xA;7CuFWhUFR7f0xQuVirBlJDDoRscCUdBr2swU9O8l26Bm5gfQ/IYDEJEiOqYQeddcjPxtHMP8tKf8&#xA;QKZHwwzGWSNh8/3A/vrNH90cpT6CGweEEjMUZF5908/31tMh7cOLj6alMHhMvGHciE876GxAYyx1&#xA;7slaf8CWweGU+MESvmvy+3S7H0o4/WuDwynxYqg8y6ERX64n01H8MHAU+JFV/Tmi/wDLfbf8jU/r&#xA;jwHuTxx73fpvRf8Alvtv+R0f9ceA9y8ce9dpWpQ6jZJdRAqrFgVNKgqSN6ffjKNFYysWi8iydirs&#xA;VdirsVdirsVdirsVdirsVdirzTU9d1G6upitxIsBlLxRhiOIGy0p0oB9+ZIiA4hkSzny5fte6Pby&#xA;u3KVR6cpPXkm1T7kUOUTFFyMZsJlkWaE1a/Ww06e6IqY1+AeLHZR95wxFljKVC3lbFieRNWrUk98&#xA;ynDaq3cfd/bTFbbqfA4rbRYGg7nsdsaUlsjw6jFS4GorikN4FdirsVdirVRyA70P8MKOreBLsVdi&#xA;rS/ZGEoHJEW9/e2wIt7iSEN1CMVB+44KTaZad5s1e0dBJKbmAGrRyGrEf65BbImALMZCE+0rzFr+&#xA;oS8odPR7fkfjLNGoHYczyBI70X6MgYRHVnHJI9E5hvXhdY9RlhjuLhqQW0ZJIHQCpoW9zQDIEdzY&#xA;JVzR2RZuxV2KuxV2KuxV2KuxVQvb23s7aS4nYKiKTQkAsQCeK16k02wgWiUgBbycZlOGE20LXrvT&#xA;JuKKZoJDRretPiYj4l/yqCmRlG2UZmL0nMZy2G+edUDyR6dGaiM+pPT+Yj4V+41y7HHq0ZZdGJ5Y&#xA;0uxV2KrTuQPpwoLZrQ069sUlpSdwRSm2JQF2BLsVdirsVa/aPywo6t4EuxV2KtDv7HCUBvAlSnu4&#xA;bbg8qNIhNCqkKT7VNafdhAtiTSd6d+ZLQ2P1cWscUiH9x9r0kjFKLSvJj13JGROKyzjnoUhrfzDf&#xA;i/bUI51kuJBR2IVvh/lpTYfLCY7UgT3u08ufPV/MqpZ2qxSH7RJMpPsoouVjGG05ir6drfmeOVI7&#xA;uzlmjZjJI/pH1OBHRQOK7YmMVE5BlVvMZoElMbxFxX05AA49iATlRDeDapgS7FXYqg9W1W10y1Nx&#xA;PU1PFI1+0zeAyUY2xlKgxa78/XbAC1tUj8WkYv18AOGWDEGk5ikOqaxqOpFBdS8whJRAFUDb2GWR&#xA;ADVORKGhilnkWOFDJI5oiKKkk4qGd+WfK66ePrd38d632VrVYhuKCmxJHU/dlWSd7BvxY63PNkOV&#xA;NzyS4m9a4mkL82Z2LNWtSTXMqnCu1mKuxV2KrVG7HxOFAXYErSDWo+nChr4uQFaDfp/bijddRux+&#xA;/FLvi9j+GK7uqfD7sVaABJJHt9GKu4L8vkSP1Y2tN0GNrTqY2tNLsSO/XEqF2BKT6uzfWQpNV4gg&#xA;eGTHJqlzQOSQrW8F2xWWGNyAwUOoNOR6Dl03wWtPVfK89lbaHLqMluiRW/JVuVUepLSnMhjSoMnw&#xA;JvvTMeYN05mIgRti2p6pcX9+b1v3chChQlRxCjahO9csAoU0k2bLMvJmpXF5YTJcSNLLDJs7Gp4s&#xA;NhXr1BynIKcjFKwyDK212KuxVgPnaaZtY9JpVeKNFMUan7HL7QYfzEivypl+MbONlPqY8RUe/bLG&#xA;oreQ5Ak0NDQfrw0i2X/l7Gpe+kI3Hpqh3BAPIn9WU5ejfg6syylyEv13WLfSNMmvZmAKgiFD+3IQ&#xA;eK/TTJRjZYTnwi3hgdgagkHxBzNderx6jdp/uzl/rb4KTZRcesH/AHbH9K/0ODhSJomPUrR/2+J8&#xA;GFMHCy4wqxTwuBwcMT2qK4CFBCrgZOxVaPtH5DCjquwJdirsVWr38K7YSgLsCXYq7FVo/vD8h+s4&#xA;eiOrZIHU0xSh7q1guFNSA9PhfvhBYEApJLG0UjI1CV7jpk2DKbDzhZW3lltLa2drj0pYlI4+k3qk&#xA;nk29aivhlBxEyttGQcNMmWKWD8ubVAGBZEZgRvxeTnv4DfI/xt3+TDFMsakxstburNrYW7NFFC3O&#xA;VFY0lJPxFh7rtTAYgpEiHpiOjoroeSMAysOhB3BzGcxZcsy20rK6xsqMVkf7KkDq3sMIQeTzaTzF&#xA;rkjMzXsgLbHieIp7AAUzI4Q4vGe9LpZSzNJK9WY1Z2NSSe5JyTElarqwqpDDxBrigFpAQo2APQnC&#xA;UBOvL8WvKRLZxubac+lIw9QR/FtyPAhvh/mHTIyrqzhxdGf6e0jWMBlLmQIA7SLwdmAoWK9uVK0z&#xA;GlzcqPJjf5l2kEvl0zu3GW2lRoRX7Rc8StPka/RlmE7tWoHpeT5lOG7FXHrigOxS7FUw0lpHkcF2&#xA;KKteNTStcjJMeaa0Pj9+RbGlrvXxxKhdgS7FXYqtG9TU9T4YSxDZB8T+GKaaAfuR939uK7t/F7H8&#xA;MV3WKqsWJXevce2ElAC4IgNQoB+WC00F2BKVapaSeoZxTgQK+3zycS1SCBhgmnlWKBGllbZUQFmP&#xA;yA3yRoIFvX9JuVfyShugAYbVoZozsQY1KBWB3DbDMSQ9TmxPo3YHlzQidLt4LrUIIJpFjiZx6rFg&#xA;tFHUVJG56DE8lFE09JnvtO0+yV3lVYI0AjFalgooAv8AMcx6JLlmQAebebvOepXswt4R6Fj9oR9W&#xA;f/XPenWn68yIYwHEy5SdmMPqF2/WQj/V2/VllNVlQZ3b7TE/M1woTLRw3GQhqCo2yMmUWY+XdF1C&#xA;7h5pbRJFKSPr0wD8QCQfSjJpX3I+nK5yAbscCWfQx+nEkfIvwULyalTQUqaUzGLlALsUse8+aW+o&#xA;eXJxG1Htj9ZA7MIweQP+xJyzEaLVmjcXjmZbguHXFBT/AFbydfabpa38s0b7IZYlrVPU2Xfod+uV&#xA;Rygmm2WMgWkGWtbsVTbR0Iikf+ZqD6B/bkZM4JhkGa0KR0P0HDaKcOft8sVFt1bw2+eKtVPgfwxW&#xA;3AgADf7jioLYIO4xS3gV2KrTsw99sKOq7Al2KoHU7oxx+kFqZAfi8BkohhI9GvLGtxaPfvPLEZY5&#xA;YmibjQOvIg1WvywZIcQWEqKbXXmGbV5rll5RWbupFuTUEqoXkwG1fhwRhwhlxcRKGZF4kUA22yQK&#xA;CBTeRZN4qlmsptG/ht9/+1k4tc+aWqjt9lS3yFckxTLRYXg1K1uZ4DJbxyK7qabgHwORnyplHnbJ&#xA;fMeoWGoXkEttXnEriSQjjyDMOKnx4b5VjiQGycgSzfyrBNBoNqkooxDOF8Fdyw/XXKp83JxD0prk&#xA;Gx2KrZYo5onilUPHIpV0O4KsKEHFSHgNwhjuJUK8CjspQ12oaU3zOdYp4VR95r2r3lnHZ3Fy0ltH&#xA;TjGQB02HIgAtT3OREADYSZkiigMkh2Kp5pqBbNP8qpP0nIS5tkOSKyLJ2KtL9ke+/wB+EoDeBLsV&#xA;diqxGNPsnqaHbxyRYgrqnwP4YE26vtittNUjYGvY7YhBcACK7/ecUhugxtaSTUuf1tg1aCnGvhkw&#xA;1nmhcKE00ZvhlXwIP31yMmUExIqKZBscvQV3PfCUBzMFBJ6DEKTS0orfbAbuAR0xta71G6lit42c&#xA;7k7KvvTCN2JoIC11Cb1h6rgIftE+2SIYgp8jzLLDcQqTHcgJEKbSCQmIp3rUhlyLK3rAAAAAoBsA&#xA;Mw3YOxV2KuxV4t51ju4/M9+LmhZpOUZUAD0yKx9Kfs0B98zIfSHX5b4jaSZNg4H7sVdiruuKsjiX&#xA;hEi/yqB9wysto5L8CWmNAThCC4AAADoMUt4FdirsVaX7I+WEoHJvAl2KuxVaBQkduuFAXYEqF1bR&#xA;zx0fYjcMOoyQLGQSA0rt0ybWmejK/wC8b9g0HzIyMmUEx5V2U/SMizt3BQKDbttja00VC7707716&#xA;fPDaCFxIAqTQDucDJA6Vdaa3mCGXUwGsQ55AjkuykKSB1HKlcMwa2a4kXZV/OE+izX8TaWEoIgLh&#xA;ol4xl69gAPpyOIGt2WQi9kw8hS28t5a2k1yIfRuvrEULA/vXMRUAECgIIH2j323w5OScXOnq2Yjn&#xA;OxV2KuxV59+a1jbBLK+B43LEwsP5kA5A/wCxP68vwno4uoHIpNrPky30/QRqCXRkmVYmkBA4N6pp&#xA;RO+1a/LDHLcqa5Y6FsVy9qR+hXFjBq1rNfp6lrG9ZVpy2oaEjvQ70yMwSNkxIB3TvzPLpmp31rNp&#xA;iholqJ5lT0w3xVA4kKfhG1aZDGCBuzyESOyjxFKdvmcNppuh8T+GK0tblTqKbAj54hBb+LwH3/2Y&#xA;p3dU/wAp/DFbdyp1B+6v6saW3chjS20jqVG46CorhIQCKXch44KTYcGB6EHFNt4Fa74UdW8CXYql&#xA;d9p1XU26btXkOg2yYLXII21tkhgVCKnqSRgJSI7KvJQOoAwUysN8gemNLahdC4eMrBRSerHbb2wh&#xA;BsoT9H3UqAPPUdKbkbZK2AiV66NCPtSMflQf1wcTLgV00+0TpGD/AK2/68HEnhCLtQ6TxfVhScMD&#xA;CEHxcgdqfTgTyeo6Vdy3djHNKFEtXSTgeS8o3KMVPgSuY0hRcyErFovIsnYq7FUt17SY9StFja1g&#xA;unVqqtwzIACKGjoGYHJwlRYZI2HnfnHytqmmxLNG7vpCBKRNMZFhdtiqhuJIr0IXL4TB97i5MZj7&#xA;mJBGIJAJA6mnTLGlrCqdaUV+qCn8xqPDISZw5IzIs3Yq0eo+f8MKC3gS7FXYqlWpXM8dyFjcqOIN&#xA;B475McmuXNQGp3v+/K/Qv9MNBHEU2tJHktkdzVmFSfpyBZxOyqVU9QD88bTTXpx/yj7hjZWg1xAb&#xA;4fhBG9KY2it11D44pp1D44rS1ak/FXb+OFAb4r3FfnvgtNBdgS0SAKnphVbUN1NR2Ub1w8mN2uqf&#xA;5T+GBNtcvY++NLbdcCWWeW/LGoLJFfTSCCJx8UNAXeM70NR8PKgr3plcpjk2wxnmzJEREVEUKigB&#xA;VAoABsAAMpchvFXYq7FXYqhrmB5bu3JDGBBIZKNRSSAFV0OzDcn2IGEHZiRZSO8mtLO+nsmsJktb&#xA;mXlJcJEWgYzKAxkft8R3rkuEne2qRANUwTzppei2E9sum0RnD+tErlwoDAI1WLEchXvl+IyPNx8o&#xA;A5KVnAkMChRuwBY+JpkiViNlfIsnYq1+19GFHVvAl2KuxVI9TbleP7UH4ZYOTUeaFwoT3T5ENrGo&#xA;YFgu61365CQZwOyJyLN2KtdxhR1bwJaxVpQdzuK70wliA1x+Ibnoe+Nppsqp6ivzxtacqruKdD/b&#xA;iSgBzCu42I6YpIbBr7HwxW28CWTeVvLNnf2z3l0WK8yiRKaA8QCST9OQnOmzHjB3ZxlDkuxV2Kux&#xA;V2KuxV2KuxVQv7G2v7SS1uV5QyAcgDQ1BqCPkRhBo2iUQRRYRrHk+9s+UtrW6txuQB+8Ue6jr9H3&#xA;ZdGYLjyxkMfybW7FWh9o+GFCNg0fUJ7RrqKLlCoJrUAkL1IBNTTIGQBpkIlB5JDsVSHUDW8l+f6h&#xA;lgaih8KG0d0bkjFWHcbYqiodTuY6Bj6i13r1+/AQEgkKn6Yn404Ly/m3/Vg4QvEVSDVuTgSp1NAy&#xA;+58MeFPEmPNfA/cf6ZGmduLAjoeo7Ed/fGkErsDJb+0Pkf4YULsCVvRvn/DCjquwJaIr8x0woITX&#xA;y7ocmrXJBJjtot5pKV3/AJB7nIzlTOEeJ6Pb28NvCkMKCOKMURB0AzHJtygKX4EuxV2KuxV2KuxV&#xA;2KuxV2KuxVJ9X8r6dqNZAPq9yd/WQdT/AJS7cv15OMyGuWMFj8vkLUgT6VxC47Fuan7grZZ4ga/C&#xA;Khb+StXN0iXChYGb95KjqaL4gHf8MJyBiMRtkaaBe22myWlndryCuIWkjqVL70qGHf2yqwTZbfDN&#xA;bF5VdXmpWdzJbXUQjmiPF42G4P0HMoAFwySFo1l+8Q+/+zHhXjKAkcvIznqxJ+/JMVuKuxV2KuxV&#xA;tCA6k9AQTipZIpDAEbg7jK25pulO56YhBXYEtHqMKG8CVrUoK+I/XhCCuwJaJA64q9F8nQLFoULK&#xA;amZnkb58uP6lGUZObk4h6U6yDY7FXYq7FXYq7FXYq7FXYq7FXYq7FXYq7FXYqxbzz5Xs9R06e/Ve&#xA;F/axF1kGwdU+Iq/jsDTLcc6NNObGCL6vJMynCdirsVdirsVdirsVT6wr9Tiqa7fxyEubZHkrMCSC&#xA;DQjx3wJId8Y3JG3gP9vFd03h8q69OInFqVjcj42ZBxB7lS3L8Mjxhn4cj0Qg8mea7qUmFfRgJ2eZ&#xA;gnf+WnOnzGHxIhh4UilGsaB5h0YrJeIwiJ+GdW5x18Ce3yOTjMHkwlAx5q0Gk+abjS31KKBjarU1&#xA;ooYqBUsqndl9xgMo3SRGRF9Ena+unUq78lIoQQMkwt6P+WOtJNp0mlSN++tSZIQe8Tmpp/qsfxzH&#xA;zR3ty9PPambZS5DsVdirsVdirsVdirsVdirsVdirsVdirsVdiq2SNJI2jkUMjgq6noQRQg4qXmHm&#xA;D8t9Rtrj1NKBuraRtoyQHjqdgan4h7/fmTHKDzcOeAjkyiy/Lvy6mnQw3Vv6t0EHrTh3UlyNyKEC&#xA;nhtlZym20YI1uwTzh5WfQr1fTbnZXFTbuftCnVG9xXr3y6E+IOPkx8Jb8m32i2l3cNqQUM8dLeWR&#xA;Oaq3fYBuvywZQSNlxkDmletzWM2q3UtgnC0dyYlpxFO5A7AnemTgDW7GRF7ILJMWReWvJOpa2PXr&#xA;9Wsv9/uCeW9DwXatMrnkAbIYjJm6/l7YpbJHHdyiVQBzIUpt/kAA/wDDZT4rkDBtzQknkO8SGRxc&#xA;LJIqkxoopyYUou/iK98l4gYnCUpt/LmtzSqi2rxEkgSSAooKiu58PA5LiDDgJ6M58vLcQ2ItJrV7&#xA;b6t8Cl3EgfuWDAL+rKZ87cjHYFUmeQbFssUUq8JUWRa14sARUexxtBFrgKbDpil5r+ZOgaXYi3vb&#xA;SIQS3EjLMin4W2ryC9vozJxSJ5uJngBuGHabqN3p17HeWj8JojUHsR3BHcHLSLaASDYe56ddreWF&#xA;vdKVImjV6oarVhUgfI5hSFF2MTYtEYEuxV2KuxV2KuxV2KuxV2KuxV2KuxV2KuxV2KuxV2KpL5u0&#xA;D9N6Q9shC3EZ9W3Y/wAwBHGv+UDTJ45UWvLDiDxeSKSKRo5FKSISrIwoQR2IzLcB0cbyOEQVY1oP&#xA;kK4Vek+XPy2s4Y47nV/387AMLUVEaVFaNTdiPu+eY88vc5WPB1LN44440WONQkaABUUAAAdAAMoc&#xA;ldirsVdirsVdirsVdirHfPOhy6po5Nuge6tSZI0P7QKkMo9+49xlmKVFpzQ4gwzW/MWg3XlqOxto&#xA;ityFiCR8OIiZD8bcu/IbZZCEhK2iUwY0mn5W6xK/1jSJPiSNTcQH+Ucgrr9JYHBmj1Z6eXR6DlDl&#xA;OxV2KuxV2KuxV2KuxV2KuxV2KuxV2KuxV2KuxV2KuxV5X+ZmlzQa2L+hMN4i/FQ0DRqE4k/IA5lY&#xA;jtThZ41K+9KfJf1b/E+nm4FUEnwj/LoRH9z0OTn9Ja8f1B7VmE7F2KuxV2KuxV2KuxV2KuxV2KsC&#xA;84eQDPI9/pCIh4vJcW9Wq715VQbipqdthl+PL0Li5cPUJJ+WasfMlRXaF+QAJ226nsK0yeX6WvB9&#xA;T1jMVznYq7FXYq7FXYq7FXYq7FXYq7FXYq7FXYq7FXYq7FXYqtkijlQxyoHjb7SMAQfmDipCS/4L&#xA;8urfQXsNt6E9vIJV9Jiqlgaiq9KV8Ms8Q01eDG7TzK212KuxV2KuxV2KuxV2KuxV2KqF59e9ICz9&#xA;L1SQC03Liq9zxXdj7VHzwiuqJX0Q+m6PbWLvKir6r/DVEWNFSteCIuyjx7nucMpEsYwAR+RZuxV2&#xA;KuxV2KuxV2KuxV2KuxV2KuxV2KuxV2KuxV2KuxV2KuxV2KuxV2KuxV2KuxV2KuxV2KuxV2KuxV2K&#xA;uxV2KuxV/9k=</xmpGImg:image>
               </rdf:li>
            </rdf:Alt>
         </xmp:Thumbnails>
         <xmpTPg:MaxPageSize rdf:parseType="Resource">
            <stDim:w>960.000000</stDim:w>
            <stDim:h>600.000000</stDim:h>
            <stDim:unit>Pixels</stDim:unit>
         </xmpTPg:MaxPageSize>
         <xmpTPg:NPages>1</xmpTPg:NPages>
         <xmpTPg:HasVisibleTransparency>False</xmpTPg:HasVisibleTransparency>
         <xmpTPg:HasVisibleOverprint>False</xmpTPg:HasVisibleOverprint>
         <xmpTPg:PlateNames>
            <rdf:Seq>
               <rdf:li>Cyan</rdf:li>
               <rdf:li>Magenta</rdf:li>
               <rdf:li>Yellow</rdf:li>
               <rdf:li>Black</rdf:li>
            </rdf:Seq>
         </xmpTPg:PlateNames>
         <xmpTPg:SwatchGroups>
            <rdf:Seq>
               <rdf:li rdf:parseType="Resource">
                  <xmpG:groupName>Default Swatch Group</xmpG:groupName>
                  <xmpG:groupType>0</xmpG:groupType>
                  <xmpG:Colorants>
                     <rdf:Seq>
                        <rdf:li rdf:parseType="Resource">
                           <xmpG:swatchName>ANPA 701-2 AdPro</xmpG:swatchName>
                           <xmpG:type>SPOT</xmpG:type>
                           <xmpG:tint>100.000000</xmpG:tint>
                           <xmpG:mode>LAB</xmpG:mode>
                           <xmpG:L>92.941177</xmpG:L>
                           <xmpG:A>0</xmpG:A>
                           <xmpG:B>-10</xmpG:B>
                        </rdf:li>
                        <rdf:li rdf:parseType="Resource">
                           <xmpG:swatchName>ANPA 701-0 AdPro</xmpG:swatchName>
                           <xmpG:type>SPOT</xmpG:type>
                           <xmpG:tint>100.000000</xmpG:tint>
                           <xmpG:mode>LAB</xmpG:mode>
                           <xmpG:L>46.666668</xmpG:L>
                           <xmpG:A>8</xmpG:A>
                           <xmpG:B>-60</xmpG:B>
                        </rdf:li>
                        <rdf:li rdf:parseType="Resource">
                           <xmpG:swatchName>FOCOLTONE 2184</xmpG:swatchName>
                           <xmpG:type>PROCESS</xmpG:type>
                           <xmpG:tint>100.000000</xmpG:tint>
                           <xmpG:mode>RGB</xmpG:mode>
                           <xmpG:red>130</xmpG:red>
                           <xmpG:green>163</xmpG:green>
                           <xmpG:blue>179</xmpG:blue>
                        </rdf:li>
                        <rdf:li rdf:parseType="Resource">
                           <xmpG:swatchName>FOCOLTONE 2198</xmpG:swatchName>
                           <xmpG:type>PROCESS</xmpG:type>
                           <xmpG:tint>100.000000</xmpG:tint>
                           <xmpG:mode>RGB</xmpG:mode>
                           <xmpG:red>89</xmpG:red>
                           <xmpG:green>151</xmpG:green>
                           <xmpG:blue>177</xmpG:blue>
                        </rdf:li>
                        <rdf:li rdf:parseType="Resource">
                           <xmpG:swatchName>FOCOLTONE 2199</xmpG:swatchName>
                           <xmpG:type>PROCESS</xmpG:type>
                           <xmpG:tint>100.000000</xmpG:tint>
                           <xmpG:mode>RGB</xmpG:mode>
                           <xmpG:red>126</xmpG:red>
                           <xmpG:green>211</xmpG:green>
                           <xmpG:blue>246</xmpG:blue>
                        </rdf:li>
                        <rdf:li rdf:parseType="Resource">
                           <xmpG:swatchName>FOCOLTONE 1010</xmpG:swatchName>
                           <xmpG:type>PROCESS</xmpG:type>
                           <xmpG:tint>100.000000</xmpG:tint>
                           <xmpG:mode>RGB</xmpG:mode>
                           <xmpG:red>166</xmpG:red>
                           <xmpG:green>188</xmpG:green>
                           <xmpG:blue>200</xmpG:blue>
                        </rdf:li>
                        <rdf:li rdf:parseType="Resource">
                           <xmpG:swatchName>FOCOLTONE 2212</xmpG:swatchName>
                           <xmpG:type>PROCESS</xmpG:type>
                           <xmpG:tint>100.000000</xmpG:tint>
                           <xmpG:mode>RGB</xmpG:mode>
                           <xmpG:red>63</xmpG:red>
                           <xmpG:green>145</xmpG:green>
                           <xmpG:blue>176</xmpG:blue>
                        </rdf:li>
                        <rdf:li rdf:parseType="Resource">
                           <xmpG:swatchName>FOCOLTONE 1072</xmpG:swatchName>
                           <xmpG:type>PROCESS</xmpG:type>
                           <xmpG:tint>100.000000</xmpG:tint>
                           <xmpG:mode>RGB</xmpG:mode>
                           <xmpG:red>255</xmpG:red>
                           <xmpG:green>241</xmpG:green>
                           <xmpG:blue>0</xmpG:blue>
                        </rdf:li>
                        <rdf:li rdf:parseType="Resource">
                           <xmpG:swatchName>FOCOLTONE 1070</xmpG:swatchName>
                           <xmpG:type>PROCESS</xmpG:type>
                           <xmpG:tint>100.000000</xmpG:tint>
                           <xmpG:mode>RGB</xmpG:mode>
                           <xmpG:red>0</xmpG:red>
                           <xmpG:green>173</xmpG:green>
                           <xmpG:blue>239</xmpG:blue>
                        </rdf:li>
                        <rdf:li rdf:parseType="Resource">
                           <xmpG:swatchName>FOCOLTONE 2260</xmpG:swatchName>
                           <xmpG:type>PROCESS</xmpG:type>
                           <xmpG:tint>100.000000</xmpG:tint>
                           <xmpG:mode>RGB</xmpG:mode>
                           <xmpG:red>0</xmpG:red>
                           <xmpG:green>75</xmpG:green>
                           <xmpG:blue>132</xmpG:blue>
                        </rdf:li>
                        <rdf:li rdf:parseType="Resource">
                           <xmpG:swatchName>FOCOLTONE 3429</xmpG:swatchName>
                           <xmpG:type>PROCESS</xmpG:type>
                           <xmpG:tint>100.000000</xmpG:tint>
                           <xmpG:mode>RGB</xmpG:mode>
                           <xmpG:red>2</xmpG:red>
                           <xmpG:green>77</xmpG:green>
                           <xmpG:blue>161</xmpG:blue>
                        </rdf:li>
                        <rdf:li rdf:parseType="Resource">
                           <xmpG:swatchName>FOCOLTONE 3423</xmpG:swatchName>
                           <xmpG:type>PROCESS</xmpG:type>
                           <xmpG:tint>100.000000</xmpG:tint>
                           <xmpG:mode>RGB</xmpG:mode>
                           <xmpG:red>0</xmpG:red>
                           <xmpG:green>84</xmpG:green>
                           <xmpG:blue>166</xmpG:blue>
                        </rdf:li>
                        <rdf:li rdf:parseType="Resource">
                           <xmpG:swatchName>FOCOLTONE 2274</xmpG:swatchName>
                           <xmpG:type>PROCESS</xmpG:type>
                           <xmpG:tint>100.000000</xmpG:tint>
                           <xmpG:mode>RGB</xmpG:mode>
                           <xmpG:red>0</xmpG:red>
                           <xmpG:green>90</xmpG:green>
                           <xmpG:blue>170</xmpG:blue>
                        </rdf:li>
                        <rdf:li rdf:parseType="Resource">
                           <xmpG:swatchName>FOCOLTONE 1097</xmpG:swatchName>
                           <xmpG:type>PROCESS</xmpG:type>
                           <xmpG:tint>100.000000</xmpG:tint>
                           <xmpG:mode>RGB</xmpG:mode>
                           <xmpG:red>0</xmpG:red>
                           <xmpG:green>113</xmpG:green>
                           <xmpG:blue>162</xmpG:blue>
                        </rdf:li>
                        <rdf:li rdf:parseType="Resource">
                           <xmpG:swatchName>FOCOLTONE 1087</xmpG:swatchName>
                           <xmpG:type>PROCESS</xmpG:type>
                           <xmpG:tint>100.000000</xmpG:tint>
                           <xmpG:mode>RGB</xmpG:mode>
                           <xmpG:red>0</xmpG:red>
                           <xmpG:green>109</xmpG:green>
                           <xmpG:blue>166</xmpG:blue>
                        </rdf:li>
                        <rdf:li rdf:parseType="Resource">
                           <xmpG:swatchName>FOCOLTONE 2270</xmpG:swatchName>
                           <xmpG:type>PROCESS</xmpG:type>
                           <xmpG:tint>100.000000</xmpG:tint>
                           <xmpG:mode>RGB</xmpG:mode>
                           <xmpG:red>0</xmpG:red>
                           <xmpG:green>90</xmpG:green>
                           <xmpG:blue>121</xmpG:blue>
                        </rdf:li>
                        <rdf:li rdf:parseType="Resource">
                           <xmpG:swatchName>FOCOLTONE 3425</xmpG:swatchName>
                           <xmpG:type>PROCESS</xmpG:type>
                           <xmpG:tint>100.000000</xmpG:tint>
                           <xmpG:mode>RGB</xmpG:mode>
                           <xmpG:red>36</xmpG:red>
                           <xmpG:green>78</xmpG:green>
                           <xmpG:blue>85</xmpG:blue>
                        </rdf:li>
                        <rdf:li rdf:parseType="Resource">
                           <xmpG:swatchName>FOCOLTONE 3439</xmpG:swatchName>
                           <xmpG:type>PROCESS</xmpG:type>
                           <xmpG:tint>100.000000</xmpG:tint>
                           <xmpG:mode>RGB</xmpG:mode>
                           <xmpG:red>0</xmpG:red>
                           <xmpG:green>76</xmpG:green>
                           <xmpG:blue>122</xmpG:blue>
                        </rdf:li>
                        <rdf:li rdf:parseType="Resource">
                           <xmpG:swatchName>FOCOLTONE 1107</xmpG:swatchName>
                           <xmpG:type>PROCESS</xmpG:type>
                           <xmpG:tint>100.000000</xmpG:tint>
                           <xmpG:mode>RGB</xmpG:mode>
                           <xmpG:red>0</xmpG:red>
                           <xmpG:green>154</xmpG:green>
                           <xmpG:blue>222</xmpG:blue>
                        </rdf:li>
                        <rdf:li rdf:parseType="Resource">
                           <xmpG:swatchName>FOCOLTONE 1011</xmpG:swatchName>
                           <xmpG:type>PROCESS</xmpG:type>
                           <xmpG:tint>100.000000</xmpG:tint>
                           <xmpG:mode>RGB</xmpG:mode>
                           <xmpG:red>212</xmpG:red>
                           <xmpG:green>238</xmpG:green>
                           <xmpG:blue>252</xmpG:blue>
                        </rdf:li>
                        <rdf:li rdf:parseType="Resource">
                           <xmpG:swatchName>FOCOLTONE 1025</xmpG:swatchName>
                           <xmpG:type>PROCESS</xmpG:type>
                           <xmpG:tint>100.000000</xmpG:tint>
                           <xmpG:mode>RGB</xmpG:mode>
                           <xmpG:red>198</xmpG:red>
                           <xmpG:green>234</xmpG:green>
                           <xmpG:blue>251</xmpG:blue>
                        </rdf:li>
                        <rdf:li rdf:parseType="Resource">
                           <xmpG:swatchName>FOCOLTONE 2185</xmpG:swatchName>
                           <xmpG:type>PROCESS</xmpG:type>
                           <xmpG:tint>100.000000</xmpG:tint>
                           <xmpG:mode>RGB</xmpG:mode>
                           <xmpG:red>185</xmpG:red>
                           <xmpG:green>229</xmpG:green>
                           <xmpG:blue>250</xmpG:blue>
                        </rdf:li>
                        <rdf:li rdf:parseType="Resource">
                           <xmpG:swatchName>FOCOLTONE 1039</xmpG:swatchName>
                           <xmpG:type>PROCESS</xmpG:type>
                           <xmpG:tint>100.000000</xmpG:tint>
                           <xmpG:mode>RGB</xmpG:mode>
                           <xmpG:red>170</xmpG:red>
                           <xmpG:green>224</xmpG:green>
                           <xmpG:blue>249</xmpG:blue>
                        </rdf:li>
                        <rdf:li rdf:parseType="Resource">
                           <xmpG:swatchName>FOCOLTONE 1106</xmpG:swatchName>
                           <xmpG:type>PROCESS</xmpG:type>
                           <xmpG:tint>100.000000</xmpG:tint>
                           <xmpG:mode>RGB</xmpG:mode>
                           <xmpG:red>0</xmpG:red>
                           <xmpG:green>170</xmpG:green>
                           <xmpG:blue>188</xmpG:blue>
                        </rdf:li>
                        <rdf:li rdf:parseType="Resource">
                           <xmpG:swatchName>FOCOLTONE 1024</xmpG:swatchName>
                           <xmpG:type>PROCESS</xmpG:type>
                           <xmpG:tint>100.000000</xmpG:tint>
                           <xmpG:mode>RGB</xmpG:mode>
                           <xmpG:red>156</xmpG:red>
                           <xmpG:green>185</xmpG:green>
                           <xmpG:blue>200</xmpG:blue>
                        </rdf:li>
                        <rdf:li rdf:parseType="Resource">
                           <xmpG:swatchName>FOCOLTONE 1038</xmpG:swatchName>
                           <xmpG:type>PROCESS</xmpG:type>
                           <xmpG:tint>100.000000</xmpG:tint>
                           <xmpG:mode>RGB</xmpG:mode>
                           <xmpG:red>135</xmpG:red>
                           <xmpG:green>178</xmpG:green>
                           <xmpG:blue>198</xmpG:blue>
                        </rdf:li>
                        <rdf:li rdf:parseType="Resource">
                           <xmpG:swatchName>FOCOLTONE 1066</xmpG:swatchName>
                           <xmpG:type>PROCESS</xmpG:type>
                           <xmpG:tint>100.000000</xmpG:tint>
                           <xmpG:mode>RGB</xmpG:mode>
                           <xmpG:red>87</xmpG:red>
                           <xmpG:green>165</xmpG:green>
                           <xmpG:blue>196</xmpG:blue>
                        </rdf:li>
                        <rdf:li rdf:parseType="Resource">
                           <xmpG:swatchName>FOCOLTONE 1052</xmpG:swatchName>
                           <xmpG:type>PROCESS</xmpG:type>
                           <xmpG:tint>100.000000</xmpG:tint>
                           <xmpG:mode>RGB</xmpG:mode>
                           <xmpG:red>112</xmpG:red>
                           <xmpG:green>171</xmpG:green>
                           <xmpG:blue>197</xmpG:blue>
                        </rdf:li>
                        <rdf:li rdf:parseType="Resource">
                           <xmpG:swatchName>FOCOLTONE 1083</xmpG:swatchName>
                           <xmpG:type>PROCESS</xmpG:type>
                           <xmpG:tint>100.000000</xmpG:tint>
                           <xmpG:mode>RGB</xmpG:mode>
                           <xmpG:red>198</xmpG:red>
                           <xmpG:green>200</xmpG:green>
                           <xmpG:blue>202</xmpG:blue>
                        </rdf:li>
                        <rdf:li rdf:parseType="Resource">
                           <xmpG:swatchName>FOCOLTONE 4007</xmpG:swatchName>
                           <xmpG:type>PROCESS</xmpG:type>
                           <xmpG:tint>100.000000</xmpG:tint>
                           <xmpG:mode>RGB</xmpG:mode>
                           <xmpG:red>237</xmpG:red>
                           <xmpG:green>236</xmpG:green>
                           <xmpG:blue>246</xmpG:blue>
                        </rdf:li>
                        <rdf:li rdf:parseType="Resource">
                           <xmpG:swatchName>FOCOLTONE 4005</xmpG:swatchName>
                           <xmpG:type>PROCESS</xmpG:type>
                           <xmpG:tint>100.000000</xmpG:tint>
                           <xmpG:mode>RGB</xmpG:mode>
                           <xmpG:red>239</xmpG:red>
                           <xmpG:green>247</xmpG:green>
                           <xmpG:blue>241</xmpG:blue>
                        </rdf:li>
                     </rdf:Seq>
                  </xmpG:Colorants>
               </rdf:li>
            </rdf:Seq>
         </xmpTPg:SwatchGroups>
         <dc:format>image/svg+xml</dc:format>
         <xmpMM:DerivedFrom rdf:parseType="Resource"/>
         <xmpMM:DocumentID>xmp.did:f077d892-d271-439c-8d6d-f514f33c81db</xmpMM:DocumentID>
         <xmpMM:InstanceID>xmp.iid:f077d892-d271-439c-8d6d-f514f33c81db</xmpMM:InstanceID>
         <xmpMM:OriginalDocumentID>xmp.did:f077d892-d271-439c-8d6d-f514f33c81db</xmpMM:OriginalDocumentID>
         <xmpMM:History>
            <rdf:Seq>
               <rdf:li rdf:parseType="Resource">
                  <stEvt:action>saved</stEvt:action>
                  <stEvt:instanceID>xmp.iid:f077d892-d271-439c-8d6d-f514f33c81db</stEvt:instanceID>
                  <stEvt:when>2016-08-01T14:12:03-05:00</stEvt:when>
                  <stEvt:softwareAgent>Adobe Illustrator CC 2015 (Macintosh)</stEvt:softwareAgent>
                  <stEvt:changed>/</stEvt:changed>
               </rdf:li>
            </rdf:Seq>
         </xmpMM:History>
      </rdf:Description>
   </rdf:RDF>
</x:xmpmeta>
                                                                                                    
                                                                                                    
                                                                                                    
                                                                                                    
                                                                                                    
                                                                                                    
                                                                                                    
                                                                                                    
                                                                                                    
                                                                                                    
                                                                                                    
                                                                                                    
                                                                                                    
                                                                                                    
                                                                                                    
                                                                                                    
                                                                                                    
                                                                                                    
                                                                                                    
                                                                                                    
                           
<?xpacket end="w"?>
	</metadata>
<g id="Layer_1">
	<g id="landmarks-states">
		<g id="hi" class="st0">
			<path class="st1" d="M233.1,526.3l1.9-3.6l2.3-0.3l0.3,0.8l-2.1,3.1L233.1,526.3L233.1,526.3z M243.3,522.6l6.1,2.6l2.1-0.3
				l1.6-3.9l-0.6-3.4l-4.2-0.5l-4,1.8L243.3,522.6L243.3,522.6z M274,532.6l3.7,5.5l2.4-0.3l1.1-0.5l1.5,1.3l3.7-0.2l1-1.5l-2.9-1.8
				l-1.9-3.7l-2.1-3.6l-5.8,2.9L274,532.6L274,532.6z M294.2,541.5l1.3-1.9l4.7,1l0.6-0.5l6.1,0.7l-0.3,1.3l-2.6,1.5l-4.4-0.3
				L294.2,541.5L294.2,541.5L294.2,541.5z M299.5,546.7l1.9,3.9l3.1-1.1l0.3-1.6l-1.6-2.1l-3.7-0.3L299.5,546.7L299.5,546.7
				L299.5,546.7z M306.5,545.5l2.3-2.9l4.7,2.4l4.4,1.1l4.4,2.8v1.9l-3.6,1.8l-4.9,1l-2.4-1.5L306.5,545.5L306.5,545.5z
				 M323.1,561.1l1.6-1.3l3.4,1.6l7.6,3.6l3.4,2.1l1.6,2.4l1.9,4.4l4,2.6l-0.3,1.3l-3.9,3.2l-4.2,1.5l-1.5-0.7l-3.1,1.8l-2.4,3.2
				l-2.3,2.9l-1.8-0.2l-3.6-2.6l-0.3-4.5l0.6-2.4l-1.6-5.7l-2.1-1.8l-0.2-2.6l2.3-1l2.1-3.1l0.5-1l-1.6-1.8L323.1,561.1L323.1,561.1
				L323.1,561.1z"/>
		</g>
		<g id="ak" class="st0">
			<path class="st1" d="M158.1,460.7l-0.3,85.4l1.6,1l3.1,0.2l1.4-1.1h2.6l0.2,2.9l6.9,6.8l0.5,2.6l3.4-1.9l0.6-0.2l0.3-3.1l1.4-1.6
				l1.1-0.2l1.9-1.5l3.1,2.1l0.6,2.9l1.9,1.1l1.1,2.4l3.9,1.8l3.4,6l2.8,3.9l2.3,2.8l1.4,3.7l5,1.8l5.2,2.1l1,4.4l0.5,3.1l-1,3.4
				l-1.8,2.3l-1.6-0.8l-1.4-3.1l-2.8-1.5l-1.8-1.1l-0.8,0.8l1.4,2.8l0.2,3.7l-1.1,0.5l-1.9-1.9l-2.1-1.3l0.5,1.6l1.3,1.8l-0.8,0.8
				l-1.3-1l-2.1-3.4l-1-2.3l-1,1l-1.3-1.4l1.8-1.9l-1.4-1.5v-5h-0.8l-0.8,3.4l-1.1,0.5l-1-3.7l-0.6-3.7l-0.8-0.5l0.3,5.7v1.1
				l-1.4-1.3l-3.6-6l-2.1-0.5l-0.6-3.7l-1.6-2.9l-1.6-1.1v-2.3l2.1-1.3l-0.5-0.3l-2.6,0.6l-3.4-2.4l-2.6-2.9l-4.9-2.6l-4-2.6
				l1.3-3.2V549l-1.8,1.6l-2.9,1.1l-3.7-1.1l-5.7-2.4h-5.5l-0.6,0.5l-6.5-3.9l-2.1-0.3l-2.8-5.8l-3.6,0.3l-3.6,1.5l0.5,4.5l1.1-2.9
				l1,0.3l-1.4,4.4l3.2-2.8l0.6,1.6l-3.9,4.4l-1.3-0.3l-0.5-1.9l-1.3-0.8l-1.3,1.1l-2.8-1.8l-3.1,2.1l-1.8,2.1l-3.4,2.1l-4.7-0.2
				l-0.5-2.1l3.7-0.6v-1.3l-2.3-0.7l1-2.4l2.3-3.9v-1.8l0.2-0.8l4.4-2.3l1,1.3h2.8l-1.3-2.6l-3.7-0.3l-5,2.8l-2.4,3.4l-1.8,2.6
				l-1.1,2.3l-4.2,1.5l-3.1,2.6l-0.3,1.6l2.3,1l0.8,2.1l-2.8,3.2l-6.5,4.2l-7.8,4.2l-2.1,1.1l-5.3,1.1l-5.3,2.3l1.8,1.3l-1.4,1.4
				l-0.5,1.1l-2.8-1l-3.2,0.2l-0.8,2.3h-1l0.3-2.4l-3.6,1.3l-2.9,1l-3.4-1.3l-2.9,1.9h-3.2l-2.1,1.3l-1.6,0.8l-2.1-0.3l-2.6-1.1
				l-2.3,0.6l-1,1l-1.6-1.1v-1.9l3.1-1.3l6.3,0.6l4.4-1.6l2.1-2.1l2.9-0.6l1.8-0.8l2.8,0.2l1.6,1.3l1-0.3l2.3-2.8l3.1-1l3.4-0.7
				l1.3-0.3l0.7,0.5h0.8l1.3-3.7l4-1.5l1.9-3.7l2.3-4.5l1.6-1.5l0.3-2.6l-1.6,1.3l-3.4,0.7l-0.7-2.4l-1.3-0.3l-1,1l-0.2,2.9
				l-1.4-0.2l-1.4-5.8l-1.3,1.3l-1.1-0.5l-0.3-1.9l-4,0.2l-2.1,1.1l-2.6-0.3l1.5-1.5l0.5-2.6l-0.7-1.9l1.5-1l1.3-0.2l-0.7-1.8v-4.4
				l-1-1l-0.8,1.5h-6.1l-1.5-1.3l-0.7-3.9l-2.1-3.6v-1l2.1-0.8L53,521l1.1-1.1l-0.8-0.5l-1.3,0.5l-1.1-2.8l1-5l4.5-3.2l2.6-1.6
				l1.9-3.7l2.8-1.3l2.6,1.1l0.3,2.4l2.4-0.3l3.2-2.4l1.6,0.6l1,0.6h1.6l2.3-1.3l0.8-4.4l1-3.4l1-1l-1.1-1.9l-2.6,0.8l-3.2,0.8
				l-1.9-0.5l-3.6-1.8l-5-0.2l-3.6-3.7l0.5-3.9l0.7-2.4l-2.1-1.8l-1.9-3.7l0.5-0.8l6.8-0.5h2.1l1,1h0.7l-0.2-1.6l3.9-0.6l2.6,0.3
				l1.4,1.1l-1.4,2.1l-0.5,1.5l2.8,1.6l5,1.8l1.8-1l-2.3-4.4l-1-3.2l1-0.8l-3.4-1.9l-0.5-1.1l0.5-1.6l-0.8-3.9l-2.9-4.7l-2.4-4.2
				l2.9-1.9h3.2l1.8,0.6l4.2-0.2l3.7-3.6l1.1-3.1l3.7-2.4l1.6,1l2.8-0.6l3.7-2.1l1.1-0.2l1,0.8l4.5-0.2l2.8-3.1h1.1l3.6,2.4l1.9,2.1
				l-0.5,1.1l0.7,1.1l1.6-1.6l3.9,0.3l0.3,3.7l1.9,1.5l7.1,0.6l6.3,4.2l1.4-1l5.2,2.6l2.1-0.6l1.9-0.8l4.9,1.9L158.1,460.7
				L158.1,460.7L158.1,460.7z M43,489.6l2.1,5.3l-0.2,1l-2.9-0.3l-1.8-4l-1.8-1.5H36l-0.2-2.6l1.8-2.4l1.1,2.4l1.5,1.5L43,489.6
				L43,489.6z M40.4,523.1l3.7,0.8l3.7,1l0.8,1l-1.6,3.7l-3.1-0.2l-3.4-3.6L40.4,523.1L40.4,523.1z M19.7,509l1.1,2.6l1.1,1.6
				l-1.1,0.8l-2.1-3.1V509L19.7,509L19.7,509L19.7,509z M5.9,582.1l3.4-2.3l3.4-1l2.6,0.3l0.5,1.6l1.9,0.5l1.9-1.9l-0.3-1.6l2.8-0.7
				l2.9,2.6l-1.1,1.8l-4.4,1.1l-2.8-0.5l-3.7-1.1l-4.4,1.5l-1.6,0.3L5.9,582.1L5.9,582.1L5.9,582.1z M54.9,577.6l1.6,1.9l2.1-1.6
				l-1.5-1.3L54.9,577.6L54.9,577.6z M57.8,580.6l1.1-2.3l2.1,0.3l-0.8,1.9L57.8,580.6L57.8,580.6z M81.4,578.7l1.4,1.8l1-1.1
				l-0.8-1.9L81.4,578.7L81.4,578.7z M90.2,566.2l1.1,5.8l2.9,0.8l5-2.9l4.4-2.6l-1.6-2.4l0.5-2.4l-2.1,1.3l-2.9-0.8l1.6-1.1
				l1.9,0.8l3.9-1.8l0.5-1.5l-2.4-0.8l0.8-1.9l-2.8,1.9l-4.7,3.6l-4.8,2.9L90.2,566.2L90.2,566.2L90.2,566.2z M132.5,546.4l2.4-1.5
				l-1-1.8l-1.8,1L132.5,546.4L132.5,546.4z"/>
		</g>
		<g id="fl">
			<path class="st2" d="M759.8,439.1l2.3,7.3l3.7,9.7l5.3,9.4l3.7,6.3l4.8,5.5l4,3.7l1.6,2.9l-1.1,1.3l-0.8,1.3l2.9,7.4l2.9,2.9
				l2.6,5.3l3.6,5.8l4.5,8.2l1.3,7.6l0.5,12l0.7,1.8l-0.3,3.4l-2.4,1.3l0.3,1.9l-0.6,1.9l0.3,2.4l0.5,1.9l-2.8,3.2l-3.1,1.5
				l-3.9,0.2l-1.5,1.6l-2.4,1l-1.3-0.5l-1.1-1l-0.3-2.9l-0.8-3.4l-3.4-5.2l-3.6-2.3l-3.9-0.3l-0.8,1.3l-3.1-4.4l-0.7-3.6l-2.6-4
				l-1.8-1.1l-1.6,2.1l-1.8-0.3l-2.1-5l-2.9-3.9l-2.9-5.3l-2.6-3.1l-3.6-3.7l2.1-2.4l3.2-5.5l-0.2-1.6l-4.5-1l-1.6,0.6l0.3,0.6
				l2.6,1l-1.5,4.5l-0.8,0.5l-1.8-4l-1.3-4.9l-0.3-2.8l1.5-4.7v-9.5l-3.1-3.7l-1.3-3.1l-5.2-1.3l-1.9-0.6l-1.6-2.6l-3.4-1.6
				l-1.1-3.4l-2.8-1l-2.4-3.7l-4.2-1.5l-2.9-1.5H711l-4,0.8l-0.2,1.9l0.8,1l-0.5,1.1l-3.1-0.2l-3.7,3.6l-3.6,1.9h-3.9l-3.2,1.3
				l-0.3-2.8l-1.6-1.9l-2.9-1.1l-1.6-1.5l-8.1-3.9l-7.6-1.8l-4.4,0.6l-6,0.5l-6,2.1l-3.5,0.6l-0.2-8.1l-2.6-1.9l-1.8-1.8l0.3-3.1
				l10.2-1.3l25.5-2.9l6.8-0.6l5.4,0.3l2.6,3.9l1.5,1.5l8.1,0.5l10.8-0.6l21.5-1.3l5.5-0.7l5.1,0.2l0.4,2.9l2.2,0.8l0.2-4.6
				l-1.5-4.2l1.3-1.4l5.6,0.5L759.8,439.1L759.8,439.1L759.8,439.1z M772.4,571.5l2.4-0.6l1.3-0.2l1.4-2.3l2.3-1.6l1.3,0.5l1.7,0.3
				l0.4,1l-3.5,1.2l-4.2,1.5l-2.3,1.2L772.4,571.5L772.4,571.5L772.4,571.5z M785.9,566.5l1.2,1l2.8-2.1l5.3-4.2l3.7-3.9l2.5-6.6
				l1-1.7l0.2-3.4l-0.7,0.5l-1,2.8l-1.4,4.6l-3.2,5.2l-4.4,4.2l-3.4,1.9L785.9,566.5L785.9,566.5L785.9,566.5z"/>
		</g>
		<g id="nh">
			<path class="st3" d="M880.8,142.4l0.9-1.1l1.1-3.3l-2.5-0.9l-0.5-3.1l-3.9-1.1l-0.3-2.8l-7.3-23.4l-4.6-14.5l-0.9,0l-0.6,1.6
				l-0.7-0.5l-1-1l-1.5,1.9l-0.1,5l0.3,5.7l1.9,2.8v4l-3.7,5.1l-2.6,1.1v1.1l1.1,1.8v8.6l-0.8,9.2l-0.2,4.9l1,1.3l-0.2,4.5l-0.5,1.8
				l1,0.7l16.8-4.4l2.2-0.6l1.8-2.8L880.8,142.4L880.8,142.4L880.8,142.4z"/>
		</g>
		<g id="mi">
			<path class="st3" d="M697.9,177.2l-3.2-8.2l-2.3-9.1l-2.4-3.2l-2.6-1.8l-1.6,1.1l-3.9,1.8l-1.9,5l-2.8,3.7l-1.1,0.6l-1.5-0.6
				l-2.4-2.1l0.5-5l3.4-1.3l0.8-3.4l0.7-2.6l2.4-1.6l-0.3-10l-1.6-2.3l-1.3-0.8l-0.8-2.1l0.8-0.8l1.6,0.3l0.2-1.6L676,131l-1.3-2.6
				h-2.6l-4.5-1.4l-5.5-3.4h-2.8l-0.6,0.7l-1-0.5l-3.1-2.3l-2.9,1.8l-2.9,2.3l0.3,3.6l1,0.3l2.1,0.5l0.5,0.8l-2.6,0.8l-2.6,0.3
				l-1.5,1.8l-0.3,2.1l0.3,1.6l0.3,5.5l-3.6,2.1l-0.7-0.2v-4.2l1.3-2.4l0.7-2.4l-0.8-0.8l-1.9,0.8l-1,4.2l-2.8,1.1l-1.8,1.9l-0.2,1
				l0.7,0.8l-0.7,2.6l-2.3,0.5v1.1l0.8,2.4l-1.1,6.1l-1.6,4l0.7,4.7l0.5,1.1l-0.8,2.4l-0.3,0.8l-0.3,2.8l3.6,6l2.9,6.5l1.5,4.9
				l-0.8,4.7l-1,6l-2.4,5.2l-0.3,2.8l-3.3,3.1l4.4-0.2l21.4-2.3l7.3-1l0.1,1.7l6.8-1.2l10.3-1.5l3.8-0.5l0.1-0.6l0.2-1.4l2.1-3.7
				l2-1.7l-0.2-5.1l1.6-1.6l1.1-0.3l0.2-3.6l1.5-3l1,0.6l0.2,0.6l0.8,0.2l1.9-1L697.9,177.2L697.9,177.2L697.9,177.2z"/>
			<path class="st3" d="M581.6,82.1l1.8-2.1l2.2-0.8l5.4-3.9l2.3-0.6l0.5,0.5l-5.1,5.1l-3.3,1.9l-2.1,0.9L581.6,82.1L581.6,82.1
				L581.6,82.1z M667.8,114.2l0.7,2.5l3.2,0.2l1.3-1.2l-0.4-1.6l-1.6-1.9l-2.2,0.2l-1.6,0.2l-0.3,1.1L667.8,114.2L667.8,114.2
				L667.8,114.2z M567.5,111.2l0.7-0.6l2.8-0.8l3.6-2.3v-1l0.7-0.7l6-1l2.4-1.9l4.4-2.1l0.2-1.3l1.9-2.9l1.8-0.8l1.3-1.8l2.3-2.3
				l4.4-2.4l4.7-0.5l1.1,1.1l-0.3,1l-3.7,1l-1.5,3.1l-2.3,0.8l-0.5,2.4l-2.4,3.2l-0.3,2.6l0.8,0.5l1-1.1l3.6-2.9l1.3,1.3h2.3l3.2,1
				l1.5,1.1l1.5,3.1l2.8,2.8l3.9-0.2l1.5-1l1.6,1.3l1.6,0.5l1.3-0.8h1.1l1.6-1l4-3.6l3.4-1.1l6.6-0.3l4.5-1.9l2.6-1.3l1.5,0.2v5.7
				l0.5,0.3l2.9,0.8l1.9-0.5l6.1-1.6l1.1-1.1l1.5,0.5v6.9l3.2,3.1l1.3,0.7l1.3,1l-1.3,0.3l-0.8-0.3l-3.7-0.5l-2.1,0.7l-2.3-0.2
				l-3.2,1.4h-1.8l-5.8-1.3l-5.2,0.2l-1.9,2.6l-7,0.7l-2.4,0.8l-1.1,3.1l-1.3,1.1l-0.5-0.2l-1.5-1.6l-4.5,2.4h-0.7l-1.1-1.6
				l-0.8,0.2l-1.9,4.4l-1,4l-3.2,7l-1.2-1l-1.4-1l-1.9-10.3l-3.5-1.4l-2.1-2.3l-12.1-2.7l-2.9-1l-8.2-2.2l-7.9-1.1L567.5,111.2
				L567.5,111.2L567.5,111.2z"/>
		</g>
		<g id="vt">
			<path class="st3" d="M844.5,154.1l0.3-5.4l-2.9-10.8l-0.7-0.3l-2.9-1.3l0.8-2.9l-0.8-2.1l-2.7-4.6l1-3.9l-0.8-5.2l-2.4-6.5
				l-0.8-4.9l26.4-6.7l0.3,5.5l1.9,2.7v4l-3.7,5.1l-2.6,1.1l0,1.1l1.3,1.5l-0.3,8.1l-0.6,9.3l-0.2,5.6l1,1.3l-0.2,4.6l-0.5,1.7
				l1,0.7l-7.4,1.5L844.5,154.1L844.5,154.1L844.5,154.1z"/>
		</g>
		<g id="me">
			<path class="st3" d="M922.8,78.8l1.9,2.1l2.3,3.7v1.9l-2.1,4.7l-1.9,0.6l-3.4,3.1l-4.9,5.5h-1.3l-1-2.1l-1.8,0.2l-1,1.4l-2.4,1.4
				l-1,1.4l1.6,1.4l-0.5,0.7l-0.5,2.8l-1.9-0.2V106l-0.3-1.3l-1.4,0.3l-1.8-3.2l-2.1,1.3l1.3,1.4l0.3,1.1l-0.8,1.3l0.3,3.1l0.2,1.6
				l-1.6,2.6l-2.9,0.5l-0.3,2.9l-5.3,3.1l-1.3,0.5l-1.6-1.4l-3.1,3.6l1,3.2l-1.5,1.3l-0.2,4.4l-1.1,6.3l-2.5-1.2l-0.5-3.1L876,133
				l-0.3-2.8l-7.3-23.4l-4.7-14.6l1.4-0.1l1.5,0.4v-2.6l1.3-4.5l2.6-4.7l1.5-4l-1.9-2.4v-6l0.8-1l0.8-2.8l-0.2-1.5l-0.2-4.8l1.8-4.8
				l2.9-8.9l2.1-4.2h1.3l1.3,0.2v1.1l1.3,2.3l2.8,0.7l0.8-0.8v-1l4-2.9l1.8-1.8l1.5,0.2l6,2.4l1.9,1l9,29.9h6l0.8,1.9l0.2,4.8
				l2.9,2.3h0.8l0.2-0.5l-0.5-1.1L922.8,78.8L922.8,78.8L922.8,78.8z M901.9,109l1.5-1.5l1.4,1.1l0.6,2.4l-1.7,0.9L901.9,109
				L901.9,109z M908.6,103.1l1.8,1.9l1.3-0.2l0.2-2l0.9-0.8l-0.8-1.8l-2,0.7L908.6,103.1L908.6,103.1z"/>
		</g>
		<g id="ri">
			<path class="st3" d="M874.1,178.9l-3.7-15l6.3-1.9l2.2,1.9l3.3,4.3l2.7,4.4l-3,1.6l-1.3-0.2l-1.1,1.8l-2.4,1.9L874.1,178.9
				L874.1,178.9L874.1,178.9z"/>
		</g>
		<g id="ny">
			<path class="st3" d="M830.4,188.8l-1.1-1l-2.6-0.2l-2.3-1.9l-1.6-6.1l-3.5,0.1l-2.4-2.7l-19.4,4.4l-43,8.7l-7.5,1.2l-0.7-6.5
				l1.4-1.1l1.3-1.1l1-1.6l1.8-1.1l1.9-1.8l0.5-1.6l2.1-2.8l1.1-1l-0.2-1l-1.3-3.1l-1.8-0.2l-1.9-6.1l2.9-1.8l4.4-1.4l4-1.3l3.2-0.5
				l6.3-0.2l1.9,1.3l1.6,0.2l2.1-1.3l2.6-1.1l5.2-0.5l2.1-1.8l1.8-3.2l1.6-1.9h2.1l1.9-1.1l0.2-2.3l-1.5-2.1l-0.3-1.4l1.1-2.1v-1.4
				h-1.8l-1.8-0.8l-0.8-1.1l-0.2-2.6l5.8-5.5l0.7-0.8l1.5-2.9l2.9-4.5l2.8-3.7l2.1-2.4l2.4-1.8l3.1-1.2l5.5-1.3l3.2,0.2l4.5-1.4
				l7.6-2.1l0.5,5l2.4,6.5l0.8,5.2l-1,3.9l2.6,4.5l0.8,2.1l-0.8,2.9l2.9,1.3l0.7,0.3l3.1,11l-0.5,5.1l-0.5,10.8l0.8,5.5l0.8,3.6
				l1.5,7.3v8.1l-1.1,2.3l1.8,2l0.8,1.7l-1.9,1.8l0.3,1.3l1.3-0.3l1.5-1.3l2.3-2.6l1.1-0.6l1.6,0.6l2.3,0.2l7.9-3.9l2.9-2.8l1.3-1.4
				l4.2,1.6l-3.4,3.6L866,194l-7.1,5.3l-2.6,1l-5.8,1.9l-4,1.1l-1.2-0.5l-0.2-3.7l0.5-2.8l-0.2-2.1l-2.8-1.7l-4.5-1l-3.9-1.1
				L830.4,188.8L830.4,188.8L830.4,188.8z"/>
		</g>
		<g id="pa">
			<path class="st2" d="M825.1,224.7l1.3-0.3l2.3-1.2l1.2-2.5l1.6-2.3l3.2-3.1v-0.8l-2.4-1.6l-3.6-2.4l-1-2.6l-2.8-0.3l-0.2-1.1
				l-0.8-2.8l2.3-1.1l0.2-2.4l-1.3-1.3l0.2-1.6l1.9-3.1v-3.1l2.7-2.6l-0.9-0.7l-2.5-0.2l-2.3-1.9l-1.5-6.1l-3.5,0.1l-2.5-2.7
				l-18.1,4.2l-43,8.7l-8.9,1.4l-0.6-6.5l-5.4,5.1l-1.3,0.5l-4.2,3l2.9,19.1l2.5,9.7l3.6,19.3l3.3-0.6l11.9-1.5l37.9-7.7l14.9-2.8
				l8.3-1.6l0.3-0.2l2.1-1.6L825.1,224.7L825.1,224.7L825.1,224.7z"/>
		</g>
		<path id="nj" class="st3" d="M829.7,188.5l-2.3,2.7v3.1l-1.9,3.1l-0.2,1.6l1.3,1.3l-0.2,2.4l-2.3,1.1l0.8,2.8l0.2,1.1l2.8,0.3
			l1,2.6l3.6,2.4l2.4,1.6v0.8l-3,2.7l-1.6,2.3l-1.5,2.8l-2.3,1.3L826,226l-0.2,1.2l-0.6,2.6l1.1,2.2l3.2,2.9l4.8,2.3l4,0.6l0.2,1.4
			l-0.8,1l0.3,2.8h0.8l2.1-2.4l0.8-4.9l2.8-4l3.1-6.5l1.1-5.5l-0.6-1.1l-0.2-9.4l-1.6-3.4l-1.1,0.8l-2.8,0.3l-0.5-0.5l1.1-1l2.1-1.9
			l0.1-1.1l-0.4-3.4l0.6-2.8l-0.1-2l-2.8-1.8l-5.1-1.2l-4.1-1.4L829.7,188.5L829.7,188.5L829.7,188.5z"/>
		<path id="de" class="st3" d="M825.6,228.3l0.4-2.1l0.4-1.7l-1.6,0.4l-1.6,0.5l-2.2,1.8l1.7,5l2.3,5.7l2.1,9.7l1.6,6.3l5-0.2
			l6.1-1.2l-2.3-7.4l-1,0.5l-3.6-2.4l-1.8-4.7l-1.9-3.6l-3.1-2.9l-0.9-2.1L825.6,228.3L825.6,228.3L825.6,228.3z"/>
		<path id="md" class="st3" d="M839.8,252.4l-6,1.2l-5.1,0.1l-1.8-6.9l-1.9-9.2l-2.6-6.2l-1.3-4.4l-7.5,1.6l-14.9,2.8l-37.5,7.6
			l1.1,5l1,5.7l0.3-0.3l2.1-2.4l2.3-2.6l2.4-0.6l1.5-1.4l1.8-2.6l1.3,0.6l2.9-0.3l2.6-2.1l2-1.4l1.8-0.5l1.6,1.1l2.9,1.4l1.9,1.8
			l1.2,1.5l4.1,1.7v2.9l5.5,1.3l1.1,0.5l1.4-2l2.9,2l-1.3,2.5l-0.8,4l-1.8,2.6v2.1l0.7,1.8l5.1,1.4l4.3-0.1l3.1,1l2.1,0.3l1-2.1
			l-1.5-2.1v-1.8l-2.4-2.1l-2.1-5.5l1.3-5.3l-0.2-2.1l-1.3-1.3l1.5-2.3l0.5-2.1l1.9-1.3l1.9-1.6l0.5,1l-1.5,1.6l-1.3,3.7l0.3,1.1
			l1.8,0.3l0.5,5.5l-2.1,1l0.3,3.6l0.5-0.2l1.1-1.9l1.6,1.8l-1.6,1.3l-0.3,3.4l2.6,3.4l3.9,0.5l1.6-0.8l3.2,4.2l1.4,0.5l6.6-2.8l2-4
			L839.8,252.4L839.8,252.4L839.8,252.4z M823.8,261.4l1.1,2.5l0.2,1.8l1.1,1.9l0.9-1.2l-0.7-3.1l-0.7-2.3L823.8,261.4L823.8,261.4
			L823.8,261.4z"/>
		<path id="va" class="st2" d="M831.6,266.1l-0.1-2l6.5-2.5l-0.8,3.2l-2.9,3.8l-0.4,4.6l0.5,3.4l-1.8,5l-2.2,1.9l-1.5-4.6l0.5-5.5
			l1.6-4.2L831.6,266.1L831.6,266.1L831.6,266.1z M835,294.4l-58.2,12.6l-37.4,5.3l-6.7-0.4l-2.6,1.9l-7.3,0.2l-8.4,1l-10.9,1.6
			L714,311l0-2.1l1.5-2.1l10.5-11.5l4,4.5l3.8,1l2.5-1.1l2.2-1.3l2.5,1.3l3.9-1.4l1.9-4.6l2.6,0.5l2.9-2.1l1.8,0.5l2.8-3.7l0.4-2.1
			l-1-1.3l1-1.9l5.3-12.3l0.6-5.7l1.2-0.5l2.2,2.4l3.9-0.3l1.9-7.6l2.8-0.6l1-2.7l2.6-2.4l2.8-5.7l0.1-5.1l9.8,3.8l0.8-5.1l3.7,1.6
			l0.1,2.9l5.8,1.3l2.1,1.2l1.7,2.1l-0.7,3.6l-2,2.6l0.1,2.1l0.6,1.9l5,1.3l4.5,0l3.1,1l1.9,0.3l0.7,3.1l3.2,0.4l0.9,1.2l-0.4,4.7
			l1.4,1.1l-0.5,1.9l1.2,0.8l-0.2,1.4l-2.7-0.1l0.1,1.6l2.3,1.5l0.1,1.4l1.8,1.8l0.5,2.5l-2.5,1.4l1.6,1.5l5.8-1.7L835,294.4
			L835,294.4L835,294.4z"/>
		<path id="wv" class="st3" d="M761.2,239l1.1,4.9l1.1,6l2.1-2.6l2.3-3.1l2.5-0.6l1.5-1.4l1.8-2.6l1.5,0.6l2.9-0.3l2.6-2.1l2-1.4
			l1.8-0.5l1.3,1l3.6,1.8l1.9,1.8l1.4,1.3l-0.8,5.6l-5.8-2.5l-4.2-1.6l-0.1,5.2l-2.8,5.5l-2.5,2.4l-1.2,2.8l-2.6,0.5l-0.9,3.6l-1,4
			l-4,0.3l-2.3-2.4l-1.1,0.6l-0.6,5.5l-1.4,3.5l-5,11l0.9,1.2l-0.2,1.9l-2.8,3.9l-1.8-0.5l-3,2.2l-2.5-0.6l-2,4.6l-3.9,1.4l-2.5-1.2
			l-2.3,1.4l-2.4,1l-3.7-0.9l-1.1-1.2l-2.2-3l-3.1-2l-1.7-3.6l-4.3-3.5l-0.6-2.3l-2.6-1.5l-0.8-1.6l-0.2-5.2l2.2-0.1l1.9-0.8
			l0.2-2.8l1.6-1.5l0.2-5l1-3.9l1.3-0.6l1.3,1.1l0.5,1.8l1.8-1l0.5-1.6l-1.1-1.8v-2.4l1-1.3l2.3-3.4l1.3-1.4l2.1,0.5l2.3-1.6
			l3.1-3.4l2.3-3.9l0.3-5.7l0.5-5v-4.7l-1.1-3.1l1-1.4l1.3-1.3l3.5,19.8l4.6-0.8L761.2,239L761.2,239L761.2,239z"/>
		<path id="oh" class="st3" d="M735.3,193.3l-6.1,4.1l-3.9,2.3l-3.4,3.7l-4,3.9l-3.2,0.8l-2.9,0.5l-5.5,2.6l-2.1,0.2l-3.4-3.1
			l-5.2,0.6l-2.6-1.4l-2.4-1.4l-4.9,0.7l-10.2,1.6l-11.2,2.2l1.3,14.6l1.8,13.7l2.6,23.4l0.6,4.8l4.1-0.1l2.4-0.8l3.4,1.5l2.1,4.4
			l5.1,0l1.9,2.1l1.8-0.1l2.5-1.3l2.5,0.4l5.4,0.5l1.7-2.1l2.4-1.3l2.1-0.7l0.7,2.8l1.8,1l3.5,2.3l2.2-0.1l1.3-0.5l0.2-2.8l1.6-1.5
			l0.1-4.8l1-4.1l1.3-0.6l1.3,1.1l0.5,1.7l1.7-1l0.4-1.5l-1.1-1.9l0.1-2.3l0.8-1.1l2.2-3.3l1-1.5l2.1,0.5l2.3-1.6l3.1-3.4l2.8-4.1
			l0.3-5.1l0.5-5l-0.2-5.3l-1-2.9l0.3-1.2l1.8-1.8l-2.3-9.1L735.3,193.3L735.3,193.3L735.3,193.3z"/>
		<path id="in" class="st3" d="M619.6,300l0.1-2.9l0.5-4.5l2.3-2.9l1.8-3.9l2.6-4.2l-0.5-5.8l-1.8-2.8l-0.3-3.2l0.8-5.5l-0.5-7
			l-1.3-16l-1.3-15.4l-1-11.7l3.1,0.9l1.4,1l1.1-0.3l2.1-1.9l2.8-1.6l5.1-0.2l22-2.3l5.6-0.5l1.5,16l4.2,36.8l0.6,5.8l-0.4,2.3
			l1.2,1.8l0.1,1.4l-2.5,1.6l-3.5,1.5l-3.2,0.5l-0.6,4.9l-4.6,3.3l-2.8,4l0.3,2.4l-0.6,1.5h-3.3l-1.6-1.6l-2.5,1.3l-2.7,1.5l0.2,3
			l-1.2,0.3l-0.5-1l-2.2-1.5l-3.2,1.3l-1.5,3l-1.4-0.8l-1.4-1.6l-4.5,0.5l-5.6,1L619.6,300L619.6,300L619.6,300z"/>
		<path id="il" class="st2" d="M619.5,300.3l0-3.2l0.6-4.6l2.3-2.9l1.9-4.1l2.2-4l-0.4-5.2l-2-3.5l-0.1-3.4l0.7-5.3l-0.8-7.2
			l-1.1-15.8l-1.3-15l-0.9-11.6l-0.3-0.9l-0.8-2.6l-1.3-3.7l-1.6-1.8l-1.4-2.6l-0.2-5.5l-45.8,2.6l0.2,2.4l2.3,0.7l0.9,1.1l0.5,1.8
			l3.9,3.4l0.7,2.3l-0.7,3.4l-1.8,3.7l-0.7,2.5l-2.3,1.8l-1.8,0.7l-5.3,1.4l-0.7,1.8l-0.7,2.1l0.7,1.4l1.8,1.6l-0.2,4.1l-1.8,1.6
			l-0.7,1.6v2.7l-1.8,0.5l-1.6,1.1l-0.2,1.4l0.2,2.1l-1.7,1.3l-1,2.8l0.5,3.7l2.3,7.3l7.3,7.5l5.5,3.7l-0.2,4.3l0.9,1.4l6.4,0.5
			l2.7,1.4l-0.7,3.7l-2.3,5.9l-0.7,3.2l2.3,3.9l6.4,5.3l4.6,0.7l2.1,5l2.1,3.2l-0.9,3l1.6,4.1l1.8,2.1l1.4-0.9l0.9-2.1l2.2-1.8
			l2.1-0.6l2.6,1.2l3.6,1.4l1.2-0.3l0.2-2.3l-1.3-2.4l0.3-2.4l1.8-1.4l3-0.8l1.3-0.5l-0.6-1.4l-0.8-2.4l1.4-1L619.5,300.3
			L619.5,300.3L619.5,300.3z"/>
		<path id="ct" class="st3" d="M874.1,178.9l-3.7-14.9l-4.7,0.9l-21.2,4.7l1,3.2l1.4,7.3l0.2,9l-1.2,2.2l1.9,1.9l4.3-3.9l3.6-3.2
			l1.9-2.1l0.8,0.6l2.8-1.4l5.2-1.1L874.1,178.9L874.1,178.9L874.1,178.9z"/>
		<path id="wi" class="st2" d="M615.1,197.4l-0.1-3.2l-1.2-4.5l-0.7-6.1l-1.1-2.4l1-3.1l0.8-2.9l1.4-2.6l-0.6-3.4l-0.7-3.6l0.5-1.8
			l1.9-2.4l0.2-2.8l-0.8-1.3l0.6-2.6l-0.5-4.2l2.8-5.7l2.9-6.8l0.2-2.3l-0.3-1l-0.8,0.5l-4.2,6.3l-2.8,4l-1.9,1.8l-0.8,2.3l-2,0.8
			l-1.1,1.9l-1.5-0.3l-0.2-1.8l1.3-2.4l2.1-4.7l1.8-1.6l1-2.4l-2.6-1.9l-2-10.4l-3.5-1.3l-2-2.3l-12.1-2.7l-2.9-1l-8.2-2.2l-7.9-1.2
			l-3.8-5.1l-0.8,0.6l-1.2-0.2l-0.7-1.1l-1.3,0.3l-1.1,0.2l-1.8,1l-1-0.7l0.7-1.9l1.9-3.1l1.1-1.1l-1.9-1.4l-2.1,0.8l-2.9,1.9
			l-7.4,3.2l-2.9,0.7l-2.9-0.5l-1-0.9l-2.1,2.8l-0.2,2.7v8.5l-1.1,1.6l-5.3,3.9l-2.3,5.9l0.5,0.2l2.5,2.1l0.7,3.2l-1.8,3.2v3.9
			l0.5,6.6l3,3h3.4l1.8,3.2l3.4,0.5l3.9,5.7l7.1,4.1l2.1,2.7l0.9,7.4l0.7,3.3l2.3,1.6l0.2,1.4l-2.1,3.4l0.2,3.2l2.5,3.9l2.5,1.1
			l3,0.5l1.3,1.4L615.1,197.4L615.1,197.4L615.1,197.4z"/>
		<path id="nc" class="st3" d="M835,294.3l2.1,4.9l3.6,6.5l2.4,2.4l0.7,2.3l-2.4,0.2l0.8,0.6l-0.3,4.2l-2.6,1.3l-0.6,2.1l-1.3,2.9
			l-3.7,1.6l-2.4-0.3l-1.4-0.2l-1.6-1.3l0.3,1.3v1h1.9l0.8,1.3l-1.9,6.3h4.2l0.6,1.6l2.3-2.3l1.3-0.5l-1.9,3.6l-3.1,4.9h-1.3
			l-1.1-0.5l-2.8,0.6l-5.2,2.4l-6.5,5.3l-3.4,4.7l-1.9,6.5l-0.5,2.4l-4.7,0.5l-5.5,1.3l-10-8.2l-12.6-7.6l-2.9-0.8l-12.6,1.4
			l-4.3,0.8l-1.6-3.2l-3-2.1l-16.5,0.5l-7.3,0.8l-9,4.5l-6.1,2.6l-21.2,2.6l0.5-4l1.8-1.5l2.8-0.6l0.7-3.7l4.2-2.8l3.9-1.5l4.2-3.6
			l4.4-2.1l0.6-3.1l3.9-3.9l0.6-0.2l0.8,1.1l1.9,0.3l2.3-3.6l2.1-0.6l2.3,0.3l1.6-3.6l2.9-2.6l0.5-2.1l0.2-3.6l4.3,0l7.2-0.9
			l15.8-2.2l15.1-2.1l21.6-4.7l20-4.3l11.2-2.4L835,294.3L835,294.3L835,294.3z M839.2,327.5l2.6-2.5l3.2-2.6l1.5-0.6l0.2-2
			l-0.7-6.1l-1.5-2.3l-0.7-1.9l0.7-0.2l2.8,5.5l0.4,4.5l-0.2,3.4l-3.4,1.5l-2.8,2.4l-1.1,1.2L839.2,327.5L839.2,327.5L839.2,327.5z"
			/>
		<g id="dc">
			<path class="st3" d="M805.8,250.8L804,249l-1.2-0.7l1.4-2l2.9,1.9L805.8,250.8L805.8,250.8L805.8,250.8z"/>
			<path class="st4" d="M804.5,245c4.4-1,8.2,2.8,7.2,7.2c-0.5,2.2-2.3,4-4.5,4.5c-4.4,1-8.2-2.8-7.2-7.2
				C800.5,247.3,802.2,245.5,804.5,245z"/>
		</g>
		<path id="ma" class="st3" d="M899.6,173.2l2.2-0.7l0.5-1.7l1,0.1l1,2.3l-1.3,0.5l-3.9,0.1L899.6,173.2L899.6,173.2L899.6,173.2z
			 M890.2,174.1l2.3-2.6h1.6l1.8,1.5l-2.4,1l-2.2,1L890.2,174.1L890.2,174.1L890.2,174.1z M855.5,152.1l17.6-4.6l2.3-0.6l1.9-2.8
			l3.7-1.7l2.9,4.4l-2.4,5.2l-0.3,1.4l1.9,2.6l1.1-0.8h1.8l2.3,2.6l3.9,6l3.6,0.5l2.3-1l1.8-1.8l-0.8-2.8l-2.1-1.6l-1.5,0.8l-1-1.3
			l0.5-0.5l2.1-0.2l1.8,0.8l1.9,2.4l1,2.9l0.3,2.4l-4.2,1.4l-3.9,1.9l-3.9,4.5l-1.9,1.4v-1l2.4-1.4l0.5-1.8l-0.8-3.1l-2.9,1.4
			l-0.8,1.4l0.5,2.3l-2.1,1l-2.8-4.5l-3.4-4.4l-2.1-1.8l-6.5,1.9L865,165l-20.7,4.6l-0.7-4.8l0.6-10.6l4.3-0.9L855.5,152.1
			L855.5,152.1L855.5,152.1z"/>
		<path id="tn" class="st3" d="M696.7,318.2l-51.9,5L629,325l-4.6,0.5l-3.9,0l-0.2,4.1l-8.2,0.3l-7,0.6l-8.1-0.1l-1.4,7.1L594,343
			l-0.2,0.1l-2.9,9.3l-2.8,2.4l1.3,4l3.1,0.5l-1.8,1.2l-0.2,2.6l102-9.8l0.4-4l1.8-1.5l2.8-0.8l0.7-3.7l4.1-2.7l4-1.5l4.1-3.6l4.4-2
			l0.5-3.1l4.1-4l0.5-0.1l0.8,1.1l1.9,0.4l2.3-3.6l2.1-0.6l2.3,0.3l1.6-3.5l3-2.6l0.4-1.9l0.3-3.7l-2.1-0.2l-2.6,2l-7,0l-18.4,2.4
			L696.7,318.2L696.7,318.2L696.7,318.2z"/>
		<path id="ar" class="st3" d="M593.8,343l-4,0.7l-5.1-0.6l0.4-1.6l3-2.6l0.9-3.7l-1.8-3l-78.4,2.5l1.6,6.9v8.2l1.4,11l0.2,37.8
			l2.3,1.9l3-1.4l2.7,1.1l0.7,6.6l55.6-1.1l1.1-2.1l-0.3-3.5l-1.8-3l1.6-1.5l-1.6-2.5l0.7-2.5l1.4-5.6l2.5-2.1l-0.7-2.3l3.7-5.4
			l2.7-1.4l-0.1-1.5l-0.3-1.8l2.9-5.6l2.4-1.3l0.4-3.4l1.8-1.2l-3.1-0.5l-1.3-4l2.8-2.4l0.5-2l1.3-4L593.8,343L593.8,343L593.8,343z
			"/>
		<path id="mo" class="st3" d="M558.4,248.1l-2.5-3.1l-1.1-2.3l-64.4,2.4l-2.3,0.1l1.3,2.5l-0.2,2.3l2.5,3.9l3.1,4.1l3.1,2.7
			l2.2,0.2l1.5,0.9v3l-1.8,1.6l-0.5,2.3l2.1,3.4l2.5,3l2.5,1.8l1.4,11.7l0.3,36.1l0.2,4.7l0.5,5.4l22.4-0.9l23.2-0.7l20.8-0.8
			l11.6-0.2l2.2,3.4l-0.7,3.3l-3.1,2.4l-0.6,1.8l5.4,0.5l3.9-0.7l1.7-5.5l0.7-5.9l2.1-2.6l2.6-1.5l0.1-3l1-1.9l-1.7-2.5l-1.3,1
			l-2-2.2l-1.3-4.8l0.8-2.5l-1.9-3.4l-1.8-4.6l-4.8-0.8l-7-5.6l-1.7-4.1l0.8-3.2l2.1-6.1l0.5-2.9l-2-1l-6.9-0.8l-1-1.7l-0.1-4.2
			l-5.5-3.4l-7-7.8l-2.3-7.3l-0.2-4.2L558.4,248.1L558.4,248.1L558.4,248.1z"/>
		<path id="ga" class="st3" d="M672.3,355.5v2.2l0.2,2.1l0.6,3.4l3.4,7.9l2.4,9.9l1.5,6.1l1.6,4.9l1.4,6.9l2.1,6.3l2.6,3.4l0.5,3.4
			l1.9,0.8l0.2,2.1l-1.8,4.9l-0.5,3.2l-0.2,1.9l1.6,4.4l0.3,5.3l-0.8,2.4l0.6,0.8l1.5,0.8l0.2,3.2l2.2,3.4l2.2,2.2l7.9,0.2l10.8-0.6
			l21.5-1.3l5.4-0.7l4.6,0l0.2,2.9l2.6,0.8l0.3-4.4l-1.6-4.5l1.1-1.6l5.8,0.8l5,0.3l-0.8-6.3l2.3-10l1.5-4.2l-0.5-2.6l3.3-6.2
			l-0.5-1.4l-1.9,0.7l-2.6-1.3l-0.7-2.1l-1.3-3.6l-2.3-2.1l-2.6-0.6l-1.6-4.9l-2.9-6.3l-4.2-1.9l-2.1-1.9l-1.3-2.6l-2.1-1.9
			l-2.3-1.3l-2.3-2.9l-3.1-2.3l-4.5-1.8l-0.5-1.5l-2.4-2.9l-0.5-1.4l-3.4-5l-3.5,0.1l-3.8-2.4l-1.4-1.3l-0.3-1.8l0.9-1.9l2.2-1.1
			l-0.6-2.1L672.3,355.5L672.3,355.5L672.3,355.5z"/>
		<path id="sc" class="st3" d="M764.9,408.2l-1.8,1l-2.6-1.3l-0.7-2.1l-1.3-3.6l-2.3-2.1l-2.6-0.6l-1.6-4.9l-2.8-6l-4.2-1.9
			l-2.1-1.9l-1.3-2.6l-2.1-1.9l-2.3-1.3l-2.3-2.9l-3.1-2.3l-4.5-1.8l-0.5-1.5l-2.4-2.9l-0.5-1.4l-3.4-5.2l-3.4,0.2l-4-2.4l-1.3-1.3
			l-0.3-1.8l0.8-1.9l2.3-1l-0.5-2.3l5.8-2.3l9.1-4.6l7.8-0.8l16.1-0.4l2.6,1.9l1.7,3.4l4.3-0.6l12.6-1.5l2.9,0.8l12.6,7.6L800,362
			l-5.4,5.5l-2.6,6.1l-0.5,6.3l-1.6,0.8l-1.1,2.8l-2.4,0.6l-2.1,3.6l-2.8,2.8l-2.3,3.4l-1.6,0.8L774,398l-2.9,0.2l1,3.2l-5,5.5
			L764.9,408.2L764.9,408.2L764.9,408.2z"/>
		<path id="ky" class="st3" d="M726,295.3l-2.3,2.4l-3.6,4l-4.9,5.5l-1.2,1.7l-0.1,2.1l-4.4,2.2l-5.7,3.4l-7.2,1.8l-51.9,4.9
			L629,325l-4.6,0.5l-3.9,0l-0.2,4.2l-8.2,0.1l-7,0.6l-8-0.1l1.2-1.3l2.5-1.5l0.2-3.2l0.9-1.8l-1.6-2.5l0.8-1.9l2.3-1.8l2.1-0.6
			l2.8,1.3l3.6,1.3l1.1-0.3l0.2-2.3l-1.3-2.4l0.3-2.3l1.9-1.5l2.6-0.6l1.6-0.6l-0.8-1.8l-0.6-1.9l1.5-1l1.2-3.7l3-1.5l5.3-1l4.5-0.5
			l1.4,1.6l1.5,0.9l1.6-3.1l3.2-1.3l2.2,1.5l0.4,1l1.2-0.3l-0.2-3l3.1-1.8l2.2-1.1l1.5,1.7l3.3,0l0.6-1.6l-0.4-2.3l2.6-4l4.8-3.4
			l0.7-4.8l2.9-0.5l3.8-1.6l2.4-1.7l-0.2-1.6l-1.1-1.5l0.6-3l4.2-0.1l2.3-0.8l3.3,1.4l2,4.4l5.1,0l2.1,2.2l1.6-0.1l2.6-1.3l5.2,0.6
			l2.6,0.2l1.7-2.1l2.6-1.4l1.9-0.7l0.7,2.8l2,1.1l2.6,2.1l0.1,5.7l0.8,1.6l2.6,1.6l0.8,2.3l4.2,3.4l1.8,3.6L726,295.3L726,295.3
			L726,295.3z"/>
		<path id="al" class="st3" d="M631.3,460.4l-1.5-14.3l-2.8-18.8l0.2-14.1l0.8-31l-0.2-16.6l0.2-6.4l44.5-3.6l-0.2,2.2l0.2,2.1
			l0.6,3.4l3.4,7.9l2.4,9.9l1.5,6.1l1.6,4.9l1.4,7l2.1,6.3l2.6,3.4l0.5,3.4l1.9,0.8l0.2,2.1l-1.8,4.9l-0.5,3.2l-0.2,1.9l1.6,4.4
			l0.3,5.3l-0.8,2.4l0.7,0.8l1.4,0.8l0.3,2.9l-5.6-0.4l-6.8,0.6l-25.5,2.9l-10.4,1.4l-0.2,2.9l1.8,1.8l2.6,1.9l0.6,7.9l-5.5,2.6
			L640,463l2.8-1.9v-1l-3.1-6l-2.3-0.6l-1.5,4.4l-1.3,2.8l-0.6-0.2L631.3,460.4L631.3,460.4L631.3,460.4z"/>
		<path id="la" class="st3" d="M608,459.2l-3.3-3.2l1-5.5l-0.7-0.9l-9.3,1l-25,0.5l-0.7-2.4l0.9-8.5l3.3-6l5-8.7l-0.6-2.4l1.3-0.7
			l0.5-2l-2.3-2.1l-0.1-1.9l-1.8-4.4l-0.2-6.3l-55.5,0.9l0,9.6l0.7,9.4l0.7,3.9l2.5,4.1l0.9,5l4.3,5.5l0.2,3.2l0.7,0.7l-0.7,8.5
			l-3,5l1.6,2.1l-0.7,2.5l-0.7,7.3l-1.4,3.2l0.1,3.6l4.7-1.5l12.1,0.2l10.3,3.6l6.5,1.1l3.7-1.5l3.2,1.1l3.2,1l0.8-2.1l-3.2-1.1
			l-2.6,0.5l-2.8-1.6l0.8-1.5l3.1-1l1.8,1.5l1.8-1l3.2,0.6l1.4,2.4l0.3,2.3l4.5,0.3l1.8,1.8l-0.8,1.6l-1.3,0.8l1.6,1.6l8.4,3.6
			l3.6-1.3l1-2.4l2.6-0.6l1.8-1.5l1.3,1l0.8,2.9l-2.3,0.8l0.6,0.6l3.4-1.3l2.3-3.4l0.8-0.5l-2.1-0.3l0.8-1.6l-0.2-1.5l2.1-0.5
			l1.1-1.3l0.7,0.8l0.6,3.1l4.2,0.6l4,1.9l1,1.4h2.9l1.1,1l2.3-3.1v-1.5h-1.3l-3.4-2.8l-5.8-0.8l-3.2-2.3l1.1-2.8l2.3,0.3l0.2-0.6
			l-1.8-1v-0.5h3.2l1.8-3.1l-1.3-1.9l-0.3-2.8l-1.5,0.2l-1.9,2.1l-0.7,2.6l-3.1-0.6l-1-1.8l1.8-1.9l1.9-3.5l-1.1-2.4L608,459.2
			L608,459.2L608,459.2z"/>
		<path id="ms" class="st3" d="M631.6,459.3l-0.2,1.3h-5.2l-1.4-0.8l-2.1-0.3l-6.8,1.9l-1.8-0.8l-2.6,4.2l-1.1,0.8l-1.1-2.5
			l-1.1-3.9l-3.4-3.2l1.1-5.5l-0.7-0.9l-1.8,0.2l-7.9,0.9l-24.5,0.4l-0.8-2.2l0.9-8.4l3.1-5.7l5.2-9.1l-0.5-2.4l1.2-0.7l0.4-1.9
			l-2.3-2.1l-0.1-2.1l-1.8-4.1l-0.1-6l1.3-2.5l-0.2-3.4l-1.8-3.1l1.5-1.5l-1.6-2.5l0.5-1.6l1.6-6.5l2.5-2l-0.6-2.4l3.7-5.3l2.8-1.4
			l-0.2-1.7l-0.3-1.7l2.9-5.6l2.4-1.2l0.1-0.9l37.3-3.9l0.2,6.3l0.2,16.6l-0.8,31l-0.2,14.1l2.8,18.8L631.6,459.3L631.6,459.3
			L631.6,459.3z"/>
		<path id="ia" class="st3" d="M569.2,199.6l0.3,2.8l2.2,0.6l1,1.2l0.5,1.9l3.8,3.4l0.7,2.4l-0.7,3.4l-1.6,3.2l-0.8,2.7l-2.2,1.6
			l-1.7,0.6l-5.6,1.9l-1.4,3.9l0.7,1.4l1.8,1.7l-0.3,4l-1.8,1.5l-0.8,1.6l0.1,2.8l-1.9,0.5l-1.6,1.1l-0.3,1.4l0.3,2.1l-1.5,1.1
			l-2.5-3.1l-1.3-2.4l-65.7,2.5l-0.9,0.2l-2-4.5l-0.2-6.6l-1.6-4.1l-0.7-5.3l-2.3-3.7l-0.9-4.8l-2.7-7.5l-1.1-5.4l-1.4-2.2l-1.6-2.7
			l2-4.8l1.4-5.7l-2.7-2.1l-0.5-2.7l0.9-2.5h1.7l82.6-1.3l0.8,4.2l2.2,1.6l0.3,1.4l-2,3.4l0.2,3.2l2.5,3.8l2.5,1.3l3.1,0.5
			L569.2,199.6L569.2,199.6L569.2,199.6z"/>
		<path id="mn" class="st3" d="M475.2,128.8l-0.5-8.5L473,113l-1.8-13.5l-0.5-9.8l-1.8-3.4l-1.6-5V71l0.7-3.9l-1.8-5.5l30.1,0
			l0.3-8.2l0.6-0.2l2.3,0.5l1.9,0.8l0.8,5.5l1.5,6.1l1.6,1.6h4.9l0.3,1.4l6.3,0.3v2.1h4.8l0.3-1.3l1.1-1.1l2.3-0.7l1.3,1h2.9
			l3.9,2.6l5.3,2.4l2.4,0.5l0.5-1l1.5-0.5l0.5,2.9l2.6,1.3l0.5-0.5l1.3,0.2v2.1l2.6,1h3.1l1.6-0.8l3.2-3.2l2.6-0.5l0.8,1.8l0.5,1.3
			h1l1-0.8l8.9-0.3l1.8,3.1h0.6l0.7-1.1l4.4-0.4l-0.6,2.3l-3.9,1.8l-9.2,4.1l-4.8,2l-3.1,2.6l-2.4,3.6l-2.3,3.9l-1.8,0.8l-4.5,5
			l-1.3,0.2l-4.3,2.8l-2.5,3.2l-0.2,3.2l0.1,8l-1.4,1.7l-5.1,3.8l-2.2,6l2.9,2.2l0.7,3.2l-1.9,3.2l0.2,3.8l0.4,6.7l3,3h3.3l1.9,3.1
			l3.4,0.5l3.9,5.7l7.1,4.1l2.1,2.9l0.7,6.4l-81.2,1.1l-0.3-35.7l-0.5-3l-4.1-3.4l-1.1-1.8V135l2.1-1.6l1.4-1.4L475.2,128.8
			L475.2,128.8L475.2,128.8z"/>
		<path id="ok" class="st3" d="M380.3,320.8l-16.7-1.3l-0.9,11l20.5,1.2l32.1,1.3l-2.3,24.4l-0.5,17.8l0.2,1.6l4.3,3.7l2.1,1.1
			l0.7-0.2l0.7-2.1l1.4,1.8h2.1v-1.4l2.7,1.4l-0.5,3.9l4.1,0.2l2.5,1.1l4.1,0.7l2.5,1.8l2.3-2.1l3.4,0.7l2.5,3.4h0.9v2.3l2.3,0.7
			l2.3-2.3l1.8,0.7h2.5l0.9,2.5l6.3,2.1l1.4-0.7l1.8-4.1h1.1l1.1,2.1l4.1,0.7l3.7,1.4l3,0.9l1.8-0.9l0.7-2.5h4.3l2.1,0.9l2.7-2.1
			h1.1l0.7,1.6h4.1l1.6-2.1l1.8,0.5l2.1,2.5l3.2,1.8l3.2,0.9l1.9,1.1l-0.4-37.2l-1.4-11l-0.2-8.9l-1.4-6.5l-0.8-7.2l-0.1-3.8
			l-12.1,0.3l-46.4-0.5l-45-2.1L380.3,320.8L380.3,320.8L380.3,320.8z"/>
		<path id="tx" class="st2" d="M361.5,330.6l22.7,1.1l31.1,1.1l-2.3,23.5l-0.3,18.1l0.1,2.1l4.3,3.8l2,1.4l1.2-0.6l0.4-1.8l1.1,1.8
			l2.1,0v-1.5l1.7,1l1.1,0.4l-0.4,4l4.1,0.1l2.9,1.2l4,0.5l2.4,2.1l2.1-2.1l3.7,0.6l2.2,3.2l1.1,0.3l-0.2,2l2.2,0.8l2.3-2l2.1,0.6
			l2.2,0l0.9,2.4l6.3,2.1l1.6-0.8l1.5-4.2h0.3l0.9,0.1l1.2,2.1l3.9,0.7l3.3,1.1l3.4,1.2l1.8-1l0.7-2.5l4.5,0l1.8,0.9l2.8-2.1l1.1,0
			l0.9,1.6h4.1l1.5-2l1.9,0.4l2,2.4l3.5,2l2.9,0.8l1.5,0.8l2.5,2l3-1.3l2.7,1.1l0.6,6.1l0,9.7l0.7,9.5l0.7,3.6l2.7,4.4l0.9,5
			l4.2,5.5l0.2,3.1l0.8,0.8l-0.7,8.4l-2.9,5l1.5,2.1l-0.6,2.3l-0.7,7.4l-1.5,3.3l0.3,3.5l-5.7,1.6l-9.9,4.5l-1,1.9l-2.6,1.9
			l-2.1,1.5l-1.3,0.8l-5.7,5.3l-2.8,2.1l-5.3,3.2l-5.7,2.4l-6.3,3.4l-1.8,1.5l-5.8,3.6l-3.4,0.6l-3.9,5.5l-4,0.3l-1,1.9l2.3,1.9
			l-1.5,5.5l-1.3,4.5l-1.1,3.9l-0.8,4.5l0.8,2.4l1.8,7l1,6.1l1.8,2.8l-1,1.5l-3.1,1.9l-5.7-3.9l-5.5-1.1l-1.3,0.5l-3.2-0.6l-4.2-3.1
			l-5.2-1.1l-7.6-3.4l-2.1-3.9l-1.3-6.5l-3.2-1.9l-0.6-2.3l0.6-0.6l0.3-3.4l-1.3-0.6l-0.6-1l1.3-4.4l-1.6-2.3l-3.2-1.3l-3.4-4.4
			l-3.6-6.6l-4.2-2.6l0.2-1.9l-5.3-12.3l-0.8-4.2l-1.8-1.9l-0.2-1.5l-6-5.3l-2.6-3.1v-1.1l-2.6-2.1l-6.8-1.1l-7.4-0.6l-3.1-2.3
			l-4.5,1.8l-3.6,1.4l-2.3,3.2l-1,3.7l-4.4,6.1l-2.4,2.4l-2.6-1l-1.8-1.1l-1.9-0.6l-3.9-2.3v-0.6l-1.8-1.9l-5.2-2.1l-7.4-7.8
			l-2.3-4.7v-8.1l-3.2-6.5l-0.5-2.8l-1.6-1l-1.1-2.1l-5-2.1l-1.3-1.6l-7.1-7.9l-1.3-3.2l-4.7-2.3l-1.5-4.4l-2.6-2.9l-1.9-0.5
			l-0.6-4.7l8,0.7l29,2.7l29,1.6l2.2-19.5l3.9-55.6l1.6-18.8l1.4,0 M461.7,560.2l-0.6-7.1l-2.8-7.2l-0.6-7l1.5-8.2l3.3-6.9l3.5-5.4
			l3.1-3.6l0.6,0.2l-4.8,6.6l-4.4,6.5l-2,6.6l-0.3,5.2l0.9,6.1l2.6,7.2l0.5,5.2l0.2,1.5L461.7,560.2L461.7,560.2L461.7,560.2z"/>
		<path id="nm" class="st3" d="M288.1,424l-0.8-4.8l8.6,0.5l30.2,3l27.3,1.7l2.2-18.7l3.9-55.9l1.7-19.4l1.6,0.1l0.8-11.2l-104-10.6
			l-17.5,120.4l15.5,2l1.3-10L288.1,424L288.1,424L288.1,424z"/>
		<path id="ks" class="st3" d="M507.9,324.4l-12.6,0.2l-46.1-0.5l-44.6-2.1l-24.6-1.3l3.9-64.6l22.1,0.7l40.3,0.8l44.3,1h5.1
			l2.2,2.2l2,0l1.6,1l-0.1,3l-1.8,1.7l-0.3,2.2l1.8,3.4l3,3.2l2.3,1.6l1.3,11.2L507.9,324.4L507.9,324.4L507.9,324.4z"/>
		<path id="ne" class="st3" d="M486.1,240.7l3.2,7l-0.1,2.3l3.5,5.5l2.7,3.1h-5l-43.5-0.9l-40.8-0.9l-22.2-0.8l1.1-21.3l-32.3-2.9
			l4.3-44l15.5,1l20.1,1.1l17.8,1.1l23.8,1.1l10.8-0.5l2.1,2.3l4.8,3l1.1,0.9l4.3-1.4l3.9-0.5l2.7-0.2l1.8,1.4l4.1,1.6l3,1.6
			l0.5,1.6l0.9,2.1h1.8l0.8,0.1l0.9,4.7l2.9,8.5l0.6,3.8l2.5,3.8l0.6,5.1l1.6,4.2L486.1,240.7L486.1,240.7L486.1,240.7z"/>
		<path id="sd" class="st3" d="M476.5,204l0-0.6l-2.9-4.9l1.9-4.7l1.5-5.9l-2.8-2.1l-0.4-2.7l0.8-2.6l3.2,0l-0.1-5l-0.3-30.2
			l-0.6-3.8l-4.1-3.3l-1-1.7l-0.1-1.6l2-1.5l1.5-1.7l0.2-2.7l-58.3-1.6l-54.8-3.4l-5.3,63.7l14.6,0.9l20,1.2l17.7,0.9l23.8,1.3
			l12-0.4l2,2.2l5.2,3.2l0.8,0.7l4.5-1.4l6.5-0.6l1.7,1.3l4.2,1.6l3,1.6l0.4,1.5l1,2.2L476.5,204L476.5,204L476.5,204z"/>
		<path id="nd" class="st3" d="M475.3,128.9l-0.6-8.4l-1.7-6.8l-1.9-13l-0.5-11l-1.7-3.1l-1.8-5.2l0-10.4l0.6-3.8l-1.8-5.5
			l-28.6-0.6l-18.6-0.7l-26.5-1.3l-23-2.1l-7,67.2l54.9,3.3L475.3,128.9L475.3,128.9L475.3,128.9z"/>
		<path id="wy" class="st3" d="M360.4,143.3l-106.7-13.5l-14.1,88.5l113.3,13.6L360.4,143.3L360.4,143.3z"/>
		<path id="mt" class="st3" d="M369.2,57l-30.7-2.8l-29.3-3.6l-29.3-4l-32.3-5.3l-18.4-3.4l-32.7-6.9l-4.5,21.3l3.4,7.5l-1.4,4.6
			l1.8,4.6l3.2,1.4l4.6,10.8l2.7,3.2l0.5,1.1l3.4,1.1l0.5,2.1l-7.1,17.6v2.5l2.5,3.2h0.9l4.8-3l0.7-1.1l1.6,0.7l-0.2,5.3l2.7,12.6
			l3,2.5l0.9,0.7l1.8,2.3l-0.5,3.4l0.7,3.4l1.1,0.9l2.3-2.3h2.7l3.2,1.6l2.5-0.9h4.1l3.7,1.6l2.7-0.5l0.5-3l3-0.7l1.4,1.4l0.5,3.2
			l1.4,0.8l1.9-11l106.8,13.4L369.2,57L369.2,57L369.2,57z"/>
		<path id="co" class="st3" d="M380,321l4.9-86.3L271.5,222l-12.2,87.9L380,321L380,321z"/>
		<path id="id" class="st3" d="M148.5,176.5l8.8-35.2l1.4-4.2l2.5-5.9l-1.3-2.3l-2.5,0.1l-0.8-1l0.5-1.1l0.3-3.1l4.5-5.5l1.8-0.5
			l1.1-1.1l0.6-3.2l0.9-0.7l3.9-5.8l3.9-4.3l0.2-3.8l-3.4-2.6l-1.5-4.4l13.6-63.3l13.5,2.5L192,52.3l3.6,7.5l-1.6,4.7l2,4.6l3.1,1.3
			l3.8,9.6l3.5,4.4l0.5,1.1l3.3,1.1l0.4,2.1l-7,17.4l-0.2,2.6l2.6,3.3l0.9-0.1l4.9-3l0.7-1.1l1.6,0.7l-0.3,5.3l2.7,12.6l3.9,3.2
			l1.7,2.2l-0.7,4.1l1.1,2.8l1.1,1.1l2.5-2.4l2.9,0.1l2.9,1.3l2.8-0.7l3.8-0.2l4,1.6l2.7-0.3l0.5-3l2.9-0.8l1.3,1.5l0.4,2.9l1.4,1.2
			l-8.4,53.6L148.5,176.5L148.5,176.5L148.5,176.5z"/>
		<path id="ut" class="st3" d="M259.5,310.1l-83.8-11.9l20.6-112.5l46.8,8.8l-1.5,10.6l-2.3,13.2l7.8,0.9l16.4,1.8l8.2,0.9
			L259.5,310.1L259.5,310.1z"/>
		<path id="az" class="st3" d="M144.9,382.6l-2.6,2.2l-0.3,1.5l0.5,1l18.9,10.7l12.1,7.6l14.7,8.6l16.8,10l12.3,2.4l24.9,2.7
			l17.3-119.1l-83.7-11.9l-3.1,16.4l-1.6,0l-1.7,2.6l-2.5-0.1l-1.3-2.7l-2.7-0.3l-0.9-1.1H161l-0.9,0.6l-1.9,1l-0.1,7l-0.2,1.7
			l-0.6,12.6l-1.5,2.2l-0.6,3.3l2.7,4.9l1.3,5.8l0.8,1l1,0.6l-0.1,2.3l-1.6,1.4l-3.4,1.7l-1.9,1.9l-1.5,3.7l-0.6,4.9l-2.9,2.7
			l-2.1,0.7l0.1,0.8l-0.5,1.7l0.5,0.8l3.7,0.6l-0.6,2.7l-1.5,2.2L144.9,382.6L144.9,382.6L144.9,382.6z"/>
		<path id="nv" class="st2" d="M196.4,185.6l-23.6,128.8l-1.8,0.4l-1.6,2.4l-2.4,0l-1.5-2.7l-2.6-0.4l-0.8-1.1l-1,0l-2.8,1.6
			l-0.3,6.8l-0.4,5.8l-0.4,8.6l-1.4,2.1l-2.4-1.1L84.3,232.5l19-67.6L196.4,185.6L196.4,185.6L196.4,185.6z"/>
		<path id="or" class="st3" d="M148.7,175.5l8.9-34.8l1.1-4.2l2.4-5.6l-0.6-1.2l-2.5-0.1l-1.3-1.7l0.5-1.5l0.5-3.2l4.5-5.5l1.8-1.1
			l1.1-1.1l1.5-3.6l4.1-5.7l3.6-3.9l0.2-3.4l-3.3-2.5l-1.8-4.6l-12.7-3.6l-15.1-3.5l-15.4,0.1l-0.5-1.4l-5.5,2.1l-4.5-0.6l-2.4-1.6
			l-1.3,0.7l-4.7-0.2l-1.7-1.4l-5.3-2.1l-0.8,0.1L95.2,79l-1.9,1.8l-6.2-0.3l-5.9-4.1l0.7-0.8l0.2-7.8l-2.3-3.9l-4.1-0.6L75,60.9
			l-2.3-0.5l-5.8,2.1l-2.3,6.5l-3.3,10l-3.2,6.5l-5,14.1L46.6,113l-8.1,12.6l-1.9,2.9l-0.8,8.6l0.4,12.1L148.7,175.5L148.7,175.5
			L148.7,175.5z"/>
		<path id="wa" class="st3" d="M102.1,7.6l4.4,1.5l9.7,2.8l8.6,1.9l20.1,5.7l23,5.7l15.2,3.2l-13.6,63.6l-12.4-3.5l-15.5-3.6
			l-15.2,0l-0.5-1.3l-5.6,2.2l-4.6-0.7l-2.2-1.6L112,84l-4.7-0.1l-1.7-1.3l-5.3-2.1l-0.7,0.2L95.2,79l-1.9,1.8L87,80.5l-5.9-4.1
			l0.8-0.9l0.1-7.7l-2.3-3.8l-4.1-0.6l-0.7-2.5l-2.3-0.5l-3.6,1.2l-2.3-3.2l0.3-2.9l2.8-0.3l1.6-4L68.9,50l0.2-3.7l4.4-0.7l-2.8-2.8
			l-1.4-7.1l0.7-2.9v-7.9l-1.8-3.2l2.3-9.4l2.1,0.5l2.4,2.9l2.8,2.6l3.2,1.9l4.5,2.1l3.1,0.6l2.9,1.5l3.4,1l2.3-0.2v-2.4l1.3-1.1
			l2.1-1.3l0.3,1.1l0.3,1.8l-2.3,0.5l-0.3,2.1l1.8,1.5l1.1,2.4l0.7,1.9l1.4-0.2l0.2-1.3l-1-1.3l-0.5-3.2l0.8-1.8l-0.7-1.5v-2.3
			l1.8-3.6l-1.1-2.6l-2.4-4.9l0.3-0.8L102.1,7.6L102.1,7.6L102.1,7.6z M92.6,13.6l2-0.2l0.5,1.4l1.5-1.6H99l0.8,1.5l-1.5,1.7
			l0.7,0.8l-0.7,2l-1.4,0.4l-0.9-0.2l1.4-2.6l-1.7-0.6l-0.3,1.5l-0.7,0.6l-1.5-2.2L92.6,13.6L92.6,13.6z"/>
		<g id="ca">
			<path class="st2" d="M144.7,382.2l3.9-0.5l1.5-2l0.5-2.9l-3.6-0.6l-0.5-0.7l0.5-2l-0.2-0.6l1.9-0.6l3-2.8l0.6-5l1.4-3.4l1.9-2.2
				l3.5-1.6l1.6-1.6l0.1-2.1l-1-0.6l-1-1.1l-1.2-5.9l-2.7-4.8l0.6-3.5l-2.4-1l-69-104.2l18.9-67.6l-67.1-15.7l-1.5,4.7l-0.2,7.4
				l-5.2,11.8l-3.1,2.6l-0.3,1.1l-1.8,0.8l-1.5,4.2l-0.8,3.2l2.8,4.2l1.6,4.2l1.1,3.6l-0.3,6.5l-1.8,3.1l-0.6,5.8l-1,3.7l1.8,3.9
				l2.8,4.5l2.3,4.9l1.3,4l-0.3,3.2l-0.3,0.5v2.1l5.7,6.3l-0.5,2.4l-0.7,2.3l-0.7,1.9l0.2,8.2l2.1,3.7l1.9,2.6l2.8,0.5l1,2.8
				l-1.1,3.6l-2.1,1.6h-1.1l-0.8,3.9l0.5,2.9l3.2,4.4l1.6,5.3l1.5,4.7l1.3,3.1l3.4,5.8l1.5,2.6l0.5,2.9l1.6,1v2.4l-0.8,1.9l-1.8,7.1
				l-0.5,1.9l2.4,2.8l4.2,0.5l4.5,1.8l3.9,2.1h2.9l2.9,3.1l2.6,4.9l1.1,2.3l3.9,2.1l4.8,0.8l1.4,2.1l0.7,3.2l-1.4,0.6l0.3,1l3.2,0.8
				l2.8,0.2l3.2-1.7l3.9,4.2l0.8,2.3l2.6,4.2l0.3,3.2v9.4l0.5,1.8l10,1.5l19.7,2.8L144.7,382.2L144.7,382.2L144.7,382.2z
				 M56.6,338.5l1.3,1.5l-0.2,1.3l-3.2-0.1l-0.6-1.2l-0.7-1.4L56.6,338.5L56.6,338.5L56.6,338.5z M58.5,338.5l1.2-0.6l3.6,2.1
				l3.1,1.2l-0.9,0.6l-4.5-0.2l-1.6-1.6L58.5,338.5L58.5,338.5L58.5,338.5z M79.2,358.3l1.8,2.3l0.8,1l1.5,0.6l0.6-1.5l-1-1.8
				l-2.7-2l-1.1,0.2L79.2,358.3L79.2,358.3L79.2,358.3z M77.7,366.9l1.8,3.1l1.2,1.9l-1.4,0.2L78,371l-0.7-1.9V367L77.7,366.9
				L77.7,366.9L77.7,366.9z"/>
		</g>
	</g>
</g>
<g id="markers">
	<g id="vegas">
		<path class="st5" d="M152.5,297.1c-5.4,0-9.8,4.4-9.8,9.8c0,5.4,4.4,9.8,9.8,9.8c5.4,0,9.8-4.4,9.8-9.8
			C162.3,301.5,157.9,297.1,152.5,297.1z M153.9,310.3c0,0.8-0.3,1.4-0.8,1.9c-0.5,0.5-1.2,0.8-1.9,0.8c-0.4,0-0.8,0-1.1-0.1
			l0.2-1.6c0.2,0,0.4,0.1,0.5,0.1c0.1,0,0.2,0,0.4,0c0.3,0,0.5-0.1,0.7-0.3c0.2-0.2,0.3-0.4,0.3-0.7v-8.9h1.7V310.3z"/>
	</g>
	<g id="reno">
		<path class="st5" d="M102.2,225c-5.4,0-9.8,4.4-9.8,9.8c0,5.4,4.4,9.8,9.8,9.8c5.4,0,9.8-4.4,9.8-9.8
			C112,229.4,107.6,225,102.2,225z M103.6,238.2c0,0.8-0.3,1.4-0.8,1.9c-0.5,0.5-1.2,0.8-1.9,0.8c-0.4,0-0.8,0-1.1-0.1l0.2-1.6
			c0.2,0,0.4,0.1,0.5,0.1c0.1,0,0.2,0,0.4,0c0.3,0,0.5-0.1,0.7-0.3c0.2-0.2,0.3-0.4,0.3-0.7v-8.9h1.7V238.2z"/>
	</g>
	<g id="san_x5F_diego">
		<path class="st5" d="M74,307.4c-5.4,0-9.8,4.4-9.8,9.8c0,5.4,4.4,9.8,9.8,9.8c5.4,0,9.8-4.4,9.8-9.8
			C83.7,311.8,79.4,307.4,74,307.4z M75.4,320.6c0,0.8-0.3,1.4-0.8,1.9c-0.5,0.5-1.2,0.8-1.9,0.8c-0.4,0-0.8,0-1.1-0.1l0.2-1.6
			c0.2,0,0.4,0.1,0.5,0.1c0.1,0,0.2,0,0.4,0c0.3,0,0.5-0.1,0.7-0.3c0.2-0.2,0.3-0.4,0.3-0.7v-8.9h1.7V320.6z"/>
	</g>
	<g id="los_x5F_angeles">
		<path class="st5" d="M109.6,352.3c-5.4,0-9.8,4.4-9.8,9.8c0,5.4,4.4,9.8,9.8,9.8c5.4,0,9.8-4.4,9.8-9.8
			C119.3,356.6,114.9,352.3,109.6,352.3z M111,365.4c0,0.8-0.3,1.4-0.8,1.9c-0.5,0.5-1.2,0.8-1.9,0.8c-0.4,0-0.8,0-1.1-0.1l0.2-1.6
			c0.2,0,0.4,0.1,0.5,0.1c0.1,0,0.2,0,0.4,0c0.3,0,0.5-0.1,0.7-0.3c0.2-0.2,0.3-0.4,0.3-0.7v-8.9h1.7V365.4z"/>
	</g>
	<g id="tijuana">
		<path class="st5" d="M124.9,360.2c-5.4,0-9.8,4.4-9.8,9.8c0,5.4,4.4,9.8,9.8,9.8c5.4,0,9.8-4.4,9.8-9.8
			C134.6,364.6,130.3,360.2,124.9,360.2z M126.3,373.4c0,0.8-0.3,1.4-0.8,1.9c-0.5,0.5-1.2,0.8-1.9,0.8c-0.4,0-0.8,0-1.1-0.1
			l0.2-1.6c0.2,0,0.4,0.1,0.5,0.1c0.1,0,0.2,0,0.4,0c0.3,0,0.5-0.1,0.7-0.3c0.2-0.2,0.3-0.4,0.3-0.7v-8.9h1.7V373.4z"/>
	</g>
	<g id="green_x5F_bay">
		<path class="st5" d="M597.7,149.3c-5.4,0-9.8,4.4-9.8,9.8c0,5.4,4.4,9.8,9.8,9.8c5.4,0,9.8-4.4,9.8-9.8
			C607.5,153.7,603.1,149.3,597.7,149.3z M599.2,162.5c0,0.8-0.3,1.4-0.8,1.9c-0.5,0.5-1.2,0.8-1.9,0.8c-0.4,0-0.8,0-1.1-0.1
			l0.2-1.6c0.2,0,0.4,0.1,0.5,0.1c0.1,0,0.2,0,0.4,0c0.3,0,0.5-0.1,0.7-0.3c0.2-0.2,0.3-0.4,0.3-0.7v-8.9h1.7V162.5z"/>
	</g>
	<g id="chicago">
		<path class="st5" d="M609.2,206c-5.4,0-9.8,4.4-9.8,9.8c0,5.4,4.4,9.8,9.8,9.8c5.4,0,9.8-4.4,9.8-9.8
			C619,210.4,614.6,206,609.2,206z M610.6,219.2c0,0.8-0.3,1.4-0.8,1.9c-0.5,0.5-1.2,0.8-1.9,0.8c-0.4,0-0.8,0-1.1-0.1l0.2-1.6
			c0.2,0,0.4,0.1,0.5,0.1c0.1,0,0.2,0,0.4,0c0.3,0,0.5-0.1,0.7-0.3c0.2-0.2,0.3-0.4,0.3-0.7v-8.9h1.7V219.2z"/>
	</g>
	<g id="jaurez">
		<path class="st5" d="M281.8,402.6c-5.4,0-9.8,4.4-9.8,9.8c0,5.4,4.4,9.8,9.8,9.8c5.4,0,9.8-4.4,9.8-9.8
			C291.5,407,287.2,402.6,281.8,402.6z M283.2,415.8c0,0.8-0.3,1.4-0.8,1.9c-0.5,0.5-1.2,0.8-1.9,0.8c-0.4,0-0.8,0-1.1-0.1l0.2-1.6
			c0.2,0,0.4,0.1,0.5,0.1c0.1,0,0.2,0,0.4,0c0.3,0,0.5-0.1,0.7-0.3c0.2-0.2,0.3-0.4,0.3-0.7v-8.9h1.7V415.8z"/>
	</g>
	<g id="san_x5F_antonio">
		<path class="st5" d="M433.9,470.8c-5.4,0-9.8,4.4-9.8,9.8c0,5.4,4.4,9.8,9.8,9.8c5.4,0,9.8-4.4,9.8-9.8
			C443.7,475.1,439.3,470.8,433.9,470.8z M435.4,484c0,0.8-0.3,1.4-0.8,1.9c-0.5,0.5-1.2,0.8-1.9,0.8c-0.4,0-0.8,0-1.1-0.1l0.2-1.6
			c0.2,0,0.4,0.1,0.5,0.1c0.1,0,0.2,0,0.4,0c0.3,0,0.5-0.1,0.7-0.3c0.2-0.2,0.3-0.4,0.3-0.7v-8.9h1.7V484z"/>
	</g>
	<g id="tampa">
		<path class="st5" d="M766.1,497.9c-5.4,0-9.8,4.4-9.8,9.8c0,5.4,4.4,9.8,9.8,9.8c5.4,0,9.8-4.4,9.8-9.8
			C775.8,502.3,771.4,497.9,766.1,497.9z M767.5,511.1c0,0.8-0.3,1.4-0.8,1.9c-0.5,0.5-1.2,0.8-1.9,0.8c-0.4,0-0.8,0-1.1-0.1
			l0.2-1.6c0.2,0,0.4,0.1,0.5,0.1c0.1,0,0.2,0,0.4,0c0.3,0,0.5-0.1,0.7-0.3c0.2-0.2,0.3-0.4,0.3-0.7v-8.9h1.7V511.1z"/>
	</g>
	<g id="ashland">
		<path class="st5" d="M785.9,270.1c-5.4,0-9.8,4.4-9.8,9.8c0,5.4,4.4,9.8,9.8,9.8s9.8-4.4,9.8-9.8
			C795.6,274.4,791.3,270.1,785.9,270.1z M787.3,283.3c0,0.8-0.3,1.4-0.8,1.9c-0.5,0.5-1.2,0.8-1.9,0.8c-0.4,0-0.8,0-1.1-0.1
			l0.2-1.6c0.2,0,0.4,0.1,0.5,0.1c0.1,0,0.2,0,0.4,0c0.3,0,0.5-0.1,0.7-0.3c0.2-0.2,0.3-0.4,0.3-0.7v-8.9h1.7V283.3z"/>
	</g>
	<g id="philadelphia">
		<path class="st5" d="M816.7,209.2c-5.4,0-9.8,4.4-9.8,9.8c0,5.4,4.4,9.8,9.8,9.8s9.8-4.4,9.8-9.8
			C826.4,213.6,822.1,209.2,816.7,209.2z M818.1,222.4c0,0.8-0.3,1.4-0.8,1.9c-0.5,0.5-1.2,0.8-1.9,0.8c-0.4,0-0.8,0-1.1-0.1
			l0.2-1.6c0.2,0,0.4,0.1,0.5,0.1c0.1,0,0.2,0,0.4,0c0.3,0,0.5-0.1,0.7-0.3c0.2-0.2,0.3-0.4,0.3-0.7v-8.9h1.7V222.4z"/>
	</g>
</g>
</svg>
