<?xml version="1.0" encoding="utf-8"?>
<!-- Generator: Adobe Illustrator 19.2.1, SVG Export Plug-In . SVG Version: 6.00 Build 0)  -->
<svg version="1.1" id="Layer_1" xmlns="http://www.w3.org/2000/svg" xmlns:xlink="http://www.w3.org/1999/xlink" x="0px" y="0px"
	 viewBox="0 0 500 500" style="enable-background:new 0 0 500 500;" xml:space="preserve">
<style type="text/css">
	.st0{fill-rule:evenodd;clip-rule:evenodd;}
	.st1{fill-rule:evenodd;clip-rule:evenodd;fill:#ED1C24;}
	.st2{fill-rule:evenodd;clip-rule:evenodd;fill:#FFFFFF;}
</style>
<g>
	<path class="st0" d="M250,10.2c132.4,0,239.8,107.4,239.8,239.8c0,132.4-107.4,239.8-239.8,239.8C117.6,489.8,10.2,382.4,10.2,250
		C10.2,117.6,117.6,10.2,250,10.2L250,10.2z"/>
	<path class="st1" d="M250,18.7c127.7,0,231.3,103.6,231.3,231.3c0,127.7-103.6,231.3-231.3,231.3C122.3,481.3,18.7,377.7,18.7,250
		C18.7,122.3,122.3,18.7,250,18.7L250,18.7z"/>
	<path class="st0" d="M251.1,64.9c141.4,1.2,185.7,66.4,118.2,185c-31.2,54.8-43.3,89.6-12.5,114.5c19.1,15.4,43.4,12.6,74.2-2.9
		c-33.5,55.8-87,70.9-139.1,30.8c-43.2-33.2-21.8-80.6-5.6-121.1C319.8,188.1,350.2,101,251.1,98c-99.1,3.1-68.6,90.1-35.2,173.3
		c16.3,40.5,37.6,87.9-5.6,121.1c-52,40.1-105.6,25-139.1-30.8c30.7,15.5,55,18.4,74.2,2.9c30.8-24.9,18.7-59.7-12.5-114.5
		C65.4,131.3,109.8,66.1,251.1,64.9L251.1,64.9z"/>
	<polygon class="st2" points="350,271.1 347.7,275.7 345.6,280.2 343.6,284.7 341.7,289 340,293.3 338.4,297.4 337,301.6 
		335.7,305.6 334.6,309.6 333.7,313.5 333,317.3 332.5,321.1 332.1,324.8 332,328.5 332.1,332.2 332.4,335.7 333,339.3 333.8,342.7 
		334.9,346.1 336.2,349.4 337.8,352.6 339.6,355.8 341.7,358.8 344,361.7 346.6,364.5 349.4,367.2 352.5,369.9 354.6,371.5 
		356.7,372.9 358.8,374.3 361,375.5 363.2,376.7 365.5,377.7 367.8,378.6 370.2,379.3 372.6,380 375,380.6 377.4,381 379.9,381.3 
		382.4,381.5 384.9,381.6 387.4,381.6 390,381.5 392.6,381.3 395.2,381 397.8,380.7 400.5,380.2 403.1,379.6 405.8,378.9 
		408.5,378.2 411.1,377.4 408.8,380 405.3,383.6 401.8,387 398.1,390.2 394.4,393.1 390.6,395.7 386.8,398.1 382.9,400.2 
		378.9,402.1 375,403.7 370.9,405 366.9,406.2 362.7,407 358.6,407.6 354.4,407.9 350.1,408 345.8,407.8 341.5,407.3 337.1,406.6 
		332.7,405.6 328.2,404.3 323.7,402.7 319.2,400.8 314.7,398.7 310.1,396.2 305.5,393.4 300.8,390.3 296.2,386.9 292.7,384 
		289.5,381 286.7,378.1 284.1,375 282,372 280.1,368.9 278.4,365.8 277,362.6 275.9,359.4 275,356.1 274.3,352.7 273.8,349.3 
		273.5,345.9 273.4,342.4 273.5,338.8 273.8,335.2 274.2,331.5 274.8,327.8 275.5,324 276.4,320.2 277.3,316.4 278.4,312.5 
		279.6,308.7 280.9,304.8 282.2,300.9 283.7,297 285.1,293.1 286.6,289.2 288.2,285.4 289.7,281.5 291.3,277.6 292.8,273.8 296,266 
		299,258.1 302.1,250.3 305,242.4 307.9,234.6 310.6,226.9 313.1,219.1 315.5,211.5 317.7,203.9 319.7,196.5 321.4,189.1 
		322.9,181.9 324,174.8 324.8,167.9 325.3,161.1 325.4,154.4 325,148 324.3,141.7 323,135.6 321.1,129.8 318.8,124.2 315.8,119 
		312.2,114.1 307.9,109.6 303,105.5 297.5,101.9 291.4,98.9 284.7,96.3 277.3,94.2 269.3,92.7 260.7,91.6 251.1,91 241.6,91.6 
		233,92.7 225,94.2 217.6,96.3 210.9,98.9 204.8,101.9 199.3,105.5 194.4,109.6 190.1,114.1 186.5,119 183.5,124.2 181.1,129.8 
		179.3,135.6 178,141.7 177.3,148 176.9,154.4 177,161.1 177.5,167.9 178.3,174.8 179.4,181.9 180.9,189.1 182.6,196.5 184.6,203.9 
		186.8,211.5 189.1,219.1 191.7,226.9 194.4,234.6 197.3,242.4 200.2,250.3 203.3,258.1 206.3,266 209.5,273.8 211,277.6 
		212.6,281.5 214.1,285.4 215.7,289.2 217.2,293.1 218.6,297 220,300.9 221.4,304.8 222.7,308.7 223.9,312.5 225,316.4 225.9,320.2 
		226.8,324 227.5,327.8 228.1,331.5 228.5,335.2 228.8,338.8 228.9,342.4 228.8,345.9 228.5,349.3 228,352.7 227.3,356.1 
		226.4,359.4 225.3,362.6 223.9,365.8 222.2,368.9 220.3,372 218.1,375 215.6,378.1 212.8,381 209.6,384 206.1,386.9 201.5,390.3 
		196.8,393.4 192.2,396.2 187.6,398.7 183.1,400.8 178.6,402.7 174.1,404.3 169.6,405.6 165.2,406.6 160.8,407.3 156.5,407.8 
		152.2,408 147.9,407.9 143.7,407.6 139.6,407 135.4,406.2 131.4,405 127.3,403.7 123.3,402.1 119.4,400.2 115.5,398.1 111.7,395.7 
		107.9,393.1 104.2,390.2 100.5,387 97,383.6 93.5,380 91.2,377.4 93.8,378.2 96.5,378.9 99.2,379.6 101.8,380.2 104.5,380.7 
		107.1,381 109.7,381.3 112.3,381.5 114.9,381.6 117.4,381.6 119.9,381.5 122.4,381.3 124.9,381 127.3,380.6 129.7,380 132.1,379.3 
		134.5,378.6 136.8,377.7 139.1,376.7 141.3,375.5 143.5,374.3 145.6,372.9 147.7,371.5 149.8,369.9 152.8,367.2 155.7,364.5 
		158.3,361.7 160.6,358.8 162.7,355.8 164.5,352.6 166.1,349.4 167.4,346.1 168.5,342.7 169.3,339.3 169.8,335.7 170.2,332.2 
		170.3,328.5 170.2,324.8 169.8,321.1 169.3,317.3 168.6,313.5 167.7,309.6 166.6,305.6 165.3,301.6 163.9,297.4 162.3,293.3 
		160.6,289 158.7,284.7 156.7,280.2 154.6,275.7 152.3,271.1 149.9,266.4 147.3,261.6 144.6,256.7 141.9,251.6 139,246.6 
		133.1,235.8 127.8,225.3 123.3,215.3 119.3,205.5 116,196.2 113.4,187.1 111.3,178.5 109.9,170.2 109.1,162.3 108.9,154.8 
		109.3,147.6 110.2,140.8 111.7,134.4 113.8,128.3 116.4,122.6 119.5,117.2 123.3,112 127.5,107.2 132.4,102.6 137.9,98.3 
		143.9,94.3 150.6,90.6 157.9,87.3 165.9,84.2 174.4,81.4 183.6,79 193.3,76.9 203.7,75.2 214.7,73.8 226.3,72.8 238.4,72.2 
		251.1,71.9 263.8,72.2 276,72.8 287.6,73.8 298.6,75.2 309,76.9 318.7,79 327.9,81.4 336.4,84.2 344.4,87.3 351.7,90.6 358.3,94.3 
		364.4,98.3 369.9,102.6 374.8,107.2 379,112 382.8,117.2 385.9,122.6 388.5,128.3 390.6,134.4 392.1,140.8 393,147.6 393.4,154.8 
		393.2,162.3 392.4,170.2 391,178.5 388.9,187.1 386.3,196.1 383,205.5 379,215.3 374.4,225.3 369.2,235.8 363.3,246.6 360.4,251.6 
		357.6,256.7 355,261.6 352.4,266.4 350,271.1 	"/>
</g>
</svg>
