<svg id="Layer_1" data-name="Layer 1" xmlns="http://www.w3.org/2000/svg" xmlns:xlink="http://www.w3.org/1999/xlink" viewBox="0 0 460.79 58.08">
  <defs>
    <style>
      .cls-1 {
        fill: #231f20;
      }
    </style>
    <symbol id="sephora-symbol" data-name="sephora-symbol" viewBox="0 0 95.09 11.99">
      <path class="cls-1" d="M3.9,5.07a6.82,6.82,0,0,1-1.81-.86,1.52,1.52,0,0,1-.51-1.3,1.79,1.79,0,0,1,2.06-1.7A1.9,1.9,0,0,1,5.51,2.65L7,2.41A3.28,3.28,0,0,0,3.67,0C1.62-.1.27,1,0.18,2.84A2.73,2.73,0,0,0,1,5.1,7,7,0,0,0,3.35,6.35c1.48,0.58,2.27,1,2.21,2.26a1.83,1.83,0,0,1-2.2,1.62A2.06,2.06,0,0,1,1.38,9L0,9.3a3.4,3.4,0,0,0,3.27,2.22C5.38,11.63,6.93,10.37,7,8.62s-1-2.68-3.13-3.54"/>
      <polygon class="cls-1" points="13.85 11.46 19.6 11.46 19.6 10.16 15.29 10.16 15.29 6.43 19.6 6.43 19.6 5.15 15.29 5.15 15.29 1.68 19.6 1.68 19.6 0.38 13.85 0.38 13.85 11.46"/>
      <path class="cls-1" d="M27.29,11.16h1.43V7.35h1.2A3.59,3.59,0,0,0,33.8,3.73c0-2.18-1.55-3.66-4.16-3.66H27.29V11.16ZM28.72,6V1.38h0.91c1.77,0,2.69.81,2.69,2.29A2.21,2.21,0,0,1,29.86,6H28.72Z"/>
      <polygon class="cls-1" points="40.59 11.62 42.02 11.62 42.02 6.55 47.83 6.55 47.83 11.62 49.26 11.62 49.26 0.53 47.83 0.53 47.83 5.25 42.02 5.25 42.02 0.53 40.59 0.53 40.59 11.62"/>
      <path class="cls-1" d="M60.73,12a5.48,5.48,0,0,0,4-1.54,5.74,5.74,0,0,0,1.71-4.22A5.78,5.78,0,0,0,64.73,2a6,6,0,0,0-8,0A5.77,5.77,0,0,0,55,6.22a5.74,5.74,0,0,0,1.71,4.22,5.5,5.5,0,0,0,4,1.54m0-1.31a4,4,0,0,1-3-1.18,4.54,4.54,0,0,1-1.27-3.28,4.52,4.52,0,0,1,1.27-3.28,4.32,4.32,0,0,1,5.92,0A4.55,4.55,0,0,1,65,6.22,4.53,4.53,0,0,1,63.7,9.5a4,4,0,0,1-3,1.18"/>
      <path class="cls-1" d="M71.93,11.16h1.43V6.65l3.94,4.51h1.81l-3.9-4.31H75.3a3.24,3.24,0,0,0,3.33-3.41c0-2.09-1.48-3.37-4.19-3.37H71.93V11.16Zm1.43-5.4V1.38h1c1.88,0,2.82.75,2.82,2.1s-1,2.28-2.75,2.28h-1Z"/>
      <path class="cls-1" d="M84.71,11.16h1.54l1-2.57h5.2l1,2.57h1.68L90.43,0.08h-1.2Zm3-3.87L89.5,2.84c0-.11.16-0.46,0.33-1,0.17,0.59.29,0.93,0.33,1L91.9,7.29H87.73Z"/>
    </symbol>
  </defs>
  <title>sephora</title>
  <use width="95.09" height="11.99" transform="translate(0 0) scale(4.85)" xlink:href="#sephora-symbol"/>
</svg>
