<?xml version="1.0" encoding="utf-8"?>
<!-- Generator: Adobe Illustrator 20.1.0, SVG Export Plug-In . SVG Version: 6.00 Build 0)  -->
<svg version="1.1" id="daytona_rising_logo" xmlns="http://www.w3.org/2000/svg" xmlns:xlink="http://www.w3.org/1999/xlink"
	 x="0px" y="0px" viewBox="0 0 500 500" style="enable-background:new 0 0 500 500;" xml:space="preserve">
<style type="text/css">
	.st0{fill:#0076BC;}
	.st1{fill:#FFFFFF;stroke:#000000;stroke-width:0.25;stroke-miterlimit:10;}
	.st2{fill:#FFFFFF;}
</style>
<title>daytona_rising_logo</title>
<g id="raceway_group">
	<path id="infield" class="st0" d="M441.5,249.7c0,0-191.6,1.4-245.8,39.4h81.1C276.8,289.1,276.5,263.2,441.5,249.7z"/>
	<path id="track" class="st1" d="M342.4,248.1c0,0-145.9-4.4-222.7,16l36.7,17.9C156.4,282.1,189,255.2,342.4,248.1z"/>
	<path id="grandstand" class="st0" d="M449.8,234.3c0,0-235.7-11.8-428.4-81.9c39.7,32.5,78.3,65,107.2,86.1
		c125.2-2.4,300,3.6,349.9,5.4"/>
</g>
<g id="text_group">
	<g id="rising_grouped">
		<path id="g" class="st0" d="M485.5,308.4c-2.5-3-7-4.6-13.2-4.6c-12.2,0-17.6,5.7-18.6,11.1l-3.9,21c-0.6,2.5,0,5.2,1.7,7.2
			c2.2,2.7,6.4,4.2,11.7,4.2c4,0.2,8-1,11.3-3.3l1.3,2.7h6.4l4.1-22.2H467l-1.3,7h6.9l-0.6,3.1c-0.7,3.8-2.3,5-6.3,5
			c-1.6,0-2.7-0.3-3.2-1c-0.5-0.7-0.6-1.6-0.4-2.5l3.8-21c0.5-2.6,2.1-3.9,4.9-3.9c1.9,0,3.1,0.3,3.7,1.1c0.8,1,0.9,2.8,0.4,5.7
			l-0.2,0.9h11.9l0.6-3.2C487.9,313.2,487.2,310.5,485.5,308.4z"/>
		<polygon id="n" class="st0" points="440,304.4 436,326 427.8,304.4 416.5,304.4 408.8,346.7 420.1,346.7 424.5,323 433,346.7 
			443.6,346.7 451.4,304.4 		"/>
		<polygon id="i2" class="st0" points="399.8,304.4 392,346.7 404.4,346.7 412.2,304.4 		"/>
		<path id="s" class="st0" d="M379.3,322.1c-4-2.4-7.8-4.8-7.3-7.3c0.5-3,3.6-3.4,5.4-3.4c1.3-0.1,2.5,0.3,3.4,1.2
			c0.6,0.7,0.9,1.6,0.8,2.6l0,0.9l12-0.8v-0.7c0.1-2.6-0.9-5.1-2.6-6.9c-2.4-2.5-6.4-3.8-11.4-3.8c-11.1,0-18.2,3.9-19.4,10.8
			s5,10.6,10.5,13.9c4.4,2.6,8.1,4.9,7.5,8c-0.4,2-2.7,3.1-6.3,3.1c-1.3,0.1-2.6-0.4-3.5-1.3c-0.9-1.2-1.3-2.6-1-4.1l0.1-0.9
			l-12,1.1l-0.1,0.6c-0.4,2.8,0.5,5.6,2.4,7.7c1.8,2,5.5,4.5,12.6,4.5c11,0,18.6-4.2,19.8-11.1S385,325.6,379.3,322.1z"/>
		<polygon id="i1" class="st0" points="345.4,304.4 337.6,346.7 350,346.7 357.8,304.4 		"/>
		<path id="r" class="st0" d="M338.4,317.3c0.7-3.6,0.1-6.5-1.6-8.5c-2.5-3-7.4-4.4-15.3-4.4h-15.9l-7.8,42.4h12.4l3.1-16.8
			c1.6,0,3.3-0.1,4.5-0.1l4.6,16.9H335l-5.9-18.8C334,326.5,337.7,322.3,338.4,317.3z M316.7,311.6h3.2c3.2,0,5,0.4,5.8,1.4
			c0.6,0.8,0.8,2,0.4,4c-0.8,4.4-2.8,5.7-8.5,5.7h-3L316.7,311.6z"/>
	</g>
	<path id="registered" class="st2" d="M290.2,340.1c0.7,0.7,1.1,1.6,1,2.6c0,1-0.4,1.9-1.1,2.6c-0.7,0.7-1.6,1.1-2.6,1.1
		c-2,0-3.7-1.7-3.7-3.7c0-1,0.4-1.9,1.1-2.6c0.7-0.7,1.6-1.1,2.6-1C288.6,339,289.6,339.4,290.2,340.1z M285.4,340.4
		c-0.6,0.6-0.9,1.4-1,2.2c0,1.7,1.4,3.1,3.1,3.1c0.8,0,1.7-0.3,2.3-0.9c0.6-0.6,0.9-1.4,0.9-2.2c0-1.7-1.3-3.1-3.1-3.2
		c0,0,0,0-0.1,0C286.8,339.5,286,339.8,285.4,340.4z M287.7,340.5c1.2,0,1.7,0.4,1.7,1.1c0,0.6-0.4,1.1-0.9,1.1l0.9,1.9h-1l-0.8-1.7
		H287v1.7h-0.9v-4.1H287.7z M287,342.4h0.6c0.6,0,1-0.2,1-0.6s-0.3-0.7-1-0.7H287L287,342.4L287,342.4z"/>
	<g id="daytona_grouped">
		<path id="da" class="st2" d="M25.9,304.3c6.2,0.4,25.7-2.6,30.4,10.5c1.2,3.9,1.5,8,1,12.1c0.5-0.3,0.9-0.7,1.1-1.2
			c3.3-6.7,7.5-14.1,10.8-20.8l0.2-0.3h17l0.1,0.3c2.1,13.9,4.1,27.8,6,41.6c-2.2,0.1-4.8,0-6.4,0.1h-9l-0.2-1.9
			c0-1.2-0.1-2.3-0.3-3.5l-0.4,0h-9.5c-1,1.8-1.9,3.6-2.9,5.4H48.1l-0.2-0.1c1-2.4,2.5-4.5,3.4-6.9h-0.4c-7.2,8.8-27.3,6.6-37.7,6.9
			h-0.6l7.8-42.1L25.9,304.3z M32,329.8l-0.4,2.1l-0.2,1.3c1.4,0.3,3-0.3,4.3-0.5c3-0.8,4.9-4,5.5-6.7c0.5-2.3,0-4.7-1.4-6.5
			c-1.5-1.4-3.5-2.2-5.6-2.1c-0.1,0.4-0.2,0.8-0.2,1.2L32,329.8z M75.1,322.4l-3.9,8.5h5L75.1,322.4z"/>
		<path id="ytona" class="st2" d="M200.4,319.9l0.2-1.3l2.5-14.2h15.7l7.4,18.1l3.1-18.1h16.2l-5.8,37l19.2-37h16.8l6.3,42.3h-14.7
			l-0.9-5.5h-10l-2.5,5.5h-31l-7.7-18.2l-3.5,18.3h-16.1l1.6-9.1l0.6-3.3c-0.1,0.2-0.3,0.4-0.4,0.6c-0.1,0.3-0.4,0.5-0.5,0.6
			c-5.1,9.5-15.8,13-26.5,11.9c-7.9-1.3-14.1-5.8-16.3-13.7c-1.3-5.3-0.2-11.1,1.6-15.9l0.2-0.4c-2.1-0.1-4.9,0.1-7,0.1
			c-0.3,0.2-0.4,0.6-0.4,1c-0.1,0.5-0.2,1-0.2,1.5c-0.3,1.4-0.5,3.1-0.8,4.4c-0.4,2.1-0.7,4.1-0.9,4.5c-1.4,6.9-2.1,11.2-3.3,18
			c-5.3-0.1-11.8,0.1-16.3-0.1l0.2-1.5l0.2-1.4l4.8-26.2h-0.6h-6.8c-0.5,0.5-1,1-1.4,1.6c-2.8,3.3-5.8,7.1-9,11
			c-1,5.5-1.8,9.3-2.9,14.7l-0.3,1.7c-5.3,0-10.9,0-16,0.1l0.1-0.6l2.8-17.3l-1.5-3.9c-0.8-1.6-1.4-3.3-2.1-5
			c-0.3-1-0.8-1.6-1.2-2.6c-1.7-4.2-3.7-8.2-5.3-12.4l0-0.4h16.6c1.4,3.5,2.5,6,3.7,8.9c0.8-1,1.6-2,2.4-3.1
			c1.1-1.6,2.7-3.4,4.3-5.9c5.7,0,6.5,0,11,0h33.8c0,0.6-0.1,1.1-0.1,1.3l-0.2,1.5c-0.2,1.3-0.1,0.6-0.3,2l-0.1,0.6
			c-0.1,0.7-0.2,1.3-0.4,2.3c4.2-4.7,11.4-7.8,18.2-8.5c8.7-0.6,17.6,2.7,21.2,10.1c0.7,1.6,1.3,3.2,1.8,4.8l0.2,0.5L200.4,319.9z
			 M261.1,330.7l4.8-0.1l-1.1-7.8L261.1,330.7z M171.1,322.3c-0.6,1.2-1,2.4-1.1,3.7c-0.2,1.5,0,3.1,0.6,4.5
			c0.7,1.3,1.8,2.3,3.2,2.8c1.6,0.4,3.3,0.3,4.8-0.5c1.5-0.8,2.7-2,3.5-3.4c0.9-1.3,1.2-3.4,1.3-6c0.1-1.8-0.7-3.6-2.2-4.7
			c-1.5-1-3.4-1.3-5.1-0.8c-1.7,0.6-3.1,1.7-4.1,3.1C171.9,321.1,171.5,321.6,171.1,322.3L171.1,322.3z"/>
	</g>
</g>
</svg>
