<svg xmlns="http://www.w3.org/2000/svg" version="1.1" x="0" y="0" width="177" height="59" viewBox="0 0 177 59" xml:space="preserve">
<style>
	.logo-circle{fill:#efefef;}
	.logo-pylon{fill:#0273b9;}
	.logo-text{fill:#0273b9;}
</style>
<circle class="logo-circle" cx="97" cy="31" r="20.2"/>
<path class="logo-pylon" d="M113.1 27.5c0.7 0 0.4-1.1 0.4-1.8v-4.9c0-0.7 0.4-1.3-0.4-1.3h-15.9c-0.7 0-1.8 0.6-1.8 1.3V23.5h-1.9c-0.2-1-1.1-2-2.1-2 -1.2 0-2.1 0.8-2.1 2 0 0.6 0.3 1.1 0.7 1.5l-10.6 16.1c0.3 0.6 0.6 1.1 1 1.6l11.1-17c0.9 0 1.6-0.2 1.9-1.2h2v1.2c0 0.7 1.1 1.8 1.8 1.8H113.1z"/>
<path class="logo-text" d="M9.9 39.3c0 1.7-0.6 3.2-1.8 4.4 -1.2 1.2-2.7 1.8-4.4 1.8 -1 0-1.8-0.1-2.4-0.3l0.6-3.6C2.3 41.6 2.7 41.6 3 41.6c0.2 0 0.5 0 0.8 0 0.6 0 1.2-0.3 1.6-0.7 0.4-0.4 0.7-0.9 0.7-1.6V19.2h3.8V39.3zM19.5 18.9c1.7 0 3.2 0.6 4.4 1.8 1.2 1.2 1.8 2.7 1.8 4.4v14.2c0 1.7-0.6 3.2-1.8 4.4 -1.2 1.2-2.7 1.8-4.4 1.8 -1.7 0-3.2-0.6-4.4-1.8 -1.2-1.2-1.8-2.7-1.8-4.4V25.1c0-1.7 0.6-3.2 1.8-4.4C16.3 19.5 17.8 18.9 19.5 18.9zM21.6 25c0-0.6-0.2-1.1-0.7-1.6 -0.4-0.4-1-0.7-1.6-0.7 -0.6 0-1.2 0.2-1.6 0.7 -0.4 0.4-0.7 1-0.7 1.6V39.2c0 0.6 0.2 1.1 0.7 1.6 0.4 0.4 1 0.7 1.6 0.7 0.6 0 1.1-0.2 1.6-0.7 0.4-0.4 0.7-1 0.7-1.6V25zM33.5 19.2l5.2 17.4V19.2h3.9v26h-4.2l-5.4-16.6v16.6h-3.9V19.2H33.5zM46.1 45.1V19.2h11.1v3.9h-7.2v7.1h5.3v3.9h-5.3v7.1h7.2v3.9H46.1zM72.8 38.7c0 1.8-0.4 3.4-1.4 4.6 -0.6 0.9-1.5 1.5-2.7 1.8 -0.6 0.2-1.3 0.3-2.2 0.3 -1.5 0-2.8-0.4-3.8-1.1 -0.8-0.6-1.5-1.5-2-2.5 -0.5-1.1-0.8-2.3-0.9-3.7l3.7-0.3c0.2 1.5 0.6 2.6 1.2 3.3 0.5 0.5 1 0.8 1.6 0.7 0.9 0 1.5-0.4 2-1.3 0.3-0.4 0.4-1 0.4-1.7 0-1.1-0.5-2.1-1.5-3.2 -0.8-0.7-1.9-1.8-3.5-3.3 -1.3-1.3-2.2-2.4-2.7-3.4 -0.6-1.1-0.9-2.3-0.9-3.6 0-2.4 0.8-4.1 2.4-5.4 1-0.7 2.2-1.1 3.6-1.1 1.4 0 2.6 0.3 3.6 0.9 0.8 0.5 1.4 1.2 1.9 2 0.5 0.9 0.8 1.9 0.9 3l-3.7 0.7c-0.1-1.1-0.4-1.9-0.9-2.5 -0.4-0.4-0.9-0.6-1.5-0.6 -0.7 0-1.3 0.3-1.6 1 -0.3 0.5-0.5 1.1-0.5 1.9 0 1.2 0.5 2.4 1.5 3.6 0.4 0.5 1 1 1.7 1.7 0.9 0.8 1.5 1.3 1.8 1.6 1 1 1.7 1.9 2.2 2.9 0.2 0.4 0.4 0.8 0.6 1.2C72.6 37.1 72.8 38 72.8 38.7zM135.4 37.5c0 1.8-0.4 3.4-1.4 4.6 -0.6 0.9-1.5 1.5-2.7 1.8 -0.6 0.2-1.3 0.3-2.2 0.3 -1.5 0-2.8-0.4-3.8-1.1 -0.8-0.6-1.5-1.5-2-2.5 -0.5-1.1-0.8-2.3-0.9-3.7l3.7-0.3c0.2 1.5 0.6 2.6 1.2 3.3 0.5 0.5 1 0.8 1.6 0.7 0.9 0 1.5-0.4 2-1.3 0.3-0.4 0.4-1 0.4-1.7 0-1.1-0.5-2.1-1.5-3.2 -0.8-0.7-1.9-1.8-3.5-3.3 -1.3-1.3-2.2-2.4-2.7-3.4 -0.6-1.1-0.9-2.3-0.9-3.6 0-2.4 0.8-4.1 2.4-5.4 1-0.7 2.2-1.1 3.6-1.1 1.4 0 2.6 0.3 3.6 0.9 0.8 0.5 1.4 1.2 1.9 2 0.5 0.9 0.8 1.9 0.9 3l-3.7 0.7c-0.1-1.1-0.4-1.9-0.9-2.5 -0.4-0.4-0.9-0.6-1.5-0.6 -0.7 0-1.3 0.3-1.6 1 -0.3 0.5-0.5 1.1-0.5 1.9 0 1.2 0.5 2.4 1.5 3.6 0.4 0.5 1 1 1.7 1.7 0.9 0.8 1.5 1.3 1.8 1.6 1 1 1.7 1.9 2.2 2.9 0.2 0.4 0.4 0.8 0.6 1.2C135.2 35.9 135.4 36.7 135.4 37.5zM142.5 43.9h-3.9V18h3.9V43.9zM152.2 44.3c-1.7 0-3.2-0.6-4.4-1.8 -1.2-1.2-1.8-2.7-1.8-4.4V23.9c0-1.7 0.6-3.2 1.8-4.4 1.2-1.2 2.7-1.8 4.4-1.8 1.7 0 3.2 0.6 4.4 1.8 1.2 1.2 1.8 2.7 1.8 4.4v3h-4.1v-3c0-0.6-0.2-1.2-0.7-1.6 -0.4-0.4-1-0.7-1.6-0.7 -0.6 0-1.1 0.2-1.6 0.7 -0.4 0.4-0.7 1-0.7 1.6v14.2c0 0.6 0.2 1.1 0.7 1.6s1 0.7 1.6 0.7c0.6 0 1.2-0.2 1.6-0.6 0.4-0.4 0.7-1 0.7-1.6V32.9h-2.2v-3.9h6.2v9.1c0 1.7-0.6 3.2-1.8 4.4C155.3 43.7 153.9 44.3 152.2 44.3zM166.1 18l5.2 17.4V18h3.9v26h-4.2l-5.4-16.6v16.6h-3.9V18H166.1z"/>
</svg>