<svg id="missouri_western" xmlns="http://www.w3.org/2000/svg" viewBox="0 0 480 143.73">
  <defs>
    <style>
      .cls-1, .cls-2 {
        fill: #0f0d0e;
      }

      .cls-2 {
        fill-rule: evenodd;
      }

      .cls-3 {
        fill: #ffc20e;
      }
    </style>
  </defs>
  <title>mwsu_logo</title>
  <g id="western">
    <path id="n" class="cls-1" d="M420.18,282.33a45.67,45.67,0,0,0,4.06-7.66l1.42-3.79,0.4-1.16,10.92-31a42.39,42.39,0,0,0,1.81-6.19c0.81-4.26.76-5,.2-6l19.06,0.05,10.24,34.12,7.42-21.05,0.46-1.08,0.43-1.31,0.86-2.56a32.52,32.52,0,0,0,1.73-8.05l10.82,0-1.06,1.86c-1.41,2.78-2.36,4.8-2.88,6.19l-0.14.31-1.21,3.48-0.45,1.09-15.06,42.8-15.08,0-11.42-37.06L434,269.73l-0.33,1.16-0.59,1.71-0.76,2.09a34.18,34.18,0,0,0-.94,3.87,37.85,37.85,0,0,0-.49,3.79l-10.74,0h0Z" transform="translate(-10 -178.14)"/>
    <path id="r" class="cls-1" d="M368.12,282.18s3.25-6.27,5.06-10.21c5.29-11.53,7.16-18.34,10.81-30.19,1.4-4.64,3.09-7.43,3.56-12.08,0.11-1.16-1.05-3.26.08-3.25l17.08,0c0.85,0,7.84-1,12.57-.82,5.45,0.17,11.18,1.89,11.57,8.09,0.3,4.73-4,11.38-8.4,14.31-4.61,3.09-9.26,4.16-9.19,4.47l5.4,18.84a24.85,24.85,0,0,0,2.49,6,37.62,37.62,0,0,0,3.6,4.89l-13.43-.12a11.9,11.9,0,0,1-5.6-1.72,7.69,7.69,0,0,1-3.18-3.57c-0.86-.93-1.67-4.65-2.52-7.52-1.34-4.5-3.14-11.71-3.14-11.71l-4.69,13.62c-0.82,2.4-1.26,4-2,6.27-0.44,1.31.08,4.72,0.08,4.72l-20.18-.14h0Zm29.75-30.83a24.58,24.58,0,0,0,5.82-1.53,17.21,17.21,0,0,0,7.8-8.11c3.09-6.81.15-10.54-6.5-9.78a6.31,6.31,0,0,0-1,.15l-6.17,19.27h0Z" transform="translate(-10 -178.14)"/>
    <path id="e2" class="cls-1" d="M330.18,282.07a44.26,44.26,0,0,0,4-7.81l0.58-1.63,12.84-36.38c0.21-.62.42-1.24,0.62-1.78a32.54,32.54,0,0,0,1.75-8.13l34.65,0.1L382.81,234c-2.44-.86-5-1.33-10-1.65a20.78,20.78,0,0,0-2.19-.09h-4.84l-6.12,17.49h1.85a35.3,35.3,0,0,0,6.79-.76c0.61-.15,1.26-0.23,1.94-0.38l1.21-.31,1.22-.38-3.31,9.37-0.84-.39-0.73-.23a33.25,33.25,0,0,0-6.3-1.1c-0.71,0-1.33-.08-2-0.08h-1.85l-7,19.74,5.77,0a50.62,50.62,0,0,0,11.71-1.44l2.91-.61-4.87,9.05-36-.1h0Z" transform="translate(-10 -178.14)"/>
    <path id="t" class="cls-1" d="M297.37,233.79l3.76-7.58,47.24,0.13-1.63,7.59a49.57,49.57,0,0,0-9.06-1.5,38,38,0,0,0-4.63-.33h-2l-13.28,37.69a11.48,11.48,0,0,0-.68,2.09A40.93,40.93,0,0,0,315.05,282l-20-.06a56.69,56.69,0,0,0,5.19-10.13c0.3-.7.53-1.39,0.75-2.09l13.35-37.69h-2a42.09,42.09,0,0,0-4.83.3,70.71,70.71,0,0,0-10.15,1.44h0Z" transform="translate(-10 -178.14)"/>
    <path id="s" class="cls-1" d="M243,279.12l3.9-11.07a22.06,22.06,0,0,0,3.4,3.89c4.81,4.27,8.71,5,13,3.52,0.55-.23,1-0.46,1.58-0.69,3.71-1.93,5.39-6.26,3.95-8.74-0.47-.78-0.75-1.09-2.7-2.87-0.36-.31-0.7-0.7-1.06-1-2.05-1.63-3.81-3.34-4.63-4.12-6.75-7.07-7.38-12.5-2.77-20.39,4-6.88,11.09-11.36,21.57-12.41a36.51,36.51,0,0,1,11.14.81l2.32,0.47,2.3,0.55,0.34,0.08,1,0.16h1.28l-2.66,10.29a6,6,0,0,0-.68-0.77c-5.57-6-11.85-6.85-15.47-5-3.21,1.62-4.65,3.94-4.74,7.19-0.08,2.25.71,3.8,3.65,6.28l0.61,0.47,3.68,3c0.36,0.31.78,0.62,1.14,0.93a34.18,34.18,0,0,1,3.27,3.19c5.25,6.13,2.1,18-9.83,25.15-5,3-10.22,4.62-17.54,4.91-4.59.14-6.58-.18-11.54-1.9a18.84,18.84,0,0,1-2-.78l-1.25-.47-1.28-.62h0Z" transform="translate(-10 -178.14)"/>
    <path id="e1" class="cls-1" d="M203.11,281.71a44.71,44.71,0,0,0,4-7.82l0.58-1.62,12.84-36.38c0.21-.62.42-1.24,0.61-1.78a32.33,32.33,0,0,0,1.75-8.13l34.65,0.1-1.82,7.51c-2.44-.86-5-1.33-10-1.66-0.7-.08-1.48-0.08-2.19-0.08l-4.84,0-6.12,17.49h1.85a35.46,35.46,0,0,0,6.79-.75c0.6-.15,1.26-0.23,1.94-0.38l1.21-.31,1.23-.38-3.31,9.36-0.84-.39-0.73-.23a33.23,33.23,0,0,0-6.3-1.1c-0.71,0-1.33-.08-2-0.08h-1.85l-7,19.74,5.76,0a50.48,50.48,0,0,0,11.71-1.44l2.91-.61-4.87,9-36-.1h0Z" transform="translate(-10 -178.14)"/>
    <path id="w" class="cls-1" d="M101.63,179.48h35.25a69,69,0,0,0-.37,14.69l0.37,4.56,0.12,2.43,0.12,2.14c0.74,9.13,1.48,17.54,2.22,25.81l0.49,4.7,0.86,7,0.62,5.7,10.85-30.8c4.19-11.69,5.05-17.54,4.44-29.52l-0.25-3.28-0.12-1.43-0.12-.85L156,179.48h34.63l-0.49,1-0.25.85c-0.25,1.14-.74,3.71-1.23,7.84-0.37,3-.25,6,0.49,15.26l1.11,10.84,0.12,1.57,3.82,29.38,1.23-3.71,1.36-3.71c0.86-2.28,1.6-4.56,2.34-6.84,3.45-9.84,6.28-18.82,9.12-28.8l0.49-1.43,0.12-.57,0.74-3c1.73-8.41,1.85-13.12,1.11-18.68h21.82c-1.36,2.57-2.59,5-3.58,7.27l-2.71,7.13-0.37.85L223.4,201l-0.12.28L222.53,203c-1.6,4.28-3.2,8.41-4.8,12.69-12.2,32.08-17.13,46.63-22.8,66.45H168.8c-1.11-14.12-2.59-27.95-4.68-41.64-0.62-5.13-1.48-10.12-2.34-15.26-5.92,14.26-11.46,28.8-16.64,43.21-1.6,4.56-3.21,9.13-4.69,13.69H112.84c-0.25-11.41-.74-22.1-1.48-32.8-1.35-18-2.83-33.09-4.68-46.06l-0.25-1.14-0.12-.85-0.12-1-1-6.13c-1.36-7.7-1.85-10-3.58-14.69h0Z" transform="translate(-10 -178.14)"/>
  </g>
  <g id="missouri">
    <path id="i2" class="cls-1" d="M428.87,217.62a18.34,18.34,0,0,1,.75-4.23l0.05-.26,0.56-1.81,0.17-.64,5.47-16.49,0.2-.59,0.44-1.18,0.3-.93a19.73,19.73,0,0,1,2.14-4.31H428.53a11.08,11.08,0,0,1-.63,4.35l-0.69,2.07-0.2.59-5.5,16.66v0l-0.17.42L420.73,213l-0.11.38a20.86,20.86,0,0,1-2.16,4.23h10.41Z" transform="translate(-10 -178.14)"/>
    <path id="r-2" data-name="r" class="cls-2" d="M399.18,217.67a8.68,8.68,0,0,1-.08-2.58c0.37-1.23.59-2.11,1-3.42l2.39-7.44s1,3.93,1.76,6.38c0.47,1.57.93,3.59,1.39,4.1a4.28,4.28,0,0,0,1.73,1.95,6.28,6.28,0,0,0,3,.93l7.15,0a21.41,21.41,0,0,1-2-2.66,13.73,13.73,0,0,1-1.36-3.3l-3-10.27a34.42,34.42,0,0,0,4.86-2.46c2.3-1.6,4.56-5.24,4.37-7.82-0.26-3.38-3.32-4.31-6.22-4.4a61.86,61.86,0,0,0-6.68.47h-9.09c-0.61,0,0,1.14,0,1.77-0.22,2.54-1.1,4.06-1.81,6.6-1.86,6.47-2.81,10.19-5.54,16.49-0.94,2.16-2.63,5.58-2.63,5.58l10.75,0h0Zm8-27.44a3.46,3.46,0,0,1,.51-0.08c3.53-.42,5.12,1.61,3.52,5.33a9.08,9.08,0,0,1-4.1,4.44,12.6,12.6,0,0,1-3.08.85l3.14-10.53h0Z" transform="translate(-10 -178.14)"/>
    <path id="u" class="cls-1" d="M361.33,210.73l-0.12.38c-1.15,3.76.39,6.38,4.85,7,0.52,0,1,.09,1.61.09a15.45,15.45,0,0,0,9.15-2.92l-0.74,2.32h9.58a11.17,11.17,0,0,1,.75-4.18l0.59-1.78,0.11-.34,0.2-.6,5.41-16.4,0.25-.63,0.49-1.44,0.21-.63a17.56,17.56,0,0,1,2.08-4.44h-10c-0.19,1.14-.46,2.24-0.78,3.42a9.67,9.67,0,0,1-.28,1l-0.22.72L384,193.74l-0.2.59-4.3,13c-1.2,3.63-2.74,5.24-5.08,5.79-3.18.72-4.5-1-3.75-3.72l0.32-1,0.17-.64,4.45-13.4,0.2-.59,0.66-1.9,0.08-.21c0.34-.93.85-2.12,1.36-3.3l0.58-1.14h-9.92a26.44,26.44,0,0,1-1,4.39l-0.28,1-0.38,1.1-0.16.59-4.57,13.78-0.89,2.66h0Z" transform="translate(-10 -178.14)"/>
    <path id="o" class="cls-2" d="M343.13,218A23.41,23.41,0,0,0,360.2,205c4.91-10.27,1.6-17.59-7.75-18.18a20,20,0,0,0-4.68.29c-8.75,1.48-15.52,7.52-18,16.61-2.6,9.51,2.31,16.06,13.34,14.33h0Zm-2.92-17.12c1.88-5.28,3.61-7.82,5.95-9.6,2.74-2.11,5.47-1.56,6.28.76a9.36,9.36,0,0,1,.33,4.06,34,34,0,0,1-1.79,8c-1.87,5.45-3.45,7.78-5.66,9.51-2.92,2.24-6,1.52-6.78-1.27a10.44,10.44,0,0,1-.17-3.8,64.36,64.36,0,0,1,1.84-7.65h0Z" transform="translate(-10 -178.14)"/>
    <path id="s2" class="cls-1" d="M302.94,216.48l0.67,0.25a9.71,9.71,0,0,0,1,.42,13.6,13.6,0,0,0,6.16,1,18,18,0,0,0,9.31-2.71c6.29-3.93,7.89-10.4,5.05-13.74A18.65,18.65,0,0,0,323.4,200c-0.19-.17-0.42-0.34-0.61-0.51l-2-1.61-0.33-.25c-1.58-1.35-2-2.2-2-3.43a4.14,4.14,0,0,1,2.47-3.93c1.91-1,5.26-.55,8.27,2.71a3.29,3.29,0,0,1,.37.42l1.34-5.62h-0.68l-0.55-.08-0.18,0-1.23-.3-1.23-.25a19.1,19.1,0,0,0-5.93-.42c-5.57.59-9.3,3-11.4,6.81-2.4,4.31-2,7.27,1.62,11.12,0.44,0.42,1.39,1.35,2.49,2.24,0.19,0.17.38,0.38,0.57,0.55a6.52,6.52,0,0,1,1.46,1.56c0.78,1.35-.08,3.72-2,4.78l-0.83.38c-2.25.8-4.33,0.42-6.92-1.9a12.06,12.06,0,0,1-1.84-2.12l-2,6,0.69,0.34h0Z" transform="translate(-10 -178.14)"/>
    <path id="s1" class="cls-1" d="M279.39,216.48l0.67,0.25a10,10,0,0,0,1.05.42,13.56,13.56,0,0,0,6.15,1,18,18,0,0,0,9.31-2.71c6.3-3.93,7.89-10.4,5.05-13.74a17.82,17.82,0,0,0-1.76-1.73c-0.19-.17-0.42-0.34-0.62-0.51l-2-1.61-0.33-.25c-1.57-1.35-2-2.2-2-3.43a4.16,4.16,0,0,1,2.48-3.93c1.91-1,5.26-.55,8.27,2.71a2.74,2.74,0,0,1,.37.42l1.34-5.62h-0.68l-0.55-.08-0.18,0-1.23-.3-1.23-.25a19.1,19.1,0,0,0-5.94-.42c-5.57.59-9.29,3-11.39,6.81-2.4,4.31-2,7.27,1.62,11.12,0.44,0.42,1.39,1.35,2.49,2.24,0.19,0.17.38,0.38,0.57,0.55a6.49,6.49,0,0,1,1.46,1.56c0.78,1.35-.08,3.72-2,4.78l-0.84.38c-2.25.8-4.33,0.42-6.92-1.9a12.06,12.06,0,0,1-1.84-2.12l-2,6,0.69,0.34h0Z" transform="translate(-10 -178.14)"/>
    <path id="i1" class="cls-1" d="M274.85,217.62a18.19,18.19,0,0,1,.75-4.23l0.05-.26,0.56-1.81,0.17-.64,5.47-16.49,0.2-.59,0.43-1.18,0.3-.93a19.53,19.53,0,0,1,2.14-4.31H274.51a11,11,0,0,1-.63,4.35l-0.68,2.07-0.2.59-5.5,16.66v0l-0.16.42L266.71,213l-0.11.38a20.72,20.72,0,0,1-2.16,4.23h10.41Z" transform="translate(-10 -178.14)"/>
    <path id="m" class="cls-1" d="M235.2,217.62a14.13,14.13,0,0,1,.23-3.17l0.21-1,0.15-.55,0.43-1.52,0.21-.64,4.11-12.47,1.1,19.36h3.45l12.84-19.4-3.67,12.51-0.12.38-0.08.21-0.26.89-0.36,1.23a39.15,39.15,0,0,1-1.61,4.18h10.56c0-.34-0.06-0.63-0.06-1a15.06,15.06,0,0,1,.48-5.28l0.15-.55v0l5.59-16.91c0.18-.51.39-1.14,0.86-2.37l0.33-.85,0.4-1a12.33,12.33,0,0,1,.9-1.82l0.18-.29,0.26-.34H260.76l-10.49,16.06-0.87-16.06H239.21a2.9,2.9,0,0,1,.07,2.24L239,190.78l-0.17.63c-0.39,1.35-.61,2-0.79,2.58l-5.56,16.74-0.24.64a21,21,0,0,1-3.37,6.26h6.36Z" transform="translate(-10 -178.14)"/>
  </g>
  <g id="trademark">
    <path id="m-2" data-name="m" class="cls-1" d="M482.36,282.59h-1.2l1.36-6.43h1.9v3a13.39,13.39,0,0,1-.1,1.49h0c0.2-.64.33-1.06,0.5-1.49l1.28-3H488l-1.36,6.43h-1.19l0.43-2c0.27-1.28.57-2.55,0.91-3.83h0l-2.52,5.86h-0.73l0-5.86h0c-0.2,1.28-.44,2.55-0.71,3.83Z" transform="translate(-10 -178.14)"/>
    <path id="t-2" data-name="t" class="cls-1" d="M477.82,276.15h4l-0.2.94h-1.39l-1.16,5.49h-1.19L479,277.1h-1.4Z" transform="translate(-10 -178.14)"/>
  </g>
  <g id="state_university">
    <path id="y" class="cls-1" d="M461,305.85h0.06l5.31-7.5h5.36l-10.07,13.32-3.3,9.65H453l3.3-9.65-0.84-13.32h5.42Z" transform="translate(-10 -178.14)"/>
    <path id="t3" class="cls-1" d="M426.44,298.35h13.89l-1.57,4.59h-4.33l-6.28,18.37h-5.37l6.29-18.37h-4.2Z" transform="translate(-10 -178.14)"/>
    <path id="i2-2" data-name="i2" class="cls-1" d="M396.85,321.31l7.86-23h5.36l-7.86,23h-5.36Z" transform="translate(-10 -178.14)"/>
    <path id="s2-2" data-name="s2" class="cls-1" d="M374,313.63l-0.55,1.62c-0.45,1.32-.42,2.48,1.29,2.48a3,3,0,0,0,2.58-2.3c0.66-1.93-.68-2.66-1.78-3.52a9.35,9.35,0,0,1-3-3,5.69,5.69,0,0,1,0-4.59,9,9,0,0,1,9-6.52c4.66,0,6,3.12,4.25,7.44H380.8c0.4-1.35,1.09-3.19-.63-3.31a2.37,2.37,0,0,0-2.38,1.53,2.09,2.09,0,0,0,.65,2.82c1.57,1.29,3,2.08,3.89,3.25s1.06,2.69.11,5.48c-1.51,4.41-4.79,6.86-9.23,6.86-4.9,0-6-2.76-5-5.79l0.84-2.45h5Z" transform="translate(-10 -178.14)"/>
    <path id="r-3" data-name="r" class="cls-1" d="M341.47,321.31h-5.36l7.86-23h7.83c4.39,0,6,1.77,4.41,6.34-0.84,2.45-2,4.19-4.62,5.23l0,0.06a2.15,2.15,0,0,1,1.63,3c-0.47,1.84-1.8,5.79-2,7.26a1.37,1.37,0,0,0,.25.8l-0.1.31H345.5a4.59,4.59,0,0,1,.14-1.32c0.6-2,1.37-3.92,1.7-5.33s0.22-2.33-1-2.42h-1.77Zm4.52-13.2h1.83c1.55,0,2.41-1.44,2.89-2.85,0.93-2.73-.15-2.85-2.79-2.78Z" transform="translate(-10 -178.14)"/>
    <path id="e" class="cls-1" d="M306.85,321.31l7.86-23H327l-1.57,4.59H318.5l-1.45,4.23h6.7l-1.57,4.59h-6.7l-1.7,5h7.28l-1.57,4.59H306.85Z" transform="translate(-10 -178.14)"/>
    <path id="v" class="cls-1" d="M279.66,321.31l2.89-23h5.36l-2.77,16.1h0.06l8.25-16.1h5.36l-12.85,23h-6.31Z" transform="translate(-10 -178.14)"/>
    <path id="i1-2" data-name="i1" class="cls-1" d="M253.3,321.31l7.86-23h5.36l-7.86,23H253.3Z" transform="translate(-10 -178.14)"/>
    <path id="n-2" data-name="n" class="cls-1" d="M231,308.45l-0.08.06-3.89,12.8H222l7.86-23h5.52l-0.25,12.83h0.09l3.87-12.83h5.09l-7.86,23h-5.48Z" transform="translate(-10 -178.14)"/>
    <path id="u-2" data-name="u" class="cls-1" d="M198.71,298.35h5.36l-5.93,17.33c-0.38,1.1-.37,2.05,1.16,2.05a2.94,2.94,0,0,0,2.58-2.2l5.88-17.18h5.36L207.43,315c-1.33,3.89-4.09,6.89-9.58,6.89-4.54,0-6.45-2.18-4.84-6.89Z" transform="translate(-10 -178.14)"/>
    <path id="e-2" data-name="e" class="cls-1" d="M139.83,321.31l7.86-23H160l-1.57,4.59h-6.92L150,307.17h6.7l-1.57,4.59h-6.7l-1.7,5H154l-1.57,4.59H139.83Z" transform="translate(-10 -178.14)"/>
    <path id="t2" class="cls-1" d="M117.58,298.35h13.89l-1.57,4.59h-4.33l-6.29,18.37h-5.36l6.29-18.37H116Z" transform="translate(-10 -178.14)"/>
    <path id="a" class="cls-1" d="M79.91,321.31l12.85-23h6.46l-2.89,23H90.91l0.77-4.47h-4.2l-2.17,4.47H79.91Zm14.66-18.8H94.51L89.43,312.8h3.11Z" transform="translate(-10 -178.14)"/>
    <path id="t1" class="cls-1" d="M60.46,298.35H74.35l-1.57,4.59H68.45l-6.29,18.37H56.8l6.29-18.37h-4.2Z" transform="translate(-10 -178.14)"/>
    <path id="s1-2" data-name="s1" class="cls-1" d="M30.63,313.63l-0.56,1.62c-0.45,1.32-.42,2.48,1.28,2.48a3,3,0,0,0,2.58-2.3c0.66-1.93-.67-2.66-1.78-3.52a9.3,9.3,0,0,1-3-3,5.69,5.69,0,0,1,0-4.59,9,9,0,0,1,9-6.52c4.66,0,6,3.12,4.25,7.44H37.43c0.4-1.35,1.09-3.19-.64-3.31a2.37,2.37,0,0,0-2.38,1.53,2.08,2.08,0,0,0,.65,2.82c1.57,1.29,3,2.08,3.89,3.25s1.06,2.69.11,5.48c-1.51,4.41-4.78,6.86-9.23,6.86-4.9,0-6-2.76-5-5.79l0.84-2.45h5Z" transform="translate(-10 -178.14)"/>
  </g>
  <g id="griffon">
    <path id="griffon_shadow" class="cls-2" d="M58.59,234.72l-1.12,2.74c1.18,1.68,5.09,1.24,5.67,2.79,0.15,0.41-1.43,3.12-1.85,3.87-2.94.38-6.72-1.12-9.7,0.63-4.09.62-4.94-1.92-8.87,1.41-3.07,2.17-3.72,7-7.32,6.49-1.35-.74,0-2.12,0-2.12,5.21-4.48,15.25-9.09,12.27-17.93a19,19,0,0,0,10.91,2.12h0Zm31.23-46.16c0.65,3.85.71,9,3.41,12,3.49,3.88,6,9,4.14,14.46,0.47,1.32,2.1,2.25,3.08,3.24,3.28-.57,7.19-2,10.13.47,3.7,5.17.52,12.78,3.89,17.5,8.61,10.89,26.77,20.46,19,37.31-2.67,6.64-6.8,12.74-10.89,18.53l-18.29-.94c1.6-2.42,3.13-4.88,4.61-7.38l-5.83-1.49-1.17.83-15.31,0c-0.8-5.35-2.12-10.26-5.68-14.5,0.42-2.3,2.5-6,1-8.16-1.79.17-3.84,0.22-5.47,1.06,1.73,2.32,3.43,5.48,1.77,8.69-0.51,1,1.71,1.68,2.3,2.38,1.26,1.9,2,3.2,1.54,5.62-3.19,1.21-6.2.45-9.48,0.62a3.16,3.16,0,0,0-1.43,1.94c-1.55,1-2.59,1.2-4.18.49-2.71.35-6,.67-8.06-2.31a5.38,5.38,0,0,1-4.42-3.46,11.66,11.66,0,0,1,.33-1.92,3.45,3.45,0,0,1,1.67-2.41,18.72,18.72,0,0,0,1.9-1.89c-0.23-1.41-.41-3.55-1.28-4.73-3.83,3.67-8.74,6-14.7,5.5a3.32,3.32,0,0,0-.94,1.73,9.57,9.57,0,0,1,5.32,8.66V282H29.59c-0.18-1.15-1.49-9.4.1-11.47,3.8-2.25,4.55-7.08,7.44-9.19,1.42-.33,2.9-0.42,4.34-0.76,2.65-1.52,3.78-4,4.3-7-3.16,0-3.06,6.15-7.6,6.53-3.15.45-5.62-.13-7.63-2.15a8.75,8.75,0,0,1-2.25-8.7C31.4,242.6,39,242,42,236.48c-0.1-1-.37-2.46-1.57-2.68-0.66,0-2.16-.06-2.56.66a5.67,5.67,0,0,1-.56,5.49c-2.1,2.26-5,3.84-7.44,5.64-0.84-6.41-2.7-13.9,5.11-17.06,2.27-1,6.23-1.25,8.59.24a5,5,0,0,0,2.83-2.16,11.42,11.42,0,0,1-5.57-1.21c-3.82-1.63-7.08-4-8.78-8a11.48,11.48,0,0,0,3-2.37c-5.95-1.46-10.66-7-12.51-12.52a26.26,26.26,0,0,1,4.9-2.59C16.6,197.08,12.39,188.48,10,178.14c17.6,2.15,32.72,2.25,50.37,1.69,3.41-.11,6.29-0.56,9.51-0.87a60,60,0,0,1,11.73-.09c5.58,1.12,7.37,4.7,8.21,9.7h0Z" transform="translate(-10 -178.14)"/>
    <g id="griffon-2" data-name="griffon">
      <path class="cls-3" d="M84.25,183c4,3.36,2.11,9.09,3.84,13.45,1.86,5.73,8.11,10.25,7,17.1a21.14,21.14,0,0,0-5.47-1.92c1.12-11.08-13.55-16.43-10.7-27.77H75.57c2-.72-39.55,13.45-39.55,13.45-5.33.62-10.54-.49-14.63-3.86a23.57,23.57,0,0,1-7.07-11.71c19.46,0.75,37.56,1.49,57.4-.5,4.21,0.38,9.3-1.12,12.52,1.74h0Z" transform="translate(-10 -178.14)"/>
      <path class="cls-3" d="M76.19,190.51L44.33,210.56c-3.72,2.12-9.42,2.49-13-.37-2.48-1.5-3.72-4-5.08-6.23l3.22-1.74c15.37-4.86,30.49-10.59,45.87-15.57a5.8,5.8,0,0,1,.87,3.86h0Z" transform="translate(-10 -178.14)"/>
      <path class="cls-3" d="M79.42,195.86c-8.18,9.34-18,17.56-27.27,25.41a10.93,10.93,0,0,1-9.17,1.9c-2-1.37-4.85-1.92-6.32-4.89l40.41-25c1.49,0,1.74,1.62,2.36,2.61h0Z" transform="translate(-10 -178.14)"/>
      <path class="cls-3" d="M83.63,201c-1.71,2.58-3.24,6.52-5.94,8.55a7.16,7.16,0,0,0-4.47,1.29c-2.23,1.87-2.73,4.36-3.22,6.85h1.71c-4.09,5.11-8.16,13.32-15.1,14.68a11.56,11.56,0,0,1-8.06-2.74c10.29-11.09,21.69-20.3,32.35-31,1.24,0.13,2.11,1.5,2.73,2.37h0Z" transform="translate(-10 -178.14)"/>
      <path class="cls-3" d="M87.23,209.07c0.25,1.74-.12,2.87-1.86,3.24a25.76,25.76,0,0,1-4.09-2.11c1.37-2,2.62-4.39,4.4-6.18l1.55,5.06h0Z" transform="translate(-10 -178.14)"/>
      <path class="cls-3" d="M88.09,214.17c4.34-.25,7.31,3.73,10.41,6.23-2.73,2.87-1.36,7.72,0,10.71-1.73,3-5,6.6-2.36,10.21,1,1.74,2.23,4,.87,6-0.25-1.37-1.61-2.49-2.73-3.61l-1.74,2.74a8,8,0,0,1-1.74-4.48c-2.36.37-1.49,4.48-4.22,5.11-0.62-2.49-1.24-5.23-.62-7.85-1.49-.75-2.48,1.87-3.59,2.37-1.24-1.12-.87-3.37-0.5-4.73,0.5-.62.62-1.49,1.49-2.12l-2.48-.25c-0.25-2.12,2.11-4.11,4.22-4.48,1.49-.37,2.36.5,3.22,1.49,0.62-1.37-.37-3-1.74-3.61-3.59-.12-6.82,4-10.41,1.25v-1c3.6-.75,6.45-3.49,9.79-5-4-2.74-8-7-12.75-7.88-0.22-1.45,1.72-3,3.2-3.2,4.83-1.49,7.19,6.48,11.65,2.12h0Z" transform="translate(-10 -178.14)"/>
      <path class="cls-3" d="M78.92,221c0.25,2.12-1.49,3.74-3,4.73H73c-1,2.24,1.49,3.86,2.36,5.73a12.72,12.72,0,0,0-10.41,6,6.93,6.93,0,0,1-4.15-1L75,218.28a8.16,8.16,0,0,1,4,2.74h0Z" transform="translate(-10 -178.14)"/>
      <path class="cls-3" d="M109.79,232.11c2.36,12,17.73,15.32,21.2,26.53-11-8.84-26.41-17.56-31.61-30.51a5.88,5.88,0,0,1,1.86-6.48c1.86-1.37,4.46-2.62,6.82-1.25,3.35,2.74.5,7.85,1.73,11.71h0Z" transform="translate(-10 -178.14)"/>
      <path class="cls-3" d="M44.27,234.47c-1.32-3.33-4.83-3.17-7.42-2.55-2.31.53-2.14,1.5-1.62,2.59,0.12,0.25.26,0.51,0.38,0.78a3.91,3.91,0,0,1,.27.81,1.86,1.86,0,0,1-.45,1.66,6.31,6.31,0,0,1-3.69,3.07c-0.12-3.54-.17-6.82,2.66-8.94,2.6-1.74,7.42-3,9.8,0A5.23,5.23,0,0,1,45.65,238c-1.22,2.88-3.38,4.72-5.76,6.44-1.2.86-2.44,1.69-3.63,2.6a20.92,20.92,0,0,0-3.36,3.13c-1.06,2.14.54,4.12,2.18,5a4.9,4.9,0,0,0,4-1.56,12.57,12.57,0,0,0,1.4-1.69c0.43-.61.85-1.24,1.27-1.86,1.67-2.46,3.41-4.5,6.94-3.24,0.36,1-.33,2-1.05,3a4.57,4.57,0,0,0-4.12,1.09,9.58,9.58,0,0,0-1.43,1.62c-0.43.59-.84,1.22-1.25,1.84-1.64,2.44-3.28,4.46-7,2.6-2.63-1.44-3.49-4.55-2.64-7.48a13.7,13.7,0,0,1,3.6-3.73c1.43-1.07,3-2,4.4-3,2.86-2,5.29-4.26,5.16-8.29h0Z" transform="translate(-10 -178.14)"/>
      <path class="cls-3" d="M78.3,233.85c0.5,1.62-1.12,3.11-2.11,4.48,0.74,0.5,1.74.25,2.73,0.25-0.25,3.36,2.48,5.48,2.36,8.72,0.74-.25,1.36-1.25,2.11-1.74,1.24,1.12.74,3.11,0.87,4.73,2,0.25,4-1.25,5.58-2.74l1,4.23c-4.09,7.22-12.77,6.1-19.71,7.72-1.11-1.12-.37-3-0.62-4.48,1.36-1.62,4.21-3.36,4.46-5.35-2.73-1.25-5,2.86-7.07,4.48,1.74,6.35-4.09,14.45,2.6,19.18,0.74,2.12.25,5.11-1.74,6H68.14c-1.12-1,1-2.24-.62-3-1,1.12-2.85,4.49-5,2.37-1.24-1.37,1.49-2.49,0-3.61-1.36.62-3,2.49-4.46,0.87a1.76,1.76,0,0,1-.36-2.71c1.55-1.63,3.34-.78,3.83-2.28-1.86-4.11-.62-9.59-4.46-12.95A94.55,94.55,0,0,1,70,235.59c2.23-1.87,5.58-1.12,8.3-1.74h0Z" transform="translate(-10 -178.14)"/>
      <path class="cls-3" d="M102.1,237.71A18.19,18.19,0,0,1,97.64,239c-1.12-2,.5-3.86,2.11-4.86,1.24,0.75,2.48,2.12,2.36,3.61h0Z" transform="translate(-10 -178.14)"/>
      <path class="cls-3" d="M107.43,242.82c-1.61,3-5,4-7.68,5.11,0.49-2.37-.87-4.61-1.24-6.85,1.67-.87,3.21-1,5.76-1.22,1.33,0.28,1.64,1.31,3.17,3h0Z" transform="translate(-10 -178.14)"/>
      <path class="cls-3" d="M113.38,248.18q0.87,0.6-.87,2.36c-5.58,3.86-11,7.72-17,10.46a38.89,38.89,0,0,1,2.73-9.47l11.28-6.35a15.13,15.13,0,0,1,3.84,3h0Z" transform="translate(-10 -178.14)"/>
      <path class="cls-3" d="M59.83,246.06c-1.24,5-7.56,9.71-3.6,14.95-3.47,9.72-16.36,1.5-18.47,11.71,2.23,1,5.21,2.37,6,4.73,0,0.62.25,1.37-.25,1.87-2-.12-2.11-3-4.21-3.36-1.24,1.12,1.73,3-.5,3.36-1-.87-1.37-2.87-3-2.74l-0.37,2.74c-1.49.12-2.5,0.72-3.25-1.07-1.91-5.75,3.31-9.58,6-14.25,14,0.38,6.94-21.55,21.7-17.93h0Z" transform="translate(-10 -178.14)"/>
      <path class="cls-3" d="M95.29,249c0.25,8.47-8.31,16.94-2.11,25.16,2.61,0.37,5.7,1.25,6.57,3.86,0.49,0.5.12,1.49,0.25,2.11-2,1-2-2.86-4.21-3l-0.25,3.24c-1.61-.25-2.36-4-4.22-2.61-0.37,1,.75,1.37.37,2.36-0.62.5-1.61,0.25-2.36,0.25A33,33,0,0,0,83.88,268c2.23-3.74-.12-10.34,6-11.46,3.59-1.86,2.48-6.35,4.83-8.34L95.29,249h0Z" transform="translate(-10 -178.14)"/>
      <path class="cls-3" d="M120,253.53c-3.35,8.84-13.51,13.57-20.21,20.43-5,.5-5.46-4-6.32-7.47L94,265.24c7.31-4.73,15.37-8.47,21.69-14.95,1.49,0.75,3.72,1.25,4.22,3.24h0Z" transform="translate(-10 -178.14)"/>
      <path class="cls-3" d="M125.91,257.76c0,10-8.43,16.32-14.63,23.67-3.59-.38-8.18-0.13-9.54-4.24v-1.74c6.82-7,16.11-12,20.33-20.68,1.86,0.25,2.6,2,3.84,3h0Z" transform="translate(-10 -178.14)"/>
      <path class="cls-3" d="M132.1,266.73c-1,8.84-6.69,15.94-11.28,23-4.21.25-7.93-.37-11.9-0.62,5.33-10.34,17.23-17.93,19.34-29.64,2.6,1.62,3.47,4.48,3.84,7.22h0Z" transform="translate(-10 -178.14)"/>
      <path class="cls-3" d="M76.44,266.73c1,2.24-2,3.24-1.12,5.11,1.61,0.75,4.09,1.87,4.09,4.11-0.25.62-.87,0.25-1.49,0.37-0.87-.87-1-2.74-2.6-2.37v2.37c-3.6,1.12-1.61-3.24-3.35-4.48-3.72-1.87-1.61-6-1.74-9.34,3.35-2.74,4.71,2.61,6.2,4.23h0Z" transform="translate(-10 -178.14)"/>
    </g>
    <path id="griffon_eye" class="cls-1" d="M96.15,221.65c-2.6-2.87-7.81,1.87-8.68-3a4.61,4.61,0,0,0,4.21-.62c1.74,1.25,2.73,2.24,4.46,3.61h0Z" transform="translate(-10 -178.14)"/>
  </g>
</svg>
